<?xml version="1.0" standalone="no"?>
<!DOCTYPE svg PUBLIC "-//W3C//DTD SVG 1.1//EN" "http://www.w3.org/Graphics/SVG/1.1/DTD/svg11.dtd" >
<svg>
<metadata>
Created by FontForge 20090914 at Sat Mar 16 20:15:40 2013
 By www-data
Copyright (c) 1987, 1992, 1998 Adobe Systems Incorporated.  All Rights Reserved.Eurostile is a trademark of Nebiolo.
</metadata>
<defs>
<font id="EurostileLT-Bold" horiz-adv-x="720" >
  <font-face 
    font-family="Eurostile LT Bold"
    font-weight="400"
    font-stretch="normal"
    units-per-em="1000"
    panose-1="2 0 8 5 5 0 0 2 0 4"
    ascent="800"
    descent="-200"
    x-height="525"
    cap-height="750"
    bbox="-173 -250 1267 986"
    underline-thickness="50"
    underline-position="-75"
    unicode-range="U+0020-U+FB02"
  />
<missing-glyph horiz-adv-x="360" 
 />
    <glyph glyph-name=".notdef" horiz-adv-x="360" 
 />
    <glyph glyph-name="space" unicode=" " horiz-adv-x="360" 
 />
    <glyph glyph-name="exclam" unicode="!" horiz-adv-x="349" 
d="M256 174h-162v-174h162v174zM268 750h-186l7 -455h172z" />
    <glyph glyph-name="quotedbl" unicode="&#x22;" horiz-adv-x="442" 
d="M41 750v-130l42 -129h54l42 129v130h-138zM263 750v-130l42 -129h54l42 129v130h-138z" />
    <glyph glyph-name="numbersign" unicode="#" 
d="M282 750l-39 -210h-117v-115h96l-24 -130h-113v-115h91l-33 -180h106l33 180h101l-33 -180h106l33 180h118v115h-94l24 130h98v115h-80l39 210h-105l-39 -210h-101l39 210h-106zM328 425h104l-26 -130h-102z" />
    <glyph glyph-name="dollar" unicode="$" 
d="M309 462c-20 0.666992 -36.167 1.99805 -48.5 3.99805s-22 5.16699 -29 9.5s-11.833 10.5 -14.5 18.5s-4 18.667 -4 32c0 16.667 2.16699 30 6.5 40s10.5 17.5 18.5 22.5s18 8.16699 30 9.5s25.667 2 41 2h97c16.667 0 30.667 -0.666992 42 -2s20.666 -4.5 27.999 -9.5
s12.666 -12.5 15.999 -22.5s5 -23.333 5 -40h175c0 51.333 -6.5 91.833 -19.5 121.5s-31.167 52.167 -54.5 67.5s-51.333 25.5 -84 30.5s-68.667 8.5 -108 10.5v82h-97v-82c-52 0 -95.667 -3 -131 -9s-63.833 -17.5 -85.5 -34.5s-37 -40.333 -46 -70
s-13.5 -68.5 -13.5 -116.5c0 -38 3 -70 9 -96s18.667 -47.333 38 -64s47.166 -29.5 83.499 -38.5s84.833 -15.5 145.5 -19.5l97 -7c23.333 -2 42.333 -4.33301 57 -7s26 -6.66699 34 -12s13.333 -12.333 16 -21s4 -20 4 -34c0 -19.333 -2.33301 -34.166 -7 -44.499
s-11.667 -18 -21 -23s-21 -7.83301 -35 -8.5s-30 -1 -48 -1h-97c-18.667 0 -34.667 0.666992 -48 2s-24.333 5.16602 -33 11.499s-15 16 -19 29s-6 31.167 -6 54.5h-180c0 -54 6.33301 -97.667 19 -131s31 -59 55 -77s53.833 -30 89.5 -36s76.5 -9 122.5 -9v-92h97v92
c52 0 96.333 3.83301 133 11.5s66.834 20.834 90.501 39.501s40.834 43.334 51.501 74.001s16 69 16 115c0 49.333 -6.66699 87.833 -20 115.5s-32.666 48.5 -57.999 62.5s-56 23.5 -92 28.5s-76.333 9.16699 -121 12.5z" />
    <glyph glyph-name="percent" unicode="%" horiz-adv-x="907" 
d="M742 750h-120l-443 -750h120zM884 240c-0.666992 30 -4.16699 53.833 -10.5 71.5s-16.166 31.334 -29.499 41.001s-30.333 15.834 -51 18.501s-45.667 4 -75 4s-53.833 -1.5 -73.5 -4.5s-35.834 -9.16699 -48.501 -18.5s-21.834 -23 -27.501 -41
s-8.83398 -42 -9.50098 -72v-110c0.666992 -30 3.83398 -53.833 9.50098 -71.5s14.834 -31.334 27.501 -41.001s29 -15.834 49 -18.501s44.667 -4 74 -4c28.667 0 53.334 1.5 74.001 4.5s37.667 9.16699 51 18.5s23.166 23 29.499 41s9.83301 42 10.5 72v110zM784 145
c0 -16 -1.16699 -28.333 -3.5 -37s-6 -15 -11 -19s-11.667 -6.33301 -20 -7s-18.833 -1 -31.5 -1c-12 0 -21.833 0.333008 -29.5 1s-13.667 3 -18 7s-7.33301 10.333 -9 19s-2.5 21 -2.5 37v83c0 14.667 0.833008 26 2.5 34s4.66699 14 9 18s10.333 6.33301 18 7
s17.5 1 29.5 1c13.333 0 24.333 -0.333008 33 -1s15.5 -3 20.5 -7s8.33301 -10 10 -18s2.5 -19.333 2.5 -34v-83zM348 621c-0.666992 30 -4.16699 53.833 -10.5 71.5s-16.166 31.334 -29.499 41.001s-30.333 15.834 -51 18.501s-45.667 4 -75 4s-53.833 -1.5 -73.5 -4.5
s-35.834 -9.16699 -48.501 -18.5s-21.834 -23 -27.501 -41s-8.83398 -42 -9.50098 -72v-110c0.666992 -30 3.83398 -53.833 9.50098 -71.5s14.834 -31.334 27.501 -41.001s29 -15.834 49 -18.501s44.667 -4 74 -4c28.667 0 53.334 1.5 74.001 4.5s37.667 9.16699 51 18.5
s23.166 23 29.499 41s9.83301 42 10.5 72v110zM248 526c0 -16 -1.16699 -28.333 -3.5 -37s-6 -15 -11 -19s-11.667 -6.33301 -20 -7s-18.833 -1 -31.5 -1c-12 0 -21.833 0.333008 -29.5 1s-13.667 3 -18 7s-7.33301 10.333 -9 19s-2.5 21 -2.5 37v83
c0 14.667 0.833008 26 2.5 34s4.66699 14 9 18s10.333 6.33301 18 7s17.5 1 29.5 1c13.333 0 24.333 -0.333008 33 -1s15.5 -3 20.5 -7s8.33301 -10 10 -18s2.5 -19.333 2.5 -34v-83z" />
    <glyph glyph-name="ampersand" unicode="&#x26;" horiz-adv-x="774" 
d="M483 169c-17.333 -8 -34.999 -12.666 -52.999 -13.999s-34.667 -2 -50 -2c-22.667 0 -42.834 0.5 -60.501 1.5s-32.5 4.5 -44.5 10.5s-21.167 15.667 -27.5 29s-9.5 32.666 -9.5 57.999c0 9.33301 0.166992 19 0.5 29s1.83301 19.167 4.5 27.5s7.16699 15.5 13.5 21.5
s15.5 9.66699 27.5 11zM671.001 0.000976562l88.998 107.004l-83 75c6 11.333 10.833 23.333 14.5 36s5.5 25 5.5 37v147h-159v-99l-184 164c-12.667 11.333 -22.5 22.166 -29.5 32.499s-10.5 24.166 -10.5 41.499c0 26.667 4.66699 44.334 14 53.001s26.666 13 51.999 13
c20.667 0 36.834 -1 48.501 -3s20.5 -6.33301 26.5 -13s9.83301 -16 11.5 -28s2.16699 -28.667 1.5 -50h172v38c0.666992 45.333 -4.66602 81.5 -15.999 108.5s-28 47.667 -50 62s-49.167 23.666 -81.5 27.999s-69.833 6.5 -112.5 6.5
c-41.333 0 -77.666 -2.33301 -108.999 -7s-57.5 -14.334 -78.5 -29.001s-36.667 -35.167 -47 -61.5s-15.5 -60.833 -15.5 -103.5c0 -15.333 0.833008 -28.666 2.5 -39.999s4.5 -21.833 8.5 -31.5s9.66699 -18.834 17 -27.501s17 -18 29 -28
c-28.667 -0.666992 -51.667 -6.66699 -69 -18s-30.833 -26.333 -40.5 -45s-16 -39.5 -19 -62.5s-4.5 -46.5 -4.5 -70.5c0 -54.667 8 -97.834 24 -129.501s38.333 -55.5 67 -71.5s63 -26.167 103 -30.5s84 -6.5 132 -6.5c20.667 0 41.5 0.333008 62.5 1
s41.167 3.16699 60.5 7.5s37.5 11 54.5 20s31.833 22.167 44.5 39.5z" />
    <glyph glyph-name="quotesingle" unicode="'" horiz-adv-x="220" 
d="M41 750v-130l42 -129h54l42 129v130h-138z" />
    <glyph glyph-name="parenleft" unicode="(" horiz-adv-x="385" 
d="M57 168c0 -38.667 0.666992 -73.332 2 -103.999s4.83301 -57.834 10.5 -81.501s14.167 -43.834 25.5 -60.501s27 -30.334 47 -41.001s45.167 -18.5 75.5 -23.5s67.166 -7.5 110.499 -7.5v164c-20 0 -35.5 3.66699 -46.5 11s-19 16.833 -24 28.5s-8 25.167 -9 40.5
s-1.5 31 -1.5 47v324c0 20.667 0.666992 39 2 55s4.83301 29.333 10.5 40s13.834 18.667 24.501 24s25.334 8 44.001 8v164c-68 0 -120.167 -6.83301 -156.5 -20.5s-63 -34.167 -80 -61.5s-26.833 -61.166 -29.5 -101.499s-4.33398 -87.166 -5.00098 -140.499v-264z" />
    <glyph glyph-name="parenright" unicode=")" horiz-adv-x="385" 
d="M328 432c-0.666992 53.333 -2.33594 100.17 -5.00293 140.503s-12.5 74.166 -29.5 101.499s-43.667 47.833 -80 61.5s-88.5 20.5 -156.5 20.5v-164c18.667 0 33.334 -2.66699 44.001 -8s18.834 -13.333 24.501 -24s9.16699 -24 10.5 -40s2 -34.333 2 -55v-324
c0 -16 -0.5 -31.667 -1.5 -47s-4 -28.833 -9 -40.5s-13 -21.167 -24 -28.5s-26.5 -11 -46.5 -11v-164c64.667 0 115.334 5.66699 152.001 17s63.667 29.666 81 54.999s28 58.166 32 98.499s6 89.5 6 147.5v264z" />
    <glyph glyph-name="asterisk" unicode="*" 
d="M565 564l-29 96l-130 -45v135h-93v-135l-126 45l-32 -88l127 -46l-78 -108l76 -55l84 111l78 -112l73 56l-75 107z" />
    <glyph glyph-name="plus" unicode="+" horiz-adv-x="600" 
d="M242 334h-192v-115h192v-199h115v199h193v115h-193v191h-115v-191z" />
    <glyph glyph-name="comma" unicode="," horiz-adv-x="360" 
d="M95 168l0.000976562 -168.001h62c0 -25.333 -4.83301 -42.666 -14.5 -51.999s-28.834 -14.333 -57.501 -15v-75c34 0 62.333 2.5 85 7.5s40.5 13.167 53.5 24.5s22 26 27 44s7.16699 40 6.5 66v168h-162z" />
    <glyph glyph-name="hyphen" unicode="-" horiz-adv-x="272" 
d="M0 358v-164h272v164h-272z" />
    <glyph glyph-name="hyphen" unicode="&#xad;" horiz-adv-x="272" 
d="M0 358v-164h272v164h-272z" />
    <glyph glyph-name="period" unicode="." horiz-adv-x="360" 
d="M252 174h-162v-174h162v174z" />
    <glyph glyph-name="slash" unicode="/" horiz-adv-x="637" 
d="M608 750h-137l-441 -863h137z" />
    <glyph glyph-name="zero" unicode="0" 
d="M360 756c-39.333 0 -77.833 -1.83301 -115.5 -5.5s-71 -14 -100 -31s-52.333 -43.167 -70 -78.5s-26.5 -84.666 -26.5 -147.999v-236c0 -63.333 8.83301 -112.666 26.5 -147.999s41 -61.5 70 -78.5s62.333 -27.333 100 -31s76.167 -5.5 115.5 -5.5
s77.833 1.83301 115.5 5.5s71 14 100 31s52.333 43.167 70 78.5s26.5 84.666 26.5 147.999v236c0 63.333 -8.83301 112.666 -26.5 147.999s-41 61.5 -70 78.5s-62.333 27.333 -100 31s-76.167 5.5 -115.5 5.5zM360 591c24.667 0 45 -0.833008 61 -2.5s28.5 -6.5 37.5 -14.5
s15.167 -20.833 18.5 -38.5s5 -42.5 5 -74.5v-172c0 -32 -1.66699 -56.833 -5 -74.5s-9.5 -30.5 -18.5 -38.5s-21.5 -12.833 -37.5 -14.5s-36.333 -2.5 -61 -2.5s-45 0.833008 -61 2.5s-28.5 6.5 -37.5 14.5s-15.167 20.833 -18.5 38.5s-5 42.5 -5 74.5v172
c0 32 1.66699 56.833 5 74.5s9.5 30.5 18.5 38.5s21.5 12.833 37.5 14.5s36.333 2.5 61 2.5z" />
    <glyph glyph-name="one" unicode="1" 
d="M558 750h-234l-273 -226l113 -128l194 177v-573h200v750z" />
    <glyph glyph-name="two" unicode="2" 
d="M654 156l-401.995 -0.00292969c0 25.333 3 44 9 56s16.5 21 31.5 27s35 11.333 60 16s56.5 12 94.5 22c39.333 10.667 72.166 21.5 98.499 32.5s47.5 25 63.5 42s27.333 38.833 34 65.5s10 61 10 103c0 52.667 -7.16699 94.667 -21.5 126s-34.333 55.166 -60 71.499
s-56.667 26.833 -93 31.5s-76.5 7 -120.5 7c-48 0 -90.333 -3.16699 -127 -9.5s-67.5 -18.166 -92.5 -35.499s-44 -42 -57 -74s-19.5 -73.333 -19.5 -124v-37h190v37c0 20 1.33301 35.833 4 47.5s7.66699 20.334 15 26.001s18 9.33398 32 11.001s32.333 2.5 55 2.5
c20 0 36.667 -0.666992 50 -2s24.166 -5 32.499 -11s14.166 -14.5 17.499 -25.5s5 -25.833 5 -44.5c0 -19.333 -1.16699 -34.166 -3.5 -44.499s-8 -18.833 -17 -25.5s-22.667 -12.334 -41 -17.001s-43.5 -10.667 -75.5 -18c-56.667 -13.333 -102.334 -26 -137.001 -38
s-61.334 -26.833 -80.001 -44.5s-31.167 -40.167 -37.5 -67.5s-9.5 -62.666 -9.5 -105.999v-156h592v156z" />
    <glyph glyph-name="three" unicode="3" 
d="M311 311l48.001 -0.00195312c26 0 46.667 -1.33301 62 -4s26.833 -6.66699 34.5 -12s12.5 -12.5 14.5 -21.5s3 -19.833 3 -32.5c0 -22 -2.16699 -39 -6.5 -51s-11 -21 -20 -27s-20.667 -9.66699 -35 -11s-31.833 -2 -52.5 -2c-17.333 0 -33 0.666992 -47 2
s-26 4.83301 -36 10.5s-17.667 14.334 -23 26.001s-8 28.167 -8 49.5v25h-190v-40c0 -53.333 8.16699 -95.333 24.5 -126s38.666 -53.667 66.999 -69s61.5 -24.833 99.5 -28.5s78.667 -5.5 122 -5.5c42 0 81 2.5 117 7.5s67.167 15.333 93.5 31s47 38 62 67
s22.5 67.833 22.5 116.5c0 22 -2 42.5 -6 61.5s-10.667 35.667 -20 50s-22 25.833 -38 34.5s-36 13.667 -60 15v8c22.667 2.66699 41.5 9.16699 56.5 19.5s26.833 23 35.5 38s14.667 32 18 51s5 39.167 5 60.5c0 48 -9.16699 85.5 -27.5 112.5s-41.666 47.167 -69.999 60.5
s-59.333 21.5 -93 24.5s-65.5 4.5 -95.5 4.5c-48 0 -90.833 -2 -128.5 -6s-69.667 -13.833 -96 -29.5s-46.333 -39 -60 -70s-20.5 -73.167 -20.5 -126.5v-26h190v15c0 21.333 2.16699 37.833 6.5 49.5s10.833 20.334 19.5 26.001s19.667 9 33 10s29 1.5 47 1.5
c25.333 0 45.166 -1.5 59.499 -4.5s24.833 -7.66699 31.5 -14s10.667 -14.833 12 -25.5s2 -23.667 2 -39c0 -12.667 -1 -23 -3 -31s-6.5 -14.167 -13.5 -18.5s-17.5 -7.33301 -31.5 -9s-33 -2.5 -57 -2.5h-48v-145z" />
    <glyph glyph-name="four" unicode="4" 
d="M618 750h-295l-287 -388v-214h392v-148h190v148h64v145h-64v457zM428 293h-235l228 303h7v-303z" />
    <glyph glyph-name="five" unicode="5" 
d="M65 218c1.33301 -46.667 8.33594 -84.502 21.0029 -113.502s30.834 -51.667 54.501 -68s53.167 -27.5 88.5 -33.5s76 -9 122 -9c54 0 100.333 3.16699 139 9.5s70.167 19.333 94.5 39s42.166 47.5 53.499 83.5s17 84 17 144c0 43.333 -3.66699 80.5 -11 111.5
s-20 56.5 -38 76.5s-42.167 34.667 -72.5 44s-68.166 14 -113.499 14c-24 0 -43.667 -0.333008 -59 -1s-28.833 -2.83398 -40.5 -6.50098s-22.334 -9.16699 -32.001 -16.5s-20.834 -17.666 -33.501 -30.999v144h370v145h-542v-420h172
c2.66699 8.66699 6.16699 15.5 10.5 20.5s10.166 8.66699 17.499 11s16.5 3.66602 27.5 3.99902s24.5 0.5 40.5 0.5c28 0 49.667 -1.66699 65 -5s26.666 -9.16602 33.999 -17.499s11.666 -20.166 12.999 -35.499s2 -35 2 -59s-1.83301 -42.667 -5.5 -56
s-10 -23.166 -19 -29.499s-20.667 -10.166 -35 -11.499s-32.5 -2 -54.5 -2c-14 0 -26.667 0.666992 -38 2s-21.166 4.16602 -29.499 8.49902s-15 11 -20 20s-7.83301 21.5 -8.5 37.5h-190z" />
    <glyph glyph-name="six" unicode="6" 
d="M343 299c22 0 40.667 -0.332031 56 -0.999023s27.833 -2.83398 37.5 -6.50098s16.667 -9.66699 21 -18s6.5 -20.5 6.5 -36.5c0 -20.667 -1.33301 -36.834 -4 -48.501s-8.16699 -20.334 -16.5 -26.001s-20.5 -9.16699 -36.5 -10.5s-37.333 -2 -64 -2
c-21.333 0 -38.166 1.16699 -50.499 3.5s-22 6.5 -29 12.5s-11.5 14.333 -13.5 25s-3 24.667 -3 42c0 14.667 1.5 26.334 4.5 35.001s8.16699 15.334 15.5 20.001s17.166 7.66699 29.499 9s27.833 2 46.5 2zM660 521.001l0.00195312 31.9971c0 48.667 -8 86.667 -24 114
s-37.5 47.5 -64.5 60.5s-58.333 21 -94 24s-72.834 4.5 -111.501 4.5c-54 0 -100.5 -3.16699 -139.5 -9.5s-71 -19.333 -96 -39s-43.333 -47.167 -55 -82.5s-17.5 -82 -17.5 -140v-188c0 -63.333 4.5 -114.666 13.5 -153.999s25 -70 48 -92s54.5 -37 94.5 -45
s90.667 -12 152 -12c48 0 90 3 126 9s66 17.833 90 35.5s42 42.667 54 75s18 74.5 18 126.5c0 48.667 -5.66699 87.334 -17 116.001s-28.333 50.334 -51 65.001s-50.667 24 -84 28s-72 6 -116 6c-16 0 -31 -0.5 -45 -1.5s-26.667 -4 -38 -9s-21.333 -12.667 -30 -23
s-16.334 -25.166 -23.001 -44.499h-2v119c0 24.667 1.83301 44 5.5 58s10 24.5 19 31.5s21.167 11.167 36.5 12.5s34.333 2 57 2c18.667 0 34.5 -0.666992 47.5 -2s23.667 -4.5 32 -9.5s14.5 -12.833 18.5 -23.5s6 -25.334 6 -44.001h190z" />
    <glyph glyph-name="seven" unicode="7" 
d="M624 750h-566v-168h361l-254 -582h210l249 582v168z" />
    <glyph glyph-name="eight" unicode="8" 
d="M358 309c26 0 46.6738 -0.669922 62.0068 -2.00293s27.166 -4.66602 35.499 -9.99902s13.666 -13.166 15.999 -23.499s3.5 -24.166 3.5 -41.499c0 -16.667 -0.833008 -30.334 -2.5 -41.001s-6.33398 -19 -14.001 -25s-19.334 -10.167 -35.001 -12.5
s-37.5 -3.5 -65.5 -3.5c-21.333 0 -39.333 1 -54 3s-26.334 6 -35.001 12s-14.834 14.167 -18.501 24.5s-5.5 23.5 -5.5 39.5c0 18 1.5 32.167 4.5 42.5s8.83301 18.333 17.5 24s20.167 9.33398 34.5 11.001s33.166 2.5 56.499 2.5zM360.007 -6.00293
c42 0 81.499 1.83301 118.499 5.5s69.333 12.667 97 27s49.5 35.666 65.5 63.999s24 67.166 24 116.499c0 22 -2 42.833 -6 62.5s-10.667 37.167 -20 52.5s-22.166 28 -38.499 38s-36.5 16.667 -60.5 20v7c22.667 7.33301 41.334 15.166 56.001 23.499
s26.334 18.5 35.001 30.5s14.667 26.667 18 44s5 38.666 5 63.999c0 48 -7.83301 85.833 -23.5 113.5s-36.834 48.5 -63.501 62.5s-57.834 22.667 -93.501 26s-73.5 5 -113.5 5c-36.667 0 -72.5 -1.66699 -107.5 -5s-66 -11.666 -93 -24.999s-48.833 -33.166 -65.5 -59.499
s-25 -62.5 -25 -108.5c0 -47.333 9 -84.833 27 -112.5s49.667 -47.167 95 -58.5v-7c-24 -1.33301 -44.5 -7 -61.5 -17s-31 -23 -42 -39s-19.167 -34.167 -24.5 -54.5s-8 -41.166 -8 -62.499c0 -48.667 8.33301 -87.167 25 -115.5s39.167 -49.666 67.5 -63.999
s60.833 -23.5 97.5 -27.5s75 -6 115 -6zM360.006 453.997c-18 0 -33.502 0.665039 -46.502 1.99805s-23.5 4.5 -31.5 9.5s-13.833 12.167 -17.5 21.5s-5.5 22 -5.5 38c0 16.667 1.33301 30 4 40s7.83398 17.5 15.501 22.5s18 8.33301 31 10s29.833 2.5 50.5 2.5
c24 0 43 -1.16699 57 -3.5s24.5 -6 31.5 -11s11.333 -12 13 -21s2.5 -19.833 2.5 -32.5c0 -17.333 -1.5 -31.166 -4.5 -41.499s-8.33301 -18.166 -16 -23.499s-18.167 -8.83301 -31.5 -10.5s-30.666 -2.5 -51.999 -2.5z" />
    <glyph glyph-name="nine" unicode="9" 
d="M374 451c-22 0 -40.6689 0.332031 -56.002 0.999023s-27.833 2.83398 -37.5 6.50098s-16.667 9.66699 -21 18s-6.5 20.5 -6.5 36.5c0 20.667 1.33301 36.834 4 48.501s8.16699 20.334 16.5 26.001s20.5 9.16699 36.5 10.5s37.333 2 64 2
c20.667 0 37.334 -1.16699 50.001 -3.5s22.5 -6.5 29.5 -12.5s11.5 -14.333 13.5 -25s3 -24.667 3 -42c0 -14.667 -1.5 -26.334 -4.5 -35.001s-8.16699 -15.334 -15.5 -20.001s-17.166 -7.66699 -29.499 -9s-27.833 -2 -46.5 -2zM56.998 228.999l-0.00195312 -31.9971
c0 -48.667 8 -86.667 24 -114s37.5 -47.5 64.5 -60.5s58.333 -21 94 -24s72.834 -4.5 111.501 -4.5c54 0 100.5 3.16699 139.5 9.5s71 19.333 96 39s43.333 47.167 55 82.5s17.5 82 17.5 140v188c0 63.333 -4.5 114.666 -13.5 153.999s-25 70 -48 92s-54.5 37 -94.5 45
s-90.667 12 -152 12c-48 0 -90 -3 -126 -9s-66 -17.833 -90 -35.5s-42 -42.667 -54 -75s-18 -74.5 -18 -126.5c0 -48.667 5.66699 -87.334 17 -116.001s28.333 -50.334 51 -65.001s50.667 -24 84 -28s72 -6 116 -6c16 0 31 0.5 45 1.5s26.667 4 38 9s21.333 12.667 30 23
s16.334 25.166 23.001 44.499h2v-119c0 -25.333 -1.83301 -44.833 -5.5 -58.5s-10 -24 -19 -31s-21.167 -11.167 -36.5 -12.5s-34.333 -2 -57 -2c-18.667 0 -34.5 0.666992 -47.5 2s-23.667 4.5 -32 9.5s-14.5 12.833 -18.5 23.5s-6 25.334 -6 44.001h-190z" />
    <glyph glyph-name="colon" unicode=":" horiz-adv-x="360" 
d="M252 174h-162v-174h162v174zM252 525h-162v-174h162v174z" />
    <glyph glyph-name="semicolon" unicode=";" horiz-adv-x="360" 
d="M85 -142c34 0 62.334 2.49902 85.001 7.49902s40.5 13.167 53.5 24.5s22 26 27 44s7.16699 40 6.5 66v168h-162v-168h62c0 -25.333 -4.83301 -42.666 -14.5 -51.999s-28.834 -14.333 -57.501 -15v-75zM257.001 524.999h-162v-174h162v174z" />
    <glyph glyph-name="semicolon" unicode="&#x37e;" horiz-adv-x="360" 
d="M85 -142c34 0 62.334 2.49902 85.001 7.49902s40.5 13.167 53.5 24.5s22 26 27 44s7.16699 40 6.5 66v168h-162v-168h62c0 -25.333 -4.83301 -42.666 -14.5 -51.999s-28.834 -14.333 -57.501 -15v-75zM257.001 524.999h-162v-174h162v174z" />
    <glyph glyph-name="less" unicode="&#x3c;" horiz-adv-x="600" 
d="M550 525l-500 -188v-120l500 -188v128l-338 119v2l338 119v128z" />
    <glyph glyph-name="equal" unicode="=" horiz-adv-x="600" 
d="M50 449v-115h500v115h-500zM50 219v-115h500v115h-500z" />
    <glyph glyph-name="greater" unicode="&#x3e;" horiz-adv-x="600" 
d="M50 525v-128l338 -119v-2l-338 -119v-128l500 188v120z" />
    <glyph glyph-name="question" unicode="?" horiz-adv-x="605" 
d="M361 265l0.00195312 30.0029c0 15.333 3.66699 27.166 11 35.499s21.666 17.166 42.999 26.499c26.667 12 49.167 23.333 67.5 34s33.166 23.334 44.499 38.001s19.666 32.5 24.999 53.5s8 47.833 8 80.5c0 42.667 -6 76.667 -18 102s-29 44.666 -51 57.999
s-48.5 22.166 -79.5 26.499s-65.5 6.5 -103.5 6.5c-40 0 -76 -2 -108 -6s-59.333 -12.833 -82 -26.5s-40.167 -33.167 -52.5 -58.5s-18.833 -59.333 -19.5 -102v-31h172v31c0 14 2.33301 25 7 33s11 14.167 19 18.5s17.5 7 28.5 8s22.833 1.5 35.5 1.5
c27.333 0 47.5 -3.5 60.5 -10.5s19.5 -23.833 19.5 -50.5c0 -14 -1.5 -25.5 -4.5 -34.5s-7.33301 -16.5 -13 -22.5s-12.167 -11.167 -19.5 -15.5s-15.333 -8.5 -24 -12.5l-36 -17c-23.333 -11.333 -41.666 -22 -54.999 -32s-23.5 -21 -30.5 -33s-11.5 -26 -13.5 -42
s-3 -35.667 -3 -59v-30h172zM356.002 174.003h-162v-174h162v174z" />
    <glyph glyph-name="at" unicode="@" horiz-adv-x="760" 
d="M291 351c0 12.667 2.5 25.499 7.5 38.499s11.833 24.667 20.5 35s19 18.666 31 24.999s25 9.5 39 9.5c24.667 0 44.167 -8 58.5 -24s21.5 -36.333 21.5 -61c0 -14 -2.33301 -27.667 -7 -41s-11.5 -25.166 -20.5 -35.499s-19.833 -18.666 -32.5 -24.999
s-26.667 -9.5 -42 -9.5c-24.667 0 -43.5 8.83301 -56.5 26.5s-19.5 38.167 -19.5 61.5zM498 505.999c-15.333 20.667 -33.3301 35.667 -53.9971 45s-43.667 14 -69 14c-31.333 0 -59.5 -6.5 -84.5 -19.5s-46.333 -30.167 -64 -51.5s-31.334 -45.833 -41.001 -73.5
s-14.5 -56.167 -14.5 -85.5c0 -24.667 4.66699 -47.667 14 -69s21.666 -40 36.999 -56s33.166 -28.667 53.499 -38s41.5 -14 63.5 -14c17.333 0 34.666 4.33301 51.999 13s32 20 44 34l2 -2c-1.33301 -16.667 3.83398 -29 15.501 -37s25.834 -12 42.501 -12
c34 0 66.167 8 96.5 24s56.833 37.5 79.5 64.5s40.667 58 54 93s20 71.5 20 109.5c0 44.667 -10.167 86 -30.5 124s-47 70.833 -80 98.5s-70.167 49.334 -111.5 65.001s-83 23.5 -125 23.5c-53.333 0 -103.166 -9.83301 -149.499 -29.5s-86.833 -46.834 -121.5 -81.501
s-61.834 -75.167 -81.501 -121.5s-29.5 -96.5 -29.5 -150.5c0 -54.667 10.167 -105.167 30.5 -151.5s48 -86.333 83 -120s76 -60 123 -79s97.5 -28.5 151.5 -28.5c62.667 0 119 13.667 169 41s93 66 129 116h-99c-24.667 -19.333 -53.167 -35.333 -85.5 -48
s-67.5 -19 -105.5 -19c-42.667 0 -82.167 6.83301 -118.5 20.5s-67.666 33 -93.999 58s-46.833 55.333 -61.5 91s-22 75.5 -22 119.5c0 41.333 6.66699 79.833 20 115.5s32.166 66.667 56.499 93s53.666 47 87.999 62s72.5 22.5 114.5 22.5c38 0 73.333 -5.66699 106 -17
s61 -27.833 85 -49.5s42.833 -48.167 56.5 -79.5s20.5 -67.333 20.5 -108c0 -27.333 -3 -52.166 -9 -74.499s-13.833 -41.5 -23.5 -57.5s-20.167 -28.5 -31.5 -37.5s-22.333 -13.5 -33 -13.5s-15.667 3.66699 -15 11s1.66699 15.666 3 24.999l49 292h-95z" />
    <glyph glyph-name="A" unicode="A" horiz-adv-x="733" 
d="M502 129l39 -129h204l-228 750h-304l-225 -750h208l37 129h269zM462 275h-186l91 325h2z" />
    <glyph glyph-name="B" unicode="B" horiz-adv-x="738" 
d="M60 0l397.997 -0.00292969c40 0 75.167 2.33301 105.5 7s55.833 14.167 76.5 28.5s36.334 35.333 47.001 63s16 64.5 16 110.5c0 23.333 -1.5 45 -4.5 65s-9.16699 37.333 -18.5 52s-22.5 26.334 -39.5 35.001s-39.5 14 -67.5 16v8c24.667 4 44.667 10.833 60 20.5
s27.333 21.834 36 36.501s14.5 31.667 17.5 51s4.5 41 4.5 65c0 40.667 -5.33301 73.667 -16 99s-26.167 44.833 -46.5 58.5s-45.166 22.834 -74.499 27.501s-62.666 7 -99.999 7h-394v-750zM259.997 585.997l168 -0.000976562c14 -0.666992 25.167 -2.16699 33.5 -4.5
s14.666 -6 18.999 -11s7.16602 -11.5 8.49902 -19.5s2 -17.667 2 -29c0 -15.333 -1.33301 -27.666 -4 -36.999s-7.16699 -16.5 -13.5 -21.5s-15.166 -8.5 -26.499 -10.5s-25.666 -3 -42.999 -3h-144v136zM259.997 310.996l155 -0.000976562c16 0 29.667 -0.833008 41 -2.5
s20.5 -5 27.5 -10s12 -12.167 15 -21.5s4.5 -21.666 4.5 -36.999c0 -30.667 -7.16699 -51 -21.5 -61s-37.833 -15 -70.5 -15h-151v147z" />
    <glyph glyph-name="C" unicode="C" horiz-adv-x="728" 
d="M489 284l-0.00292969 -22c0 -22 -2.5 -39.333 -7.5 -52s-12.667 -22 -23 -28s-23.166 -9.83301 -38.499 -11.5s-33.333 -2.5 -54 -2.5c-30 0 -53.333 2.83301 -70 8.5s-29.167 14.667 -37.5 27s-13.333 28.333 -15 48s-2.5 43.5 -2.5 71.5v117
c0 26.667 1.16699 49.167 3.5 67.5s7.66602 33 15.999 44s20.833 18.833 37.5 23.5s39.334 7 68.001 7c16.667 0 32.167 -0.666992 46.5 -2s26.833 -4.33301 37.5 -9s19.167 -11.834 25.5 -21.501s10.5 -22.834 12.5 -39.501v-29h206v29
c-1.33301 56 -8.33301 100.333 -21 133s-31.5 57.334 -56.5 74.001s-56.5 27.334 -94.5 32.001s-82.667 7 -134 7c-55.333 0 -104.666 -3.16699 -147.999 -9.5s-80.333 -19.5 -111 -39.5s-54 -48.667 -70 -86s-24 -87 -24 -149v-194c0 -68.667 8.83301 -122 26.5 -160
s42.167 -66.167 73.5 -84.5s68.5 -29.5 111.5 -33.5s90.167 -6 141.5 -6c22 0 43.5 0.166992 64.5 0.5s41.5 2.33301 61.5 6s39.333 9.16699 58 16.5s36.667 18 54 32c16.667 14 29.667 29.167 39 45.5s16.333 33.5 21 51.5s7.33398 36.667 8.00098 56s1 39.333 1 60v22
h-206z" />
    <glyph glyph-name="D" unicode="D" horiz-adv-x="775" 
d="M52 0h407.001c52 0 95.667 6.16699 131 18.5s63.666 31 84.999 56s36.5 56.333 45.5 94s13.5 82.167 13.5 133.5v157c0 53.333 -6 98.5 -18 135.5s-30.333 67 -55 90s-56 39.667 -94 50s-83 15.5 -135 15.5h-380v-750zM252.001 576h175c17.333 0 32.333 -1.5 45 -4.5
s23.167 -8.83301 31.5 -17.5s14.5 -20.667 18.5 -36s6 -35 6 -59v-157c0 -40 -7.5 -71.333 -22.5 -94s-41.167 -34 -78.5 -34h-175v402z" />
    <glyph glyph-name="E" unicode="E" horiz-adv-x="678" 
d="M264 586h341v164h-541v-750h548v164h-348v146h320v139h-320v137z" />
    <glyph glyph-name="F" unicode="F" horiz-adv-x="616" 
d="M255 586h332v164h-532v-750h200v275h306v164h-306v147z" />
    <glyph glyph-name="G" unicode="G" horiz-adv-x="758" 
d="M720 517c0 59.333 -8.16504 105.167 -24.498 137.5s-39.166 56 -68.499 71s-64.333 23.833 -105 26.5s-85.334 4 -134.001 4c-55.333 0 -104.833 -3.16699 -148.5 -9.5s-81 -19.666 -112 -39.999s-54.667 -49.166 -71 -86.499s-24.5 -87 -24.5 -149v-194
c0 -60.667 7.5 -109.5 22.5 -146.5s37.333 -65.667 67 -86s66.667 -33.833 111 -40.5s96.166 -10 155.499 -10c66.667 0 121.5 3.66699 164.5 11s77 21.833 102 43.5s42.167 52 51.5 91s14 90.167 14 153.5v131h-341v-139h138c0 -26 -2 -47.167 -6 -63.5
s-10.833 -29.333 -20.5 -39s-22.834 -16.167 -39.501 -19.5s-37.667 -5 -63 -5c-26 0 -48.5 1.5 -67.5 4.5s-34.5 9.5 -46.5 19.5s-21 24.667 -27 44s-9 45.666 -9 78.999v122c0.666992 30 2 55.5 4 76.5s7.83301 38 17.5 51s24.5 22.5 44.5 28.5s48 9 84 9
c14.667 0 29.5 -0.333008 44.5 -1s28.667 -3.33398 41 -8.00098s22.333 -12.167 30 -22.5s12.167 -24.833 13.5 -43.5h203z" />
    <glyph glyph-name="H" unicode="H" horiz-adv-x="788" 
d="M725 750h-200v-282h-261v282h-200v-750h200v294h261v-294h200v750z" />
    <glyph glyph-name="I" unicode="I" horiz-adv-x="324" 
d="M262 750h-200v-750h200v750z" />
    <glyph glyph-name="J" unicode="J" horiz-adv-x="602" 
d="M343 750l-0.00390625 -519.001c0 -12 -0.666992 -22 -2 -30s-4.5 -14.5 -9.5 -19.5s-12.167 -8.5 -21.5 -10.5s-21.666 -3 -36.999 -3c-13.333 0 -24 1.5 -32 4.5s-14.167 7.83301 -18.5 14.5s-7.16602 15.334 -8.49902 26.001s-2 23.667 -2 39v62h-190v-62
c0 -52 3.33301 -94.833 10 -128.5s19.167 -60 37.5 -79s43.833 -32.167 76.5 -39.5s75 -11 127 -11c52.667 0 96.334 3 131.001 9s62.334 17.5 83.001 34.5s35.167 41 43.5 72s12.5 71.5 12.5 121.5v519h-200z" />
    <glyph glyph-name="K" unicode="K" horiz-adv-x="752" 
d="M264 750h-200v-750h200v294h60l209 -294h248l-286 382l264 368h-242l-193 -282h-60v282z" />
    <glyph glyph-name="L" unicode="L" horiz-adv-x="585" 
d="M258 750h-200v-750h513v174h-313v576z" />
    <glyph glyph-name="M" unicode="M" horiz-adv-x="1049" 
d="M241 575h6l192 -575h173l190 575h7l-20 -575h200v750h-325l-136 -471h-7l-143 471h-317v-750h200z" />
    <glyph glyph-name="N" unicode="N" horiz-adv-x="871" 
d="M249 576h8l212 -576h341v750h-200l12 -576h-8l-215 576h-338v-750h200z" />
    <glyph glyph-name="O" unicode="O" horiz-adv-x="760" 
d="M380 -6c50.667 0 97.334 3.5 140.001 10.5s79.334 20.5 110.001 40.5s54.5 47.833 71.5 83.5s25.5 82.5 25.5 140.5v212c0 58 -8.5 104.833 -25.5 140.5s-40.833 63.5 -71.5 83.5s-67.334 33.5 -110.001 40.5s-89.334 10.5 -140.001 10.5s-97.334 -3.5 -140.001 -10.5
s-79.334 -20.5 -110.001 -40.5s-54.5 -47.833 -71.5 -83.5s-25.5 -82.5 -25.5 -140.5v-212c0 -58 8.5 -104.833 25.5 -140.5s40.833 -63.5 71.5 -83.5s67.334 -33.5 110.001 -40.5s89.334 -10.5 140.001 -10.5zM380 168c-26 0 -47.833 1.16699 -65.5 3.5
s-32 7.66602 -43 15.999s-19 20.666 -24 36.999s-7.83301 38.5 -8.5 66.5v169c0.666992 28 3.5 50 8.5 66s13 28.167 24 36.5s25.333 13.666 43 15.999s39.5 3.5 65.5 3.5s48 -1.16699 66 -3.5s32.5 -7.66602 43.5 -15.999s19 -20.5 24 -36.5s7.5 -38 7.5 -66v-169
c0 -28 -2.5 -50.167 -7.5 -66.5s-13 -28.666 -24 -36.999s-25.5 -13.666 -43.5 -15.999s-40 -3.5 -66 -3.5z" />
    <glyph glyph-name="P" unicode="P" horiz-adv-x="711" 
d="M258 0l-0.00195312 192h177c52 0 94.667 4.83301 128 14.5s59.5 25.667 78.5 48s32 51.5 39 87.5s10.5 80.333 10.5 133c0 48.667 -4.66699 90.5 -14 125.5s-24.166 63.5 -44.499 85.5s-46.666 38.167 -78.999 48.5s-71.833 15.5 -118.5 15.5h-377v-750h200zM257.998 366
v209.998h137c19.333 0 35 -1.66699 47 -5s21.167 -8.83301 27.5 -16.5s10.5 -18 12.5 -31s3 -29.167 3 -48.5c0 -24 -1 -43.167 -3 -57.5s-6.16699 -25.166 -12.5 -32.499s-15.333 -12.166 -27 -14.499s-27.5 -3.83301 -47.5 -4.5h-137z" />
    <glyph glyph-name="Q" unicode="Q" horiz-adv-x="796" 
d="M433 378l-79 -112l133 -87c-13.333 -5.33301 -27.333 -8.5 -42 -9.5s-30.334 -1.5 -47.001 -1.5c-24.667 0 -46 0.833008 -64 2.5s-32.667 6.5 -44 14.5s-19.833 20.167 -25.5 36.5s-8.5 38.833 -8.5 67.5v135c0 33.333 1.5 60.333 4.5 81s9.33301 36.667 19 48
s23.834 19 42.501 23s43.667 6 75 6s56.5 -2 75.5 -6s33.5 -11.667 43.5 -23s16.5 -27.333 19.5 -48s4.5 -47.667 4.5 -81v-122zM731 -1l81.998 111.001l-82 56c4.66699 12.667 8.33398 26.667 11.001 42s4 34.666 4 57.999v188c0 61.333 -7.5 111.666 -22.5 150.999
s-37 70.166 -66 92.499s-65.333 37.666 -109 45.999s-93.834 12.5 -150.501 12.5c-57.333 0 -107.666 -4.16699 -150.999 -12.5s-79.5 -23.666 -108.5 -45.999s-51 -53.166 -66 -92.499s-22.5 -89.666 -22.5 -150.999v-158c0 -62.667 7.16699 -113.667 21.5 -153
s36 -70 65 -92s65.333 -37 109 -45s94.5 -12 152.5 -12c20.667 0 42.5 0.5 65.5 1.5s45.833 3.5 68.5 7.5s44.834 10.333 66.501 19s41.167 20.667 58.5 36z" />
    <glyph glyph-name="R" unicode="R" horiz-adv-x="742" 
d="M257 373l-0.000976562 202.999h155c32.667 0 54.667 -6 66 -18s17 -34.667 17 -68c0 -21.333 -0.333008 -39.333 -1 -54s-3.5 -26.667 -8.5 -36s-13.167 -16.166 -24.5 -20.499s-27.666 -6.5 -48.999 -6.5h-155zM56.999 -0.000976562l199.998 0.00292969v199h155
c30 0 51.5 -8.66699 64.5 -26s18.833 -40 17.5 -68v-105h200v151c0 42.667 -12.167 75.167 -36.5 97.5s-57.166 34.166 -98.499 35.499v8c35.333 8 62.666 18.667 81.999 32s33.5 29.5 42.5 48.5s14.167 41 15.5 66s2 53.167 2 84.5c0 46.667 -5.33301 84.667 -16 114
s-26.667 52.166 -48 68.499s-48.166 27.666 -80.499 33.999s-70.166 9.83301 -113.499 10.5h-386v-750z" />
    <glyph glyph-name="S" unicode="S" horiz-adv-x="716" 
d="M320 462c-13.333 0.666992 -25 1.83301 -35 3.5s-18.5 4.5 -25.5 8.5s-12.333 10.167 -16 18.5s-5.5 20.166 -5.5 35.499c0 10.667 1 20 3 28s7 14.667 15 20s19.667 9.33301 35 12s36.666 4 63.999 4c20 0 37 -0.333008 51 -1s25.5 -3.5 34.5 -8.5
s15.667 -12.667 20 -23s6.5 -25.166 6.5 -44.499h192v31c0 52 -8.16699 92.167 -24.5 120.5s-38.333 49.166 -66 62.499s-60 21.166 -97 23.499s-75.833 3.5 -116.5 3.5c-49.333 0 -93.5 -1.83301 -132.5 -5.5s-72.167 -13.167 -99.5 -28.5s-48.333 -38.166 -63 -68.499
s-22 -72.5 -22 -126.5s6.66699 -95.5 20 -124.5s32.5 -50.5 57.5 -64.5s55.667 -23 92 -27s77.5 -7.66699 123.5 -11l44 -3c23.333 -1.33301 42 -2.66602 56 -3.99902s24.667 -4.16602 32 -8.49902s12 -11 14 -20s3 -21.5 3 -37.5s-2.16699 -28.5 -6.5 -37.5
s-11.333 -15.833 -21 -20.5s-22.5 -7.66699 -38.5 -9s-35.667 -2 -59 -2c-24.667 0 -45 0.833008 -61 2.5s-28.833 5.5 -38.5 11.5s-16.5 14.667 -20.5 26s-6 26.666 -6 45.999h-192c0 -61.333 7.66699 -108.833 23 -142.5s36.833 -58.5 64.5 -74.5s61 -25.5 100 -28.5
s82.5 -4.5 130.5 -4.5c54.667 0 100.834 3.16699 138.501 9.5s68.5 15.166 92.5 26.499s42.333 24.833 55 40.5s22 32.5 28 50.5s9.33301 37.167 10 57.5s1 40.833 1 61.5c0 42.667 -4 77.334 -12 104.001s-22.333 47.5 -43 62.5s-49 26 -85 33s-81.667 12.5 -137 16.5z" />
    <glyph glyph-name="T" unicode="T" horiz-adv-x="595" 
d="M393 576h202v174h-594v-174h192v-576h200v576z" />
    <glyph glyph-name="U" unicode="U" horiz-adv-x="771" 
d="M509 750l-0.00390625 -487c0 -22 -2 -39.333 -6 -52s-10.5 -22.167 -19.5 -28.5s-20.667 -10.333 -35 -12s-32.166 -2.5 -53.499 -2.5s-40.166 0.5 -56.499 1.5s-30 4.16699 -41 9.5s-19.5 13.833 -25.5 25.5s-9 28.167 -9 49.5v496h-200v-500
c0 -45.333 3.16699 -84 9.5 -116s21 -58.5 44 -79.5s56.333 -36.333 100 -46s103.167 -14.5 178.5 -14.5c54.667 0 101.834 4 141.501 12s72.334 21.667 98.001 41s44.5 45.5 56.5 78.5s18 74.5 18 124.5v500h-200z" />
    <glyph glyph-name="V" unicode="V" horiz-adv-x="711" 
d="M355 172h-6l-162 578h-203l212 -750h312l219 750h-207z" />
    <glyph glyph-name="W" unicode="W" horiz-adv-x="1104" 
d="M799 172h-7l-134 578h-208l-141 -578h-7l-108 578h-203l162 -750h286l109 470h8l102 -470h289l166 750h-201z" />
    <glyph glyph-name="X" unicode="X" horiz-adv-x="732" 
d="M733 750h-230l-136 -275l-135 275h-234l211 -364l-225 -386h235l148 289l149 -289h233l-223 386z" />
    <glyph glyph-name="Y" unicode="Y" horiz-adv-x="708" 
d="M724 750h-232l-138 -289h-7l-134 289h-229l266 -487v-263h200v263z" />
    <glyph glyph-name="Z" unicode="Z" horiz-adv-x="659" 
d="M636 750h-590v-174h331v-6l-354 -401v-169h613v174h-359v6l359 402v168z" />
    <glyph glyph-name="bracketleft" unicode="[" horiz-adv-x="385" 
d="M57 756v-906h271v164h-81v578h81v164h-271z" />
    <glyph glyph-name="backslash" unicode="\" horiz-adv-x="640" 
d="M472 -113h137l-441 863h-137z" />
    <glyph glyph-name="bracketright" unicode="]" horiz-adv-x="385" 
d="M328 -150v906h-271v-164h81v-578h-81v-164h271z" />
    <glyph glyph-name="asciicircum" unicode="^" horiz-adv-x="600" 
d="M180 250l119 338h2l119 -338h130l-190 500h-120l-190 -500h130z" />
    <glyph glyph-name="underscore" unicode="_" horiz-adv-x="500" 
d="M500 -75h-500v-50h500v50z" />
    <glyph glyph-name="grave" unicode="`" horiz-adv-x="404" 
d="M125 756l-50 -111l226 -71l28 62z" />
    <glyph glyph-name="a" unicode="a" horiz-adv-x="609" 
d="M288 217c28 0 50.6699 -2.50098 68.0029 -7.50098s26 -18.5 26 -40.5c0 -14 -1.5 -25.167 -4.5 -33.5s-8.16699 -14.666 -15.5 -18.999s-17 -7.33301 -29 -9s-27 -2.5 -45 -2.5c-6.66699 0 -14.334 0.333008 -23.001 1s-16.834 2.66699 -24.501 6s-14.167 9 -19.5 17
s-8 19 -8 33c0 24 7.16699 39.167 21.5 45.5s32.166 9.5 53.499 9.5zM382.003 -0.000976562h172.002v328c0 45.333 -4.83301 81.333 -14.5 108s-24.5 47 -44.5 61s-45.833 23.167 -77.5 27.5s-69.5 6.5 -113.5 6.5c-30.667 0 -60.5 -0.833008 -89.5 -2.5
s-54.833 -7.5 -77.5 -17.5s-40.834 -26 -54.501 -48s-20.5 -53.333 -20.5 -94h172c0 23.333 6.33301 38.666 19 45.999s29.667 11 51 11c18.667 0 33.334 -1.83301 44.001 -5.5s18.5 -9 23.5 -16s8 -15.5 9 -25.5s1.5 -21 1.5 -33v-83h-8
c-4.66699 14.667 -12.5 26.167 -23.5 34.5s-23.333 14.166 -37 17.499s-27.834 5.33301 -42.501 6s-28 1 -40 1c-31.333 0 -58.833 -2.66699 -82.5 -8s-43.5 -14.333 -59.5 -27s-28 -29.667 -36 -51s-12 -47.666 -12 -78.999c0 -33.333 4.33301 -60.666 13 -81.999
s21 -38 37 -50s35.833 -20.167 59.5 -24.5s50.5 -6.5 80.5 -6.5c14.667 0 30.334 1 47.001 3s32.167 6 46.5 12s26.666 14.5 36.999 25.5s17.166 25.5 20.499 43.5h6z" />
    <glyph glyph-name="b" unicode="b" horiz-adv-x="613" 
d="M55 750v-750h172l-4 91h8c4.66699 -20 11.667 -36.167 21 -48.5s20.5 -22.166 33.5 -29.499s27.5 -12.333 43.5 -15s33.333 -4 52 -4c63.333 0 112.333 14.833 147 44.5s52 79.167 52 148.5v120c0 40 -3.66699 74.167 -11 102.5s-18.833 51.5 -34.5 69.5
s-36.167 31.167 -61.5 39.5s-56 12.5 -92 12.5c-16 0 -31.167 -1 -45.5 -3s-27.833 -6 -40.5 -12s-24.167 -14.333 -34.5 -25s-18.833 -24.334 -25.5 -41.001h-8v300h-172zM322 126c-22.667 0 -40.334 2.33008 -53.001 6.99707s-22.167 12.334 -28.5 23.001
s-10.166 24.834 -11.499 42.501s-2 39.167 -2 64.5c0 30 1.66699 53.833 5 71.5s8.66602 31.334 15.999 41.001s17 16 29 19s27 4.5 45 4.5c20 0 35.667 -3 47 -9s20 -14.667 26 -26s9.66699 -25.5 11 -42.5s2 -36.5 2 -58.5c0 -28 -1 -50.833 -3 -68.5
s-6.16699 -31.5 -12.5 -41.5s-15.166 -17 -26.499 -21s-26 -6 -44 -6z" />
    <glyph glyph-name="c" unicode="c" horiz-adv-x="557" 
d="M364 210c0 -16 -0.671875 -29.501 -2.00488 -40.501s-4.66602 -19.667 -9.99902 -26s-13.5 -10.833 -24.5 -13.5s-26.167 -4 -45.5 -4c-16 0 -29.167 1.33301 -39.5 4s-18.5 8.66699 -24.5 18s-10 23 -12 41s-3 42.333 -3 73c0 30 1.33301 54 4 72s7 31.833 13 41.5
s14 16 24 19s22.667 4.5 38 4.5c34.667 0 57.334 -5 68.001 -15c6 -5.33301 10 -12.5 12 -21.5s2.66699 -20.5 2 -34.5h172c0 46.667 -6.16699 83.5 -18.5 110.5s-29.666 47.333 -51.999 61s-49 22.334 -80 26.001s-65.5 5.5 -103.5 5.5c-54 0 -97.333 -5.66699 -130 -17
s-58 -28.333 -76 -51s-30 -50.667 -36 -84s-9 -72.333 -9 -117c0 -52 3.5 -95.167 10.5 -129.5s19.833 -61.666 38.5 -81.999s44.334 -34.833 77.001 -43.5s74.334 -13 125.001 -13c46.667 0 86 2 118 6s58 13.667 78 29c20.667 14.667 35.5 36.167 44.5 64.5
s13.5 67.166 13.5 116.499h-172z" />
    <glyph glyph-name="d" unicode="d" horiz-adv-x="612" 
d="M558 750h-172v-300h-8c-7.33301 16.667 -16 30.334 -26 41.001s-21.333 19 -34 25s-26.167 10 -40.5 12s-29.5 3 -45.5 3c-36 0 -66.667 -4.16699 -92 -12.5s-45.833 -21.5 -61.5 -39.5s-27.167 -41.167 -34.5 -69.5s-11 -62.5 -11 -102.5v-120
c0 -69.333 17.333 -118.833 52 -148.5s83.667 -44.5 147 -44.5c18.667 0 36 1.33301 52 4s30.5 7.66699 43.5 15s24 17.166 33 29.499s16.167 28.5 21.5 48.5h8l-4 -91h172v750zM205 262c0 26 0.499023 47.8359 1.49902 65.5029s4.33301 31.667 10 42s14.5 17.833 26.5 22.5
s28.667 7 50 7c22.667 0 40.334 -2.33301 53.001 -7s22 -12.334 28 -23.001s9.5 -24.834 10.5 -42.501s1.5 -39.167 1.5 -64.5c0 -30 -1.5 -53.833 -4.5 -71.5s-8.16699 -31.334 -15.5 -41.001s-16.833 -16 -28.5 -19s-26.5 -4.5 -44.5 -4.5s-32.667 1 -44 3
s-20.333 7.5 -27 16.5s-11.167 22.667 -13.5 41s-3.5 43.5 -3.5 75.5z" />
    <glyph glyph-name="e" unicode="e" horiz-adv-x="574" 
d="M202 328c0.666992 17.333 2.33398 31.333 5.00098 42s7.16699 19 13.5 25s14.666 10.167 24.999 12.5s23.166 3.5 38.499 3.5c14.667 0 27.334 -0.666992 38.001 -2s19.667 -4.83301 27 -10.5s12.833 -14 16.5 -25s5.5 -26.167 5.5 -45.5h-169zM374 175
c0 -14 -1.99707 -24.999 -5.99707 -32.999s-9.83301 -14 -17.5 -18s-16.834 -6.66699 -27.501 -8s-22.667 -2 -36 -2c-18 0 -32.5 1.83301 -43.5 5.5s-19.5 10.167 -25.5 19.5s-10.167 21.5 -12.5 36.5s-3.5 34.167 -3.5 57.5h341v29c0 53.333 -4.16699 97.333 -12.5 132
s-22.333 62.167 -42 82.5s-45.834 34.5 -78.501 42.5s-73.667 12 -123 12c-52.667 0 -95.667 -4.5 -129 -13.5s-59.5 -24 -78.5 -45s-32 -48.667 -39 -83s-10.5 -76.833 -10.5 -127.5c0 -49.333 3.66699 -91 11 -125s20.666 -61.5 39.999 -82.5s45.5 -36.333 78.5 -46
s75.5 -14.5 127.5 -14.5c38 0 72.667 2 104 6s58.333 12.333 81 25c22.667 13.333 40.167 31.666 52.5 54.999s18.5 55 18.5 95h-169z" />
    <glyph glyph-name="f" unicode="f" horiz-adv-x="393" 
d="M378 525h-117v19c0 16.667 0.5 30.167 1.5 40.5s4 18.5 9 24.5s12.667 10 23 12s25.166 3 44.499 3c10 0 20.667 -1.66699 32 -5v131c-57.333 0.666992 -104.166 -1.66602 -140.499 -6.99902s-65 -14.5 -86 -27.5s-35.5 -30.833 -43.5 -53.5s-12 -51.334 -12 -86.001v-51
h-69v-126h69v-399h172v399h117v126z" />
    <glyph glyph-name="g" unicode="g" horiz-adv-x="615" 
d="M295 132c-18.667 0 -33.6689 1.66699 -45.002 5s-20.166 9.83301 -26.499 19.5s-10.666 22.834 -12.999 39.501s-3.5 38.667 -3.5 66c0 30 0.833008 54.167 2.5 72.5s5.5 32.166 11.5 41.499s14.833 15.5 26.5 18.5s27.5 4.5 47.5 4.5c18 0 32.833 -1.5 44.5 -4.5
s21 -9.33301 28 -19s11.833 -23.5 14.5 -41.5s4 -42 4 -72c0 -22.667 -0.833008 -42.167 -2.5 -58.5s-5.5 -29.833 -11.5 -40.5s-15.167 -18.5 -27.5 -23.5s-28.833 -7.5 -49.5 -7.5zM55.998 -47c1.33301 -41.333 6.16699 -74.335 14.5 -99.002s22 -43.5 41 -56.5
s43.833 -21.333 74.5 -25s69.334 -5.5 116.001 -5.5c50.667 0 92.5 4.16699 125.5 12.5s59.167 22.333 78.5 42s32.833 45.834 40.5 78.501s11.5 73.667 11.5 123v502h-172l6 -93h-6c-5.33301 20 -12.666 36.5 -21.999 49.5s-20.333 23.167 -33 30.5
s-26.834 12.333 -42.501 15s-32.834 4 -51.501 4c-45.333 0 -81.333 -6 -108 -18s-47 -29.5 -61 -52.5s-23 -51.167 -27 -84.5s-6 -71.333 -6 -114c0 -37.333 1.83301 -72 5.5 -104s12.334 -59.667 26.001 -83s33.834 -41.666 60.501 -54.999s63.334 -20 110.001 -20
c33.333 0 62.666 6.16699 87.999 18.5s43.666 34.833 54.999 67.5h6v-109c0 -18 -1.16699 -32.667 -3.5 -44s-6.83301 -20 -13.5 -26s-15.834 -10 -27.501 -12s-26.834 -3 -45.501 -3c-10 0 -19.5 0.5 -28.5 1.5s-17.167 3.16699 -24.5 6.5
c-7.33301 4 -13.166 10.167 -17.499 18.5s-6.5 19.833 -6.5 34.5h-163z" />
    <glyph glyph-name="h" unicode="h" horiz-adv-x="619" 
d="M229 750l-171.999 -0.000976562v-750h172v289c0 16 1 30.667 3 44s6.33301 25 13 35s15.834 17.667 27.501 23s27.167 8 46.5 8c28 0 46.667 -6.33301 56 -19s14.333 -31.667 15 -57v-323h172v363c0 56.667 -13.5 98.834 -40.5 126.501s-69.833 41.5 -128.5 41.5
c-40.667 0 -73.834 -7 -99.501 -21s-44.834 -41.667 -57.501 -83h-7v323z" />
    <glyph glyph-name="i" unicode="i" horiz-adv-x="257" 
d="M215 525h-172v-525h172v525zM215 750h-172v-132h172v132z" />
    <glyph glyph-name="j" unicode="j" horiz-adv-x="242" 
d="M202 525h-172v-514c0 -13.333 -2.83301 -25 -8.5 -35s-19.167 -15 -40.5 -15v-118c8.66699 -2.66699 17.167 -4.33398 25.5 -5.00098s16.833 -1 25.5 -1c56.667 0 99.167 11.333 127.5 34s42.5 63.334 42.5 122.001v532zM202 750h-172v-132h172v132z" />
    <glyph glyph-name="k" unicode="k" horiz-adv-x="592" 
d="M227 750h-172v-750h172v213h30l126 -213h201l-182 273l148 252h-189l-104 -197h-30v422z" />
    <glyph glyph-name="l" unicode="l" horiz-adv-x="289" 
d="M231 750h-172v-750h172v750z" />
    <glyph glyph-name="m" unicode="m" horiz-adv-x="929" 
d="M58 525v-524.999h172v298c0 16 1 30.167 3 42.5s6 22.833 12 31.5s14.5 15.334 25.5 20.001s25.5 7 43.5 7c14.667 0 26.334 -2 35.001 -6s15.167 -9.5 19.5 -16.5s7 -15.5 8 -25.5s1.83301 -21 2.5 -33v-318h172v298c0 14 1 27.167 3 39.5s6 23 12 32
s14.167 16.167 24.5 21.5s23.833 8 40.5 8s29.5 -2.33301 38.5 -7s15.667 -11.334 20 -20.001s7 -18.667 8 -30s1.83301 -24 2.5 -38v-304h172v359c0 61.333 -15.333 105.333 -46 132s-76.334 40 -137.001 40c-16.667 0 -33.167 -1.83301 -49.5 -5.5
s-31.333 -9.66699 -45 -18s-25.167 -19 -34.5 -32s-15 -28.833 -17 -47.5h-8c-2 22.667 -8 40.667 -18 54s-22.333 23.666 -37 30.999s-31 12.166 -49 14.499s-36.333 3.5 -55 3.5c-14.667 0 -29.5 -1.33301 -44.5 -4s-29 -7 -42 -13s-24.5 -14.167 -34.5 -24.5
s-17.667 -23.166 -23 -38.499h-7v74h-167z" />
    <glyph glyph-name="n" unicode="n" horiz-adv-x="619" 
d="M57 525l0.000976562 -525.001h172v289c0 16 1 30.667 3 44s6.33301 25 13 35s15.834 17.667 27.501 23s27.167 8 46.5 8c28 0 46.667 -6.33301 56 -19s14.333 -31.667 15 -57v-323h172v363c0 56.667 -13.5 98.834 -40.5 126.501s-69.833 41.5 -128.5 41.5
c-40.667 0 -73.834 -7 -99.501 -21s-44.834 -41.667 -57.501 -83h-7v98h-172z" />
    <glyph glyph-name="o" unicode="o" horiz-adv-x="593" 
d="M296 531c-54.667 0 -99.168 -4.00195 -133.501 -12.002s-61 -22 -80 -42s-31.833 -47.333 -38.5 -82s-10 -79 -10 -133c0 -52.667 3.5 -96.167 10.5 -130.5s20.167 -61.666 39.5 -81.999s46 -34.666 80 -42.999s78 -12.5 132 -12.5c54.667 0 99 3.83301 133 11.5
s60.667 21.5 80 41.5s32.5 47.333 39.5 82s10.5 79 10.5 133c0 55.333 -3.33301 100.5 -10 135.5s-19.667 62.333 -39 82s-46.166 33.167 -80.499 40.5s-78.833 11 -133.5 11zM298.999 398.998c20 0 35.833 -1.83301 47.5 -5.5s20.5 -10.5 26.5 -20.5
s9.83301 -23.833 11.5 -41.5s2.5 -40.834 2.5 -69.501s-0.833008 -51.834 -2.5 -69.501s-5.5 -31.5 -11.5 -41.5s-14.833 -16.667 -26.5 -20s-27.5 -5 -47.5 -5c-20.667 0 -37.167 1.66699 -49.5 5s-21.666 10 -27.999 20s-10.5 23.833 -12.5 41.5s-3 40.834 -3 69.501
s1 51.834 3 69.501s6.16699 31.5 12.5 41.5s15.666 16.833 27.999 20.5s28.833 5.5 49.5 5.5z" />
    <glyph glyph-name="p" unicode="p" horiz-adv-x="618" 
d="M55 -227h171.999v306h8c6.66699 -18 15.167 -32.5 25.5 -43.5s21.833 -19.667 34.5 -26s26.167 -10.5 40.5 -12.5s29.5 -3 45.5 -3c36 0 66.667 4.16699 92 12.5s45.833 21.5 61.5 39.5s27.167 41.167 34.5 69.5s11 62.5 11 102.5v120
c0 69.333 -17.333 118.833 -52 148.5s-83.667 44.5 -147 44.5c-37.333 0 -69.166 -6 -95.499 -18s-44.5 -35.667 -54.5 -71h-8l4 83h-172v-752zM312.999 399c22.667 0 40.334 -2.33008 53.001 -6.99707s22.167 -12.334 28.5 -23.001s10.166 -24.834 11.499 -42.501
s2 -39.167 2 -64.5c0 -30 -1.66699 -53.833 -5 -71.5s-8.66602 -31.334 -15.999 -41.001s-17 -16 -29 -19s-27 -4.5 -45 -4.5c-20 0 -35.667 3 -47 9s-20 14.667 -26 26s-9.66699 25.5 -11 42.5s-2 36.5 -2 58.5c0 28 1 50.833 3 68.5s6.16699 31.5 12.5 41.5
s15.166 17 26.499 21s26 6 44 6z" />
    <glyph glyph-name="q" unicode="q" horiz-adv-x="619" 
d="M562 -227l-0.000976562 752h-172l4 -83h-8c-10 35.333 -28.167 59 -54.5 71s-58.166 18 -95.499 18c-63.333 0 -112.333 -14.833 -147 -44.5s-52 -79.167 -52 -148.5v-120c0 -40 3.66699 -74.167 11 -102.5s18.833 -51.5 34.5 -69.5s36.167 -31.167 61.5 -39.5
s56 -12.5 92 -12.5c16 0 31.167 1 45.5 3s27.833 6.16699 40.5 12.5s24 15 34 26s18.667 25.5 26 43.5h8v-306h172zM294.999 399c22.667 0 40.334 -2.33008 53.001 -6.99707s22.167 -12.334 28.5 -23.001s10.166 -24.834 11.499 -42.501s2 -39.167 2 -64.5
c0 -30 -1.66699 -53.833 -5 -71.5s-8.66602 -31.334 -15.999 -41.001s-17 -16 -29 -19s-27 -4.5 -45 -4.5c-20 0 -35.667 3 -47 9s-20 14.667 -26 26s-9.66699 25.5 -11 42.5s-2 36.5 -2 58.5c0 28 1 50.833 3 68.5s6.16699 31.5 12.5 41.5s15.166 17 26.499 21s26 6 44 6z
" />
    <glyph glyph-name="r" unicode="r" horiz-adv-x="501" 
d="M335 296l154.999 -0.00195312v41c0 24 -1.16699 47.667 -3.5 71s-7.83301 44 -16.5 62s-21.667 32.667 -39 44s-41 17 -71 17c-32 0 -59.167 -6.33301 -81.5 -19s-39.166 -34 -50.499 -64h-7v77h-167v-525h172v315c0 10.667 0.833008 21 2.5 31s5 19 10 27
s11.5 14.333 19.5 19s18.667 7 32 7c12 0 21 -2.33301 27 -7s10.333 -10.667 13 -18s4.16699 -15.666 4.5 -24.999s0.5 -18.666 0.5 -27.999v-25z" />
    <glyph glyph-name="s" unicode="s" horiz-adv-x="578" 
d="M521 376l-0.00292969 25.0049c0 32 -7.66699 56.833 -23 74.5s-34.5 30.667 -57.5 39s-48 13.166 -75 14.499s-52.5 2 -76.5 2c-36.667 0 -70.667 -1 -102 -3s-58.5 -8.5 -81.5 -19.5s-41 -28.167 -54 -51.5s-19.5 -56 -19.5 -98c0 -26.667 3.16699 -49.834 9.5 -69.501
s18.666 -35.834 36.999 -48.501s44.333 -22.167 78 -28.5s77.834 -9.5 132.501 -9.5c14.667 0 27.667 -0.333008 39 -1s20.833 -2.5 28.5 -5.5s13.334 -8.16699 17.001 -15.5s5.5 -17.333 5.5 -30c0 -10 -1 -18.167 -3 -24.5s-6.16699 -11 -12.5 -14s-15.5 -5 -27.5 -6
s-27.667 -1.5 -47 -1.5c-10.667 0 -21 0.333008 -31 1s-19 2.83398 -27 6.50098s-14.5 9.5 -19.5 17.5s-7.5 19.333 -7.5 34h-172c0 -43.333 7 -76.5 21 -99.5s32.833 -39.833 56.5 -50.5s51 -16.667 82 -18s63.5 -2 97.5 -2c34.667 0 67.5 2 98.5 6
s58.167 12.167 81.5 24.5s42 30.166 56 53.499s21 54.333 21 93c0 36.667 -5 65.5 -15 86.5s-25.5 36.833 -46.5 47.5s-47.667 17.5 -80 20.5s-70.833 5.16699 -115.5 6.5c-22 0.666992 -39 2.16699 -51 4.5s-21 5.5 -27 9.5s-9.5 8.66699 -10.5 14s-1.5 11.333 -1.5 18
c0 8 0.5 14.667 1.5 20s4.33301 9.66602 10 12.999s14.5 5.66602 26.5 6.99902s29.333 2 52 2c6.66699 0 13.834 -0.166992 21.501 -0.5s14.834 -2 21.501 -5s12.5 -7.5 17.5 -13.5s8.16699 -14.333 9.5 -25h162z" />
    <glyph glyph-name="t" unicode="t" horiz-adv-x="485" 
d="M449 525l-198.998 -0.000976562v111h-172v-111h-64v-126h64v-259c0 -33.333 5.33301 -59.666 16 -78.999s25.167 -34 43.5 -44s39.666 -16.333 63.999 -19s50.166 -4 77.499 -4c34.667 0 64.334 2.33301 89.001 7s44.667 13.5 60 26.5s26.5 30.833 33.5 53.5
s10.5 52 10.5 88v47h-137l-1 -28c-0.666992 -9.33301 -1.16699 -18 -1.5 -26s-1.83301 -15.167 -4.5 -21.5s-7 -11.333 -13 -15s-14.667 -5.5 -26 -5.5c-16 0 -26.333 3.5 -31 10.5s-7.33398 18.167 -8.00098 33.5v235h199v126z" />
    <glyph glyph-name="u" unicode="u" horiz-adv-x="615" 
d="M555 0l-0.000976562 524.998h-172v-323c0 -13.333 -2.83301 -24.666 -8.5 -33.999s-13.167 -17.166 -22.5 -23.499s-19.833 -11 -31.5 -14s-23.167 -4.5 -34.5 -4.5c-14.667 0 -26.167 2.16699 -34.5 6.5s-14.666 10.5 -18.999 18.5s-7 17.167 -8 27.5
s-1.5 21.5 -1.5 33.5v313h-172v-359c0 -32 4.33301 -59 13 -81s21 -39.667 37 -53s34.833 -23 56.5 -29s45.5 -9 71.5 -9c36.667 0 69 7.66699 97 23s48 43.333 60 84h8l-6 -101h167z" />
    <glyph glyph-name="v" unicode="v" horiz-adv-x="530" 
d="M537 525h-178l-86 -410h-5l-95 410h-180l145 -525h270z" />
    <glyph glyph-name="w" unicode="w" horiz-adv-x="838" 
d="M837 525h-162l-61 -410h-7l-87 410h-201l-87 -410h-8l-58 410h-165l95 -525h250l72 374h6l74 -374h247z" />
    <glyph glyph-name="x" unicode="x" horiz-adv-x="545" 
d="M537 525h-200l-63 -145l-60 145h-199l135 -247l-156 -278h207l73 173l75 -173h202l-152 278z" />
    <glyph glyph-name="y" unicode="y" horiz-adv-x="533" 
d="M540 525l-175.997 -0.00390625l-85 -427h-2l-104 427h-180l156 -525h94c-0.666992 -15.333 -2.33398 -29.666 -5.00098 -42.999s-7.33398 -25.333 -14.001 -36s-15.667 -19 -27 -25s-26 -9 -44 -9c-5.33301 0 -10.333 0.166992 -15 0.5s-9.66699 0.833008 -15 1.5v-119
l29.5 -2c9.66699 -0.666992 19.5 -1 29.5 -1c36.667 0 67.667 3.33301 93 10s46.666 17.334 63.999 32.001s31.333 33.834 42 57.501s19.667 52.834 27 87.501z" />
    <glyph glyph-name="z" unicode="z" horiz-adv-x="496" 
d="M40 525v-120h229l-248 -263v-142h454v120h-254l254 269v136h-435z" />
    <glyph glyph-name="braceleft" unicode="{" horiz-adv-x="385" 
d="M24 242c4.66699 0 11.667 -0.166992 21 -0.5s18.5 -2.16602 27.5 -5.49902s16.833 -8.66602 23.5 -15.999s10 -18 10 -32v-205c0 -23.333 4.16699 -43.333 12.5 -60s18.5 -30.334 30.5 -41.001s24.333 -18.667 37 -24s23.667 -8 33 -8h142v132h-37
c-11.333 0 -20.166 1.5 -26.499 4.5s-11 6.83301 -14 11.5s-4.66699 10.167 -5 16.5s-0.5 12.5 -0.5 18.5v171c-0.666992 23.333 -4.5 41.666 -11.5 54.999s-15.5 23.333 -25.5 30s-20.333 11 -31 13s-20 3.33301 -28 4v2c8 0.666992 17.333 2.5 28 5.5s21 7.83301 31 14.5
s18.5 16 25.5 28s10.833 27.333 11.5 46v171c0 6 0.166992 12.167 0.5 18.5s2 11.833 5 16.5s7.66699 8.5 14 11.5s15.166 4.5 26.499 4.5h37v132h-142c-9.33301 0 -20.333 -2.66699 -33 -8s-25 -13.333 -37 -24s-22.167 -24.5 -30.5 -41.5s-12.5 -36.833 -12.5 -59.5v-205
c0 -11.333 -3.33301 -19.833 -10 -25.5s-14.5 -10 -23.5 -13s-18.167 -4.66699 -27.5 -5s-16.333 -0.5 -21 -0.5v-132z" />
    <glyph glyph-name="bar" unicode="|" horiz-adv-x="600" 
d="M358 750h-115v-1000h115v1000z" />
    <glyph glyph-name="braceright" unicode="}" horiz-adv-x="385" 
d="M361 374c-5.33301 0 -12.5 0.166992 -21.5 0.5s-18 2 -27 5s-16.833 7.33301 -23.5 13s-10 14.167 -10 25.5v205c0 22.667 -4.16699 42.5 -12.5 59.5s-18.5 30.833 -30.5 41.5s-24.5 18.667 -37.5 24s-23.833 8 -32.5 8h-142v-132h37c11.333 0 20.166 -1.5 26.499 -4.5
s11 -6.83301 14 -11.5s4.66699 -10.167 5 -16.5s0.5 -12.5 0.5 -18.5v-171c0.666992 -18.667 4.5 -34 11.5 -46s15.5 -21.333 25.5 -28s20.333 -11.5 31 -14.5s20 -4.83301 28 -5.5v-2c-8 -0.666992 -17.333 -2 -28 -4s-21 -6.33301 -31 -13s-18.5 -16.667 -25.5 -30
s-10.833 -31.666 -11.5 -54.999v-171c0 -6 -0.166992 -12.167 -0.5 -18.5s-2 -11.833 -5 -16.5s-7.66699 -8.5 -14 -11.5s-15.166 -4.5 -26.499 -4.5h-37v-132h142c8.66699 0 19.5 2.66699 32.5 8s25.5 13.333 37.5 24s22.167 24.334 30.5 41.001s12.5 36.667 12.5 60v205
c0 14 3.33301 24.667 10 32s14.5 12.666 23.5 15.999s18 5.16602 27 5.49902s16.167 0.5 21.5 0.5v132z" />
    <glyph glyph-name="asciitilde" unicode="~" horiz-adv-x="600" 
d="M453 359c0.666992 -8 0.49707 -16.833 -0.50293 -26.5s-3 -18.834 -6 -27.501s-6.66699 -15.834 -11 -21.501s-9.83301 -8.5 -16.5 -8.5c-7.33301 0 -15.833 2 -25.5 6s-20.834 10.667 -33.501 20l-111 78c-12.667 8.66699 -24.5 14.667 -35.5 18s-21.5 5 -31.5 5
c-27.333 0 -49.5 -6.66699 -66.5 -20s-30.333 -30.166 -40 -50.499s-16.334 -42.666 -20.001 -66.999s-5.5 -47.5 -5.5 -69.5h97c0.666992 8 1.33398 17 2.00098 27s1.83398 19.5 3.50098 28.5s4.16699 16.5 7.5 22.5s8.33301 9 15 9c12.667 0 29.334 -6.33301 50.001 -19
l123 -80c29.333 -19.333 54 -29 74 -29c25.333 0 46.333 6.66699 63 20s29.834 30 39.501 50s16.334 42 20.001 66s5.5 47 5.5 69h-97z" />
    <glyph glyph-name="Euro" 
d="M712 685c-19.333 18.667 -40.832 32.834 -64.499 42.501s-47 16.667 -70 21s-44.333 6.66602 -64 6.99902s-35.167 0.5 -46.5 0.5c-48 0 -92.833 -2.83301 -134.5 -8.5s-78.334 -17.5 -110.001 -35.5s-57.167 -43.667 -76.5 -77s-30.333 -77.333 -33 -132h-66l-42 -102
h107v-41h-63l-42 -102h105c1.33301 -63.333 11.166 -112.666 29.499 -147.999s43.333 -61.666 75 -78.999s68.834 -27.833 111.501 -31.5s89 -5.5 139 -5.5c14.667 0 30.5 1.16699 47.5 3.5s34 5.5 51 9.5s33.333 9 49 15s29.5 13 41.5 21v184
c-7.33301 -7.33301 -16.5 -15 -27.5 -23s-24.167 -15.333 -39.5 -22s-33.333 -12.334 -54 -17.001s-44 -7 -70 -7c-29.333 0 -53.666 1.83301 -72.999 5.5s-35 9.5 -47 17.5s-21.167 18.333 -27.5 31s-10.5 28 -12.5 46h234l42 102h-279v41h294l41 102h-332
c2.66699 15.333 7.33398 28.666 14.001 39.999s16.167 20.5 28.5 27.5s28.166 12.167 47.499 15.5s42.666 5 69.999 5c14.667 0 30.167 -0.5 46.5 -1.5s32.333 -3.5 48 -7.5s31 -10.333 46 -19s29.167 -20.667 42.5 -36z" />
    <glyph glyph-name="Euro" unicode="&#x20ac;" 
d="M712 685c-19.333 18.667 -40.832 32.834 -64.499 42.501s-47 16.667 -70 21s-44.333 6.66602 -64 6.99902s-35.167 0.5 -46.5 0.5c-48 0 -92.833 -2.83301 -134.5 -8.5s-78.334 -17.5 -110.001 -35.5s-57.167 -43.667 -76.5 -77s-30.333 -77.333 -33 -132h-66l-42 -102
h107v-41h-63l-42 -102h105c1.33301 -63.333 11.166 -112.666 29.499 -147.999s43.333 -61.666 75 -78.999s68.834 -27.833 111.501 -31.5s89 -5.5 139 -5.5c14.667 0 30.5 1.16699 47.5 3.5s34 5.5 51 9.5s33.333 9 49 15s29.5 13 41.5 21v184
c-7.33301 -7.33301 -16.5 -15 -27.5 -23s-24.167 -15.333 -39.5 -22s-33.333 -12.334 -54 -17.001s-44 -7 -70 -7c-29.333 0 -53.666 1.83301 -72.999 5.5s-35 9.5 -47 17.5s-21.167 18.333 -27.5 31s-10.5 28 -12.5 46h234l42 102h-279v41h294l41 102h-332
c2.66699 15.333 7.33398 28.666 14.001 39.999s16.167 20.5 28.5 27.5s28.166 12.167 47.499 15.5s42.666 5 69.999 5c14.667 0 30.167 -0.5 46.5 -1.5s32.333 -3.5 48 -7.5s31 -10.333 46 -19s29.167 -20.667 42.5 -36z" />
    <glyph glyph-name="Zcaron" horiz-adv-x="659" 
d="M636 750h-590v-174h331v-6l-354 -401v-169h613v174h-359v6l359 402v168zM328 815l183 109l-25 57l-158 -62l-152 62l-27 -57z" />
    <glyph glyph-name="Zcaron" unicode="&#x17d;" horiz-adv-x="659" 
d="M636 750h-590v-174h331v-6l-354 -401v-169h613v174h-359v6l359 402v168zM328 815l183 109l-25 57l-158 -62l-152 62l-27 -57z" />
    <glyph glyph-name="zcaron" horiz-adv-x="496" 
d="M40 525v-120h229l-248 -263v-142h454v120h-254l254 269v136h-435zM246 590l183 109l-25 57l-158 -62l-152 62l-27 -57z" />
    <glyph glyph-name="zcaron" unicode="&#x17e;" horiz-adv-x="496" 
d="M40 525v-120h229l-248 -263v-142h454v120h-254l254 269v136h-435zM246 590l183 109l-25 57l-158 -62l-152 62l-27 -57z" />
    <glyph glyph-name="nonbreakingspace" unicode="&#xa0;" horiz-adv-x="360" 
 />
    <glyph glyph-name="exclamdown" unicode="&#xa1;" horiz-adv-x="349" 
d="M256 525h-162v-174h162v174zM82 -227h186l-7 455h-172z" />
    <glyph glyph-name="cent" unicode="&#xa2;" 
d="M395 -11l-0.000976562 90c45.333 0 81.5 4.16699 108.5 12.5s47.667 21.333 62 39s23.666 40.5 27.999 68.5s6.5 61.667 6.5 101h-160c0.666992 -33.333 -4.83301 -56.5 -16.5 -69.5s-33.834 -19.5 -66.501 -19.5c-18 0 -32.167 1.33301 -42.5 4s-18 9 -23 19
s-8.16699 24.833 -9.5 44.5s-2 46.167 -2 79.5c0 27.333 0.833008 49.5 2.5 66.5s5.33398 30.333 11.001 40s13.5 16.167 23.5 19.5s23.333 5 40 5c16 0 29.333 -1.66699 40 -5s19 -8 25 -14s10.333 -13.5 13 -22.5s4.33398 -19.167 5.00098 -30.5h160
c0.666992 38 -2.66602 70 -9.99902 96s-19.333 47 -36 63s-38 27.5 -64 34.5s-57.667 10.5 -95 10.5v75h-76v-75c-47.333 0 -85 -5.66699 -113 -17s-49.5 -28.166 -64.5 -50.499s-24.833 -49.833 -29.5 -82.5s-7 -70.334 -7 -113.001c0 -46 2.5 -86.5 7.5 -121.5
s15.167 -64.167 30.5 -87.5s37 -40.833 65 -52.5s65 -17.5 111 -17.5v-90h76z" />
    <glyph glyph-name="sterling" unicode="&#xa3;" 
d="M702 501v34.998c0 42 -3.83301 77 -11.5 105s-21.667 50.5 -42 67.5s-48.333 29.167 -84 36.5s-81.834 11 -138.501 11c-58 0 -105.667 -4.33301 -143 -13s-66.833 -22.167 -88.5 -40.5s-36.667 -41.833 -45 -70.5s-12.833 -63 -13.5 -103v-108h-89v-145h89
c0 -15.333 -0.166992 -30 -0.5 -44s-2.5 -26.333 -6.5 -37s-10.5 -19.167 -19.5 -25.5s-22.167 -9.5 -39.5 -9.5v-160h632v160h-413v5c10.667 5.33301 19.167 11 25.5 17s11 13.333 14 22s5 18.834 6 30.501s1.5 25.5 1.5 41.5h190v145h-190v79c0 18 1.33301 32.667 4 44
s7.33398 20.333 14.001 27s15.667 11.334 27 14.001s26 4 44 4c16 0 29.167 -1.16699 39.5 -3.5s18.5 -6.83301 24.5 -13.5c6.66699 -6 11.167 -14.667 13.5 -26s3.5 -26.333 3.5 -45h196z" />
    <glyph glyph-name="currency" unicode="&#xa4;" 
d="M538 252l23.4971 46.4971c9.66699 19.667 14.5 44.834 14.5 75.501c-1.33301 25.333 -6.16602 45.333 -14.499 60s-15.166 27.334 -20.499 38.001l84 83l-72 71l-83 -82c-11.333 8.66699 -26.5 15.5 -45.5 20.5s-39.5 8.16699 -61.5 9.5
c-23.333 1.33301 -44.833 -1.33398 -64.5 -8.00098s-35.834 -14.667 -48.501 -24l-82 82l-73 -72l83 -81c-10 -9.33301 -18.333 -22.5 -25 -39.5s-10.5 -35.667 -11.5 -56s1.5 -41 7.5 -62s16.333 -40.5 31 -58.5l-82 -83l71 -70l84 84
c14 -11.333 30.333 -19.666 49 -24.999s37 -8.66602 55 -9.99902c14.667 0 27.334 1 38.001 3s20.167 4.66699 28.5 8s15.833 7 22.5 11s13.334 7.66699 20.001 11l81 -81l72 68zM263.997 357.997c-1.33301 12 0.165039 24.168 4.49805 36.501s10.833 23.166 19.5 32.499
s19 17 31 23s25.333 9 40 9s28 -3 40 -9s22.333 -13.667 31 -23s15 -20.166 19 -32.499s5.66699 -24.5 5 -36.5c0.666992 -8 -0.666016 -17.333 -3.99902 -28s-8.83301 -20.834 -16.5 -30.501s-17.667 -17.667 -30 -24s-27.166 -9.5 -44.499 -9.5
c-12 0 -23.667 2.33301 -35 7s-21.333 11.167 -30 19.5s-15.667 18 -21 29s-8.33301 23.167 -9 36.5z" />
    <glyph glyph-name="yen" unicode="&#xa5;" 
d="M607 558l104 192h-220l-131 -289h-7l-127 289h-217l101 -192h-91v-132h160l41 -78h-201v-132h237v-216h200v216h245v132h-208l42 78h166v132h-94z" />
    <glyph glyph-name="brokenbar" unicode="&#xa6;" horiz-adv-x="600" 
d="M358 175h-115v-350h115v350zM358 675h-115v-350h115v350z" />
    <glyph glyph-name="section" unicode="&#xa7;" 
d="M270 215c-12 2 -22.5059 4.00195 -31.5059 6.00195s-16.667 5.16699 -23 9.5s-11.166 11.166 -14.499 20.499s-5 22.666 -5 39.999c0 8.66699 0.666992 17.334 2 26.001s4 16.5 8 23.5s9.5 12.667 16.5 17s15.833 6.5 26.5 6.5c8.66699 0 18 -1 28 -3s19.333 -4 28 -6
l121 -23c22 -4 39.333 -8 52 -12s22.334 -8.83301 29.001 -14.5s10.834 -12.5 12.501 -20.5s2.5 -17.667 2.5 -29c0 -8.66699 -0.666992 -17.5 -2 -26.5s-3.66602 -17.167 -6.99902 -24.5s-8.5 -13.333 -15.5 -18s-15.833 -7 -26.5 -7
c-5.33301 0 -12.666 0.666992 -21.999 2s-16.666 2.66602 -21.999 3.99902zM659.994 559.002c0 46.667 -7.83398 83.168 -23.501 109.501s-37.167 46 -64.5 59s-59.666 21 -96.999 24s-77.666 4.5 -120.999 4.5c-69.333 0 -124.333 -4.83301 -165 -14.5
s-71.5 -23.167 -92.5 -40.5s-34.667 -38 -41 -62s-9.5 -50.333 -9.5 -79c0 -14 0.333008 -28 1 -42s2.5 -27.5 5.5 -40.5s8 -25.167 15 -36.5s16.833 -21.333 29.5 -30c-17.333 -5.33301 -30.833 -13.166 -40.5 -23.499s-16.667 -22.333 -21 -36s-7 -28.334 -8 -44.001
s-1.5 -30.834 -1.5 -45.501c0 -30 1.83301 -54.833 5.5 -74.5s10.5 -35.667 20.5 -48s24.333 -22 43 -29s43 -13.167 73 -18.5l238 -41c14.667 -2.66699 27.5 -5.33398 38.5 -8.00098s20.167 -6.16699 27.5 -10.5s12.833 -10.333 16.5 -18s5.5 -18.167 5.5 -31.5
c0 -11.333 -1.5 -20.833 -4.5 -28.5s-9.5 -13.834 -19.5 -18.501s-24.167 -8 -42.5 -10s-42.833 -3 -73.5 -3c-24 0 -43.833 1 -59.5 3s-28 6.33301 -37 13s-15.333 16.334 -19 29.001s-5.83398 29.667 -6.50098 51h-185c0 -56.667 5.5 -101.667 16.5 -135
s28.667 -58.666 53 -75.999s56 -28.5 95 -33.5s86.5 -7.5 142.5 -7.5c75.333 0 135.5 4.33301 180.5 13s79.333 22 103 40s39 40.5 46 67.5s10.5 59.167 10.5 96.5c0 16 -0.5 31.167 -1.5 45.5s-3.66699 27.666 -8 39.999s-10.666 23 -18.999 32s-19.5 15.833 -33.5 20.5
c15.333 8 27 17.5 35 28.5s13.833 23.167 17.5 36.5s5.83398 27.5 6.50098 42.5s1 30.5 1 46.5c0 35.333 -3.33301 63.666 -10 84.999s-17 38.166 -31 50.499s-32.167 21.666 -54.5 27.999s-49.5 12.5 -81.5 18.5l-188 34c-14 2.66699 -26.167 4.83398 -36.5 6.50098
s-18.833 4.33398 -25.5 8.00098s-11.5 8.83398 -14.5 15.501s-4.5 16.334 -4.5 29.001c0 8 1.16699 15.167 3.5 21.5s7.16602 11.5 14.499 15.5s18.166 7 32.499 9s33.5 3 57.5 3c28 0 49.833 -0.833008 65.5 -2.5s27.5 -5.5 35.5 -11.5c8 -5.33301 13.167 -13.5 15.5 -24.5
s3.83301 -25.833 4.5 -44.5h185v42z" />
    <glyph glyph-name="dieresis" unicode="&#xa8;" horiz-adv-x="469" 
d="M184 712h-109v-103h109v103zM394 712h-109v-103h109v103z" />
    <glyph glyph-name="copyright" unicode="&#xa9;" horiz-adv-x="800" 
d="M400 -6c52.667 0 102 10 148 30s86.333 47.167 121 81.5s62 74.666 82 120.999s30 95.833 30 148.5s-10 102.167 -30 148.5s-47.333 86.666 -82 120.999s-75 61.5 -121 81.5s-95.333 30 -148 30s-102.167 -10 -148.5 -30s-86.666 -47.167 -120.999 -81.5
s-61.5 -74.666 -81.5 -120.999s-30 -95.833 -30 -148.5s10 -102.167 30 -148.5s47.167 -86.666 81.5 -120.999s74.666 -61.5 120.999 -81.5s95.833 -30 148.5 -30zM400 81c-41.333 0 -79.833 7.66699 -115.5 23s-66.667 36.333 -93 63s-47.166 57.834 -62.499 93.501
s-23 73.834 -23 114.501s7.66699 78.834 23 114.501s36.166 66.834 62.499 93.501s57.333 47.667 93 63s74.167 23 115.5 23c40 0 77.833 -7.66699 113.5 -23s66.834 -36.333 93.501 -63s47.834 -57.834 63.501 -93.501s23.5 -73.834 23.5 -114.501
s-7.83301 -78.834 -23.5 -114.501s-36.834 -66.834 -63.501 -93.501s-57.834 -47.667 -93.501 -63s-73.5 -23 -113.5 -23zM513 303c-0.666992 -12 -3.83105 -23.1689 -9.49805 -33.502s-13 -19.166 -22 -26.499s-19.167 -13 -30.5 -17s-23 -6 -35 -6
c-21.333 0 -40.166 4.83301 -56.499 14.5s-30.166 22.167 -41.499 37.5s-20 32.5 -26 51.5s-9 37.833 -9 56.5c0 20 2.66699 39.5 8 58.5s13.5 35.667 24.5 50s24.667 26 41 35s35.166 13.5 56.499 13.5c25.333 0 47.166 -7 65.499 -21s29.833 -33.333 34.5 -58h89
c-8 48 -29.167 85.167 -63.5 111.5s-75.833 39.5 -124.5 39.5c-34 0 -64.5 -5.83301 -91.5 -17.5s-49.833 -27.667 -68.5 -48s-33 -44.666 -43 -72.999s-15 -59.166 -15 -92.499c0 -32 5.16699 -62 15.5 -90s25 -52.333 44 -73s42.167 -37 69.5 -49s57.666 -18 90.999 -18
c23.333 0 45.666 3.5 66.999 10.5s40.333 17.167 57 30.5s30.5 29.666 41.5 48.999s17.833 41 20.5 65h-89z" />
    <glyph glyph-name="ordfeminine" unicode="&#xaa;" horiz-adv-x="480" 
d="M282 596l-3.00195 -0.000976562c-3.33301 8.66699 -8.33301 15.334 -15 20.001s-14.167 8 -22.5 10s-17 3.16699 -26 3.5s-17.5 0.5 -25.5 0.5c-38 0 -66.167 -7 -84.5 -21s-27.5 -40.333 -27.5 -79s9.83301 -65.334 29.5 -80.001s47.167 -22 82.5 -22
c9.33301 0 19 0.833008 29 2.5s19.333 4.83398 28 9.50098c8.66699 4 16 9.5 22 16.5s9.66699 16.167 11 27.5h2v-52h104v220c0 24 -3.83301 43 -11.5 57s-18.167 24.5 -31.5 31.5s-29.166 11.333 -47.499 13s-38.5 2.5 -60.5 2.5c-18 0 -35.667 -0.5 -53 -1.5
s-32.666 -4.5 -45.999 -10.5s-24.166 -15.667 -32.499 -29s-12.5 -32.333 -12.5 -57h104c0 14 3.66699 23.167 11 27.5s17.666 6.5 30.999 6.5c10 0 17.833 -0.5 23.5 -1.5s10.167 -3.16699 13.5 -6.5s5.5 -8.33301 6.5 -15s1.5 -16 1.5 -28v-45zM225.998 566.999
c5.33301 0 11.333 -0.167969 18 -0.500977s12.834 -1.5 18.501 -3.5s10.334 -5.16699 14.001 -9.5s5.5 -10.5 5.5 -18.5c0 -11.333 -2.16699 -20.166 -6.5 -26.499s-16.833 -9.5 -37.5 -9.5c-13.333 0 -23.833 0.666992 -31.5 2s-13.334 3.33301 -17.001 6
s-5.83398 6 -6.50098 10s-1 8.66699 -1 14c0 16 4.33301 26 13 30s19 6 31 6z" />
    <glyph glyph-name="guillemotleft" unicode="&#xab;" horiz-adv-x="556" 
d="M174 515l-128 -243l134 -235l107 66l-96 169l96 182zM397 515l-128 -243l134 -235l107 66l-96 169l96 182z" />
    <glyph glyph-name="logicalnot" unicode="&#xac;" horiz-adv-x="600" 
d="M435 157h115v292h-500v-115h385v-177z" />
    <glyph glyph-name="registered" unicode="&#xae;" horiz-adv-x="800" 
d="M400 -6c52.667 0 102 10 148 30s86.333 47.167 121 81.5s62 74.666 82 120.999s30 95.833 30 148.5s-10 102.167 -30 148.5s-47.333 86.666 -82 120.999s-75 61.5 -121 81.5s-95.333 30 -148 30s-102.167 -10 -148.5 -30s-86.666 -47.167 -120.999 -81.5
s-61.5 -74.666 -81.5 -120.999s-30 -95.833 -30 -148.5s10 -102.167 30 -148.5s47.167 -86.666 81.5 -120.999s74.666 -61.5 120.999 -81.5s95.833 -30 148.5 -30zM400 81c-41.333 0 -79.833 7.66699 -115.5 23s-66.667 36.333 -93 63s-47.166 57.834 -62.499 93.501
s-23 73.834 -23 114.501s7.66699 78.834 23 114.501s36.166 66.834 62.499 93.501s57.333 47.667 93 63s74.167 23 115.5 23c40 0 77.833 -7.66699 113.5 -23s66.834 -36.333 93.501 -63s47.834 -57.834 63.501 -93.501s23.5 -73.834 23.5 -114.501
s-7.83301 -78.834 -23.5 -114.501s-36.834 -66.834 -63.501 -93.501s-57.834 -47.667 -93.501 -63s-73.5 -23 -113.5 -23zM490 340c36.667 2.66699 64.5 12.501 83.5 29.501s28.5 44.5 28.5 82.5c0 27.333 -3.83301 49.166 -11.5 65.499s-18.5 29 -32.5 38
s-30.833 15 -50.5 18s-41.5 4.5 -65.5 4.5h-206v-412h87v169h77l92 -169h98zM323 401.001v111h100c10 0 20.333 -0.333008 31 -1s20.5 -2.5 29.5 -5.5s16.5 -7.83301 22.5 -14.5s9 -16 9 -28c0 -26 -6 -43 -18 -51s-29.667 -11.667 -53 -11h-121z" />
    <glyph glyph-name="macron" unicode="&#xaf;" horiz-adv-x="464" 
d="M75 706v-94h314v94h-314z" />
    <glyph glyph-name="macron" unicode="&#x2c9;" horiz-adv-x="464" 
d="M75 706v-94h314v94h-314z" />
    <glyph glyph-name="degree" unicode="&#xb0;" horiz-adv-x="400" 
d="M350 606c0 20.667 -3.99805 40 -11.998 58s-18.833 33.833 -32.5 47.5s-29.5 24.5 -47.5 32.5s-37.333 12 -58 12s-40.167 -4 -58.5 -12s-34.333 -18.833 -48 -32.5s-24.334 -29.5 -32.001 -47.5s-11.5 -37.333 -11.5 -58s4 -40.167 12 -58.5s18.667 -34.166 32 -47.499
s29.166 -24 47.499 -32s37.833 -12 58.5 -12s40 4 58 12s33.833 18.667 47.5 32s24.5 29.166 32.5 47.499s12 37.833 12 58.5zM281.002 606c0 -22.667 -7.99902 -41.833 -23.999 -57.5s-35 -23.5 -57 -23.5c-22.667 0 -41.834 7.83301 -57.501 23.5
s-23.5 34.834 -23.5 57.501c0 10.667 2 21 6 31s9.66699 18.667 17 26s15.833 13.166 25.5 17.499s20.167 6.5 31.5 6.5c22.667 0 42 -8 58 -24s24 -35 24 -57z" />
    <glyph glyph-name="plusminus" unicode="&#xb1;" horiz-adv-x="600" 
d="M242 525v-118h-192v-115h192v-123h115v123h193v115h-193v118h-115zM50 0h500v115h-500v-115z" />
    <glyph glyph-name="twosuperior" unicode="&#xb2;" horiz-adv-x="432" 
d="M405 396l-260.998 -0.00195312c0 14.667 2 25.667 6 33s10.667 12.833 20 16.5s22.166 6.83398 38.499 9.50098s36.833 7 61.5 13c25.333 6.66699 46.666 13.167 63.999 19.5s31.166 14.666 41.499 24.999s17.666 23.5 21.999 39.5s6.5 36.667 6.5 62
c0 32 -4.66699 57.333 -14 76s-22.333 32.834 -39 42.501s-36.834 16 -60.501 19s-49.834 4.5 -78.501 4.5c-31.333 0 -58.833 -1.83301 -82.5 -5.5s-43.667 -10.834 -60 -21.501s-28.666 -25.5 -36.999 -44.5s-12.5 -43.833 -12.5 -74.5v-22h124v22
c0 12 0.833008 21.5 2.5 28.5s4.83398 12.167 9.50098 15.5s11.5 5.5 20.5 6.5s20.833 1.5 35.5 1.5c26 0.666992 43.833 -1.83301 53.5 -7.5s14.5 -19.834 14.5 -42.501c0 -11.333 -0.666992 -20.166 -2 -26.499s-5 -11.5 -11 -15.5s-15 -7.33301 -27 -10l-48 -11
c-37.333 -8 -67.166 -15.667 -89.499 -23s-39.666 -16.166 -51.999 -26.499s-20.5 -23.666 -24.5 -39.999s-6 -37.5 -6 -63.5v-94h385v94z" />
    <glyph glyph-name="threesuperior" unicode="&#xb3;" horiz-adv-x="432" 
d="M195 489l30.9971 -0.00488281c16.667 0 30 -0.666992 40 -2s17.5 -3.66602 22.5 -6.99902s8.16699 -7.66602 9.5 -12.999s2 -12 2 -20c0 -13.333 -1.33301 -23.666 -4 -30.999s-7 -12.666 -13 -15.999s-13.667 -5.5 -23 -6.5s-20.666 -1.5 -33.999 -1.5
c-11.333 0 -21.5 0.333008 -30.5 1s-16.667 2.83398 -23 6.50098s-11.166 9 -14.499 16s-5 16.833 -5 29.5v15h-124v-24c0 -32 5.16699 -57.167 15.5 -75.5s24.333 -32.166 42 -41.499s38 -15.166 61 -17.499s47.167 -3.5 72.5 -3.5c30.667 0 58.5 1.5 83.5 4.5
s46.5 9.33301 64.5 19s31.833 23.167 41.5 40.5s14.5 40.666 14.5 69.999c0 26 -5.66699 48.333 -17 67s-32.666 28.667 -63.999 30v5c14.667 2 27 6 37 12s17.667 13.5 23 22.5s9.16602 19.167 11.499 30.5s3.5 23.333 3.5 36c0 28.667 -6 51.167 -18 67.5
s-27.5 28.5 -46.5 36.5s-40.333 12.833 -64 14.5s-46.834 2.5 -69.501 2.5c-28 0 -53.5 -1.16699 -76.5 -3.5s-42.667 -8.33301 -59 -18s-28.833 -23.667 -37.5 -42s-13 -43.5 -13 -75.5v-16h124v9c0 12.667 1.33301 22.5 4 29.5s6.83398 12.167 12.501 15.5
s12.667 5.33301 21 6s18.5 1 30.5 1c16.667 0 29.5 -0.833008 38.5 -2.5s15.667 -4.5 20 -8.5s7 -9.16699 8 -15.5s1.5 -13.833 1.5 -22.5c0 -8 -0.666992 -14.333 -2 -19s-4.16602 -8.33398 -8.49902 -11.001s-11 -4.5 -20 -5.5s-21.5 -1.5 -37.5 -1.5h-31v-87z" />
    <glyph glyph-name="acute" unicode="&#xb4;" horiz-adv-x="404" 
d="M279 756l-204 -120l28 -62l226 71z" />
    <glyph glyph-name="mu" unicode="&#xb5;" horiz-adv-x="615" 
d="M558 0l-0.000976562 524.998h-172v-323c0 -13.333 -2.83301 -24.666 -8.5 -33.999s-13.167 -17.166 -22.5 -23.499s-19.833 -11 -31.5 -14s-23.167 -4.5 -34.5 -4.5c-14.667 0 -26.167 2.16699 -34.5 6.5s-14.666 10.5 -18.999 18.5s-7 17.167 -8 27.5
s-1.5 21.5 -1.5 33.5v313h-172v-752h172v221c40 0 74.167 7.66699 102.5 23s48.5 43.333 60.5 84h8l-6 -101h167z" />
    <glyph glyph-name="mu" unicode="&#x3bc;" horiz-adv-x="615" 
d="M558 0l-0.000976562 524.998h-172v-323c0 -13.333 -2.83301 -24.666 -8.5 -33.999s-13.167 -17.166 -22.5 -23.499s-19.833 -11 -31.5 -14s-23.167 -4.5 -34.5 -4.5c-14.667 0 -26.167 2.16699 -34.5 6.5s-14.666 10.5 -18.999 18.5s-7 17.167 -8 27.5
s-1.5 21.5 -1.5 33.5v313h-172v-752h172v221c40 0 74.167 7.66699 102.5 23s48.5 43.333 60.5 84h8l-6 -101h167z" />
    <glyph glyph-name="paragraph" unicode="&#xb6;" 
d="M713 -227l-0.000976562 976.999h-457c-46.667 0 -86.167 -5.16699 -118.5 -15.5s-58.666 -26.666 -78.999 -48.999s-35.166 -51 -44.499 -86s-14 -77.167 -14 -126.5c0 -54.667 3.5 -100 10.5 -136s20.333 -64.5 40 -85.5s46.667 -35.667 81 -44
s79.166 -12.5 134.499 -12.5h130v-422h120v832h77v-832h120zM395.999 339.999h-99c-26.667 0 -47.5 1.83301 -62.5 5.5s-26.167 10.334 -33.5 20.001s-11.833 23.167 -13.5 40.5s-2.5 39.666 -2.5 66.999c0 25.333 0.833008 46.5 2.5 63.5s6 30.5 13 40.5s18 17.167 33 21.5
s35.833 6.5 62.5 6.5h100v-265z" />
    <glyph glyph-name="periodcentered" unicode="&#xb7;" horiz-adv-x="360" 
d="M261 363h-162v-174h162v174z" />
    <glyph glyph-name="periodcentered" unicode="&#x2219;" horiz-adv-x="360" 
d="M261 363h-162v-174h162v174z" />
    <glyph glyph-name="cedilla" unicode="&#xb8;" horiz-adv-x="322" 
d="M203 -41l-128 -82l28 -52l144 52z" />
    <glyph glyph-name="onesuperior" unicode="&#xb9;" horiz-adv-x="432" 
d="M341 756h-152l-178 -136l74 -76l126 106v-348h130v454z" />
    <glyph glyph-name="ordmasculine" unicode="&#xba;" horiz-adv-x="480" 
d="M240 756c-34.667 0 -62.334 -2.66699 -83.001 -8s-36.5 -14.333 -47.5 -27s-18.167 -29.5 -21.5 -50.5s-5 -47.167 -5 -78.5s1.66699 -57.5 5 -78.5s10.5 -37.833 21.5 -50.5s26.833 -21.667 47.5 -27s48.334 -8 83.001 -8s62.334 2.66699 83.001 8s36.5 14.333 47.5 27
s18.167 29.5 21.5 50.5s5 47.167 5 78.5s-1.66699 57.5 -5 78.5s-10.5 37.833 -21.5 50.5s-26.833 21.667 -47.5 27s-48.334 8 -83.001 8zM240 679c10.667 0 19.334 -1 26.001 -3s12 -6.16699 16 -12.5s6.83301 -15.166 8.5 -26.499s2.5 -26.333 2.5 -45
s-0.833008 -33.667 -2.5 -45s-4.5 -20.166 -8.5 -26.499s-9.33301 -10.5 -16 -12.5s-15.334 -3 -26.001 -3s-19.334 1 -26.001 3s-12 6.16699 -16 12.5s-6.83301 15.166 -8.5 26.499s-2.5 26.333 -2.5 45s0.833008 33.667 2.5 45s4.5 20.166 8.5 26.499
s9.33301 10.5 16 12.5s15.334 3 26.001 3z" />
    <glyph glyph-name="guillemotright" unicode="&#xbb;" horiz-adv-x="556" 
d="M375 37l128 243l-134 235l-107 -66l96 -169l-96 -182zM152 37l128 243l-134 235l-107 -66l96 -169l-96 -182z" />
    <glyph glyph-name="onequarter" unicode="&#xbc;" horiz-adv-x="1080" 
d="M977 450h-192l-187 -233v-128h255v-89h124v89h41v87h-41v274zM853 176h-153l148 182h5v-182zM791 750h-120l-443 -750h120zM292 750h-152l-178 -136l74 -76l126 106v-342h130v448z" />
    <glyph glyph-name="onehalf" unicode="&#xbd;" horiz-adv-x="1080" 
d="M793 750h-120l-443 -750h120zM294 750h-152l-179 -136l75 -76l126 106v-342h130v448zM1037 94l-260.998 -0.00195312c0 14.667 2 25.667 6 33s10.667 12.833 20 16.5s22.166 6.83398 38.499 9.50098s36.833 7 61.5 13c25.333 6.66699 46.666 13.167 63.999 19.5
s31.166 14.666 41.499 24.999s17.666 23.5 21.999 39.5s6.5 36.667 6.5 62c0 32 -4.66699 57.333 -14 76s-22.333 32.834 -39 42.501s-36.834 16 -60.501 19s-49.834 4.5 -78.501 4.5c-31.333 0 -58.833 -1.83301 -82.5 -5.5s-43.667 -10.834 -60 -21.501
s-28.666 -25.5 -36.999 -44.5s-12.5 -43.833 -12.5 -74.5v-22h124v22c0 12 0.833008 21.5 2.5 28.5s4.83398 12.167 9.50098 15.5s11.5 5.5 20.5 6.5s20.833 1.5 35.5 1.5c26 0.666992 43.833 -1.83301 53.5 -7.5s14.5 -19.834 14.5 -42.501
c0 -11.333 -0.666992 -20.166 -2 -26.499s-5 -11.5 -11 -15.5s-15 -7.33301 -27 -10l-48 -11c-37.333 -8 -67.166 -15.667 -89.499 -23s-39.666 -16.166 -51.999 -26.499s-20.5 -23.666 -24.5 -39.999s-6 -37.5 -6 -63.5v-94h385v94z" />
    <glyph glyph-name="threequarters" unicode="&#xbe;" horiz-adv-x="1080" 
d="M1014 450h-192l-187 -233v-128h255v-89h124v89h41v87h-41v274zM890 176h-153l148 182h5v-182zM848 750h-120l-443 -750h120zM192 489l30.9971 -0.00488281c16.667 0 30 -0.666992 40 -2s17.5 -3.66602 22.5 -6.99902s8.16699 -7.66602 9.5 -12.999s2 -12 2 -20
c0 -13.333 -1.33301 -23.666 -4 -30.999s-7 -12.666 -13 -15.999s-13.667 -5.5 -23 -6.5s-20.666 -1.5 -33.999 -1.5c-11.333 0 -21.5 0.333008 -30.5 1s-16.667 2.83398 -23 6.50098s-11.166 9 -14.499 16s-5 16.833 -5 29.5v15h-124v-24c0 -32 5.16699 -57.167 15.5 -75.5
s24.333 -32.166 42 -41.499s38 -15.166 61 -17.499s47.167 -3.5 72.5 -3.5c30.667 0 58.5 1.5 83.5 4.5s46.5 9.33301 64.5 19s31.833 23.167 41.5 40.5s14.5 40.666 14.5 69.999c0 26 -5.66699 48.333 -17 67s-32.666 28.667 -63.999 30v5c14.667 2 27 6 37 12
s17.667 13.5 23 22.5s9.16602 19.167 11.499 30.5s3.5 23.333 3.5 36c0 28.667 -6 51.167 -18 67.5s-27.5 28.5 -46.5 36.5s-40.333 12.833 -64 14.5s-46.834 2.5 -69.501 2.5c-28 0 -53.5 -1.16699 -76.5 -3.5s-42.667 -8.33301 -59 -18s-28.833 -23.667 -37.5 -42
s-13 -43.5 -13 -75.5v-16h124v9c0 12.667 1.33301 22.5 4 29.5s6.83398 12.167 12.501 15.5s12.667 5.33301 21 6s18.5 1 30.5 1c16.667 0 29.5 -0.833008 38.5 -2.5s15.667 -4.5 20 -8.5s7 -9.16699 8 -15.5s1.5 -13.833 1.5 -22.5c0 -8 -0.666992 -14.333 -2 -19
s-4.16602 -8.33398 -8.49902 -11.001s-11 -4.5 -20 -5.5s-21.5 -1.5 -37.5 -1.5h-31v-87z" />
    <glyph glyph-name="questiondown" unicode="&#xbf;" horiz-adv-x="605" 
d="M245 258l-0.00195312 -30.001c0 -15.333 -3.66699 -27.166 -11 -35.499s-21.666 -17.166 -42.999 -26.499c-26.667 -12 -49.167 -23.333 -67.5 -34s-33.333 -23.334 -45 -38.001s-20 -32.5 -25 -53.5s-7.5 -47.833 -7.5 -80.5c0 -42.667 6 -76.667 18 -102
s29 -44.833 51 -58.5s48.5 -22.5 79.5 -26.5s65.5 -6 103.5 -6c40 0 76 2 108 6s59.333 12.833 82 26.5s40.167 33.167 52.5 58.5s18.833 59.333 19.5 102v31h-172v-31c0 -14 -2.33301 -25 -7 -33s-11 -14.167 -19 -18.5s-17.5 -7 -28.5 -8s-22.833 -1.5 -35.5 -1.5
c-27.333 0 -47.5 3.5 -60.5 10.5s-19.5 23.833 -19.5 50.5c0 14 1.5 25.5 4.5 34.5s7.33301 16.5 13 22.5s12.167 11.167 19.5 15.5s15.333 8.5 24 12.5l36 17c22.667 11.333 40.834 22 54.501 32s24 21 31 33s11.5 26 13.5 42s3 35.667 3 59v30h-172zM411.998 524.999h-162
v-174h162v174z" />
    <glyph glyph-name="Agrave" unicode="&#xc0;" horiz-adv-x="733" 
d="M502 129l39 -129h204l-228 750h-304l-225 -750h208l37 129h269zM462 275h-186l91 325h2zM290 981l-50 -111l226 -71l28 62z" />
    <glyph glyph-name="Aacute" unicode="&#xc1;" horiz-adv-x="733" 
d="M502 129l39 -129h204l-228 750h-304l-225 -750h208l37 129h269zM462 275h-186l91 325h2zM444 981l-204 -120l28 -62l226 71z" />
    <glyph glyph-name="Acircumflex" unicode="&#xc2;" horiz-adv-x="733" 
d="M502 129l39 -129h204l-228 750h-304l-225 -750h208l37 129h269zM462 275h-186l91 325h2zM365 981l-179 -109l27 -57l152 62l158 -62l25 57z" />
    <glyph glyph-name="Atilde" unicode="&#xc3;" horiz-adv-x="733" 
d="M502 129l39 -129h204l-228 750h-304l-225 -750h208l37 129h269zM462 275h-186l91 325h2zM502 958c-5.33301 -10.667 -11.9961 -21.001 -19.9961 -31.001s-18.667 -15 -32 -15c-12.667 0 -25.334 3.5 -38.001 10.5s-26 15.167 -40 24.5
c-13.333 8.66699 -27.666 16.5 -42.999 23.5s-32 10.5 -50 10.5c-15.333 0 -29.333 -2.66699 -42 -8s-24.334 -12.5 -35.001 -21.5s-20.5 -19.333 -29.5 -31s-16.833 -23.5 -23.5 -35.5l82 -44c6.66699 12 14.5 22.5 23.5 31.5s21.167 13.5 36.5 13.5
c11.333 0 22.666 -3.5 33.999 -10.5l37 -23.5c13.333 -8.66699 28.166 -16.5 44.499 -23.5s34.5 -10.5 54.5 -10.5c15.333 0 29.166 2.83301 41.499 8.5s23.5 13.167 33.5 22.5s19 19.833 27 31.5s15 23.834 21 36.501z" />
    <glyph glyph-name="Adieresis" unicode="&#xc4;" horiz-adv-x="733" 
d="M502 129l39 -129h204l-228 750h-304l-225 -750h208l37 129h269zM462 275h-186l91 325h2zM316 937h-109v-103h109v103zM526 937h-109v-103h109v103z" />
    <glyph glyph-name="Aring" unicode="&#xc5;" horiz-adv-x="733" 
d="M502 129l39 -129h204l-228 750h-304l-225 -750h208l37 129h269zM462 275h-186l91 325h2zM269 889c0 -27.333 9.5 -50.5 28.5 -69.5s42.167 -28.5 69.5 -28.5c13.333 0 25.833 2.5 37.5 7.5s22 12 31 21s16 19.5 21 31.5s7.5 24.667 7.5 38s-2.5 26 -7.5 38
s-12 22.333 -21 31s-19.333 15.5 -31 20.5s-24.167 7.5 -37.5 7.5c-27.333 0 -50.5 -9.33301 -69.5 -28s-28.5 -41.667 -28.5 -69zM321 889c0 12.667 4.33301 23.334 13 32.001s19.334 13 32.001 13c12 0 22.667 -4.33301 32 -13s14 -19.334 14 -32.001
s-4.66699 -23.5 -14 -32.5s-20 -13.5 -32 -13.5c-12.667 0 -23.334 4.5 -32.001 13.5s-13 19.833 -13 32.5z" />
    <glyph glyph-name="AE" unicode="&#xc6;" horiz-adv-x="1074" 
d="M499 272h-205l119 314h86v-314zM499 0h533v164h-343v143h316v139h-316v140h343v164h-764l-294 -750h217l50 133h258v-133z" />
    <glyph glyph-name="Ccedilla" unicode="&#xc7;" horiz-adv-x="728" 
d="M406 -41l-128 -82l28 -52l144 52zM489 284l-0.00292969 -22c0 -22 -2.5 -39.333 -7.5 -52s-12.667 -22 -23 -28s-23.166 -9.83301 -38.499 -11.5s-33.333 -2.5 -54 -2.5c-30 0 -53.333 2.83301 -70 8.5s-29.167 14.667 -37.5 27s-13.333 28.333 -15 48
s-2.5 43.5 -2.5 71.5v117c0 26.667 1.16699 49.167 3.5 67.5s7.66602 33 15.999 44s20.833 18.833 37.5 23.5s39.334 7 68.001 7c16.667 0 32.167 -0.666992 46.5 -2s26.833 -4.33301 37.5 -9s19.167 -11.834 25.5 -21.501s10.5 -22.834 12.5 -39.501v-29h206v29
c-1.33301 56 -8.33301 100.333 -21 133s-31.5 57.334 -56.5 74.001s-56.5 27.334 -94.5 32.001s-82.667 7 -134 7c-55.333 0 -104.666 -3.16699 -147.999 -9.5s-80.333 -19.5 -111 -39.5s-54 -48.667 -70 -86s-24 -87 -24 -149v-194c0 -68.667 8.83301 -122 26.5 -160
s42.167 -66.167 73.5 -84.5s68.5 -29.5 111.5 -33.5s90.167 -6 141.5 -6c22 0 43.5 0.166992 64.5 0.5s41.5 2.33301 61.5 6s39.333 9.16699 58 16.5s36.667 18 54 32c16.667 14 29.667 29.167 39 45.5s16.333 33.5 21 51.5s7.33398 36.667 8.00098 56s1 39.333 1 60v22
h-206z" />
    <glyph glyph-name="Egrave" unicode="&#xc8;" horiz-adv-x="678" 
d="M264 586h341v164h-541v-750h548v164h-348v146h320v139h-320v137zM262 981l-50 -111l226 -71l28 62z" />
    <glyph glyph-name="Eacute" unicode="&#xc9;" horiz-adv-x="678" 
d="M264 586h341v164h-541v-750h548v164h-348v146h320v139h-320v137zM416 981l-204 -120l28 -62l226 71z" />
    <glyph glyph-name="Ecircumflex" unicode="&#xca;" horiz-adv-x="678" 
d="M264 586h341v164h-541v-750h548v164h-348v146h320v139h-320v137zM337 981l-179 -109l27 -57l152 62l158 -62l25 57z" />
    <glyph glyph-name="Edieresis" unicode="&#xcb;" horiz-adv-x="678" 
d="M264 586h341v164h-541v-750h548v164h-348v146h320v139h-320v137zM289 937h-109v-103h109v103zM499 937h-109v-103h109v103z" />
    <glyph glyph-name="Igrave" unicode="&#xcc;" horiz-adv-x="324" 
d="M262 750h-200v-750h200v750zM85 981l-50 -111l226 -71l28 62z" />
    <glyph glyph-name="Iacute" unicode="&#xcd;" horiz-adv-x="324" 
d="M262 750h-200v-750h200v750zM239 981l-204 -120l28 -62l226 71z" />
    <glyph glyph-name="Icircumflex" unicode="&#xce;" horiz-adv-x="324" 
d="M262 750h-200v-750h200v750zM160 981l-179 -109l27 -57l152 62l158 -62l25 57z" />
    <glyph glyph-name="Idieresis" unicode="&#xcf;" horiz-adv-x="324" 
d="M262 750h-200v-750h200v750zM112 937h-109v-103h109v103zM322 937h-109v-103h109v103z" />
    <glyph glyph-name="Eth" unicode="&#xd0;" horiz-adv-x="775" 
d="M52 453h-83.999v-139h84v-314h407c52 0 95.667 6.16699 131 18.5s63.666 31 84.999 56s36.5 56.333 45.5 94s13.5 82.167 13.5 133.5v157c0 53.333 -6 98.5 -18 135.5s-30.333 67 -55 90s-56 39.667 -94 50s-83 15.5 -135 15.5h-380v-297zM252.001 576h175
c17.333 0 32.333 -1.5 45 -4.5s23.167 -8.83301 31.5 -17.5s14.5 -20.667 18.5 -36s6 -35 6 -59v-157c0 -40 -7.5 -71.333 -22.5 -94s-41.167 -34 -78.5 -34h-175v140h137v139h-137v123z" />
    <glyph glyph-name="Ntilde" unicode="&#xd1;" horiz-adv-x="871" 
d="M249 576h8l212 -576h341v750h-200l12 -576h-8l-215 576h-338v-750h200zM571 958c-5.33301 -10.667 -11.9961 -21.001 -19.9961 -31.001s-18.667 -15 -32 -15c-12.667 0 -25.334 3.5 -38.001 10.5s-26 15.167 -40 24.5c-13.333 8.66699 -27.666 16.5 -42.999 23.5
s-32 10.5 -50 10.5c-15.333 0 -29.333 -2.66699 -42 -8s-24.334 -12.5 -35.001 -21.5s-20.5 -19.333 -29.5 -31s-16.833 -23.5 -23.5 -35.5l82 -44c6.66699 12 14.5 22.5 23.5 31.5s21.167 13.5 36.5 13.5c11.333 0 22.666 -3.5 33.999 -10.5l37 -23.5
c13.333 -8.66699 28.166 -16.5 44.499 -23.5s34.5 -10.5 54.5 -10.5c15.333 0 29.166 2.83301 41.499 8.5s23.5 13.167 33.5 22.5s19 19.833 27 31.5s15 23.834 21 36.501z" />
    <glyph glyph-name="Ograve" unicode="&#xd2;" horiz-adv-x="760" 
d="M380 -6c50.667 0 97.334 3.5 140.001 10.5s79.334 20.5 110.001 40.5s54.5 47.833 71.5 83.5s25.5 82.5 25.5 140.5v212c0 58 -8.5 104.833 -25.5 140.5s-40.833 63.5 -71.5 83.5s-67.334 33.5 -110.001 40.5s-89.334 10.5 -140.001 10.5s-97.334 -3.5 -140.001 -10.5
s-79.334 -20.5 -110.001 -40.5s-54.5 -47.833 -71.5 -83.5s-25.5 -82.5 -25.5 -140.5v-212c0 -58 8.5 -104.833 25.5 -140.5s40.833 -63.5 71.5 -83.5s67.334 -33.5 110.001 -40.5s89.334 -10.5 140.001 -10.5zM380 168c-26 0 -47.833 1.16699 -65.5 3.5
s-32 7.66602 -43 15.999s-19 20.666 -24 36.999s-7.83301 38.5 -8.5 66.5v169c0.666992 28 3.5 50 8.5 66s13 28.167 24 36.5s25.333 13.666 43 15.999s39.5 3.5 65.5 3.5s48 -1.16699 66 -3.5s32.5 -7.66602 43.5 -15.999s19 -20.5 24 -36.5s7.5 -38 7.5 -66v-169
c0 -28 -2.5 -50.167 -7.5 -66.5s-13 -28.666 -24 -36.999s-25.5 -13.666 -43.5 -15.999s-40 -3.5 -66 -3.5zM303 981l-50 -111l226 -71l28 62z" />
    <glyph glyph-name="Oacute" unicode="&#xd3;" horiz-adv-x="760" 
d="M380 -6c50.667 0 97.334 3.5 140.001 10.5s79.334 20.5 110.001 40.5s54.5 47.833 71.5 83.5s25.5 82.5 25.5 140.5v212c0 58 -8.5 104.833 -25.5 140.5s-40.833 63.5 -71.5 83.5s-67.334 33.5 -110.001 40.5s-89.334 10.5 -140.001 10.5s-97.334 -3.5 -140.001 -10.5
s-79.334 -20.5 -110.001 -40.5s-54.5 -47.833 -71.5 -83.5s-25.5 -82.5 -25.5 -140.5v-212c0 -58 8.5 -104.833 25.5 -140.5s40.833 -63.5 71.5 -83.5s67.334 -33.5 110.001 -40.5s89.334 -10.5 140.001 -10.5zM380 168c-26 0 -47.833 1.16699 -65.5 3.5
s-32 7.66602 -43 15.999s-19 20.666 -24 36.999s-7.83301 38.5 -8.5 66.5v169c0.666992 28 3.5 50 8.5 66s13 28.167 24 36.5s25.333 13.666 43 15.999s39.5 3.5 65.5 3.5s48 -1.16699 66 -3.5s32.5 -7.66602 43.5 -15.999s19 -20.5 24 -36.5s7.5 -38 7.5 -66v-169
c0 -28 -2.5 -50.167 -7.5 -66.5s-13 -28.666 -24 -36.999s-25.5 -13.666 -43.5 -15.999s-40 -3.5 -66 -3.5zM457 981l-204 -120l28 -62l226 71z" />
    <glyph glyph-name="Ocircumflex" unicode="&#xd4;" horiz-adv-x="760" 
d="M380 -6c50.667 0 97.334 3.5 140.001 10.5s79.334 20.5 110.001 40.5s54.5 47.833 71.5 83.5s25.5 82.5 25.5 140.5v212c0 58 -8.5 104.833 -25.5 140.5s-40.833 63.5 -71.5 83.5s-67.334 33.5 -110.001 40.5s-89.334 10.5 -140.001 10.5s-97.334 -3.5 -140.001 -10.5
s-79.334 -20.5 -110.001 -40.5s-54.5 -47.833 -71.5 -83.5s-25.5 -82.5 -25.5 -140.5v-212c0 -58 8.5 -104.833 25.5 -140.5s40.833 -63.5 71.5 -83.5s67.334 -33.5 110.001 -40.5s89.334 -10.5 140.001 -10.5zM380 168c-26 0 -47.833 1.16699 -65.5 3.5
s-32 7.66602 -43 15.999s-19 20.666 -24 36.999s-7.83301 38.5 -8.5 66.5v169c0.666992 28 3.5 50 8.5 66s13 28.167 24 36.5s25.333 13.666 43 15.999s39.5 3.5 65.5 3.5s48 -1.16699 66 -3.5s32.5 -7.66602 43.5 -15.999s19 -20.5 24 -36.5s7.5 -38 7.5 -66v-169
c0 -28 -2.5 -50.167 -7.5 -66.5s-13 -28.666 -24 -36.999s-25.5 -13.666 -43.5 -15.999s-40 -3.5 -66 -3.5zM378 981l-179 -109l27 -57l152 62l158 -62l25 57z" />
    <glyph glyph-name="Otilde" unicode="&#xd5;" horiz-adv-x="760" 
d="M380 -6c50.667 0 97.334 3.5 140.001 10.5s79.334 20.5 110.001 40.5s54.5 47.833 71.5 83.5s25.5 82.5 25.5 140.5v212c0 58 -8.5 104.833 -25.5 140.5s-40.833 63.5 -71.5 83.5s-67.334 33.5 -110.001 40.5s-89.334 10.5 -140.001 10.5s-97.334 -3.5 -140.001 -10.5
s-79.334 -20.5 -110.001 -40.5s-54.5 -47.833 -71.5 -83.5s-25.5 -82.5 -25.5 -140.5v-212c0 -58 8.5 -104.833 25.5 -140.5s40.833 -63.5 71.5 -83.5s67.334 -33.5 110.001 -40.5s89.334 -10.5 140.001 -10.5zM380 168c-26 0 -47.833 1.16699 -65.5 3.5
s-32 7.66602 -43 15.999s-19 20.666 -24 36.999s-7.83301 38.5 -8.5 66.5v169c0.666992 28 3.5 50 8.5 66s13 28.167 24 36.5s25.333 13.666 43 15.999s39.5 3.5 65.5 3.5s48 -1.16699 66 -3.5s32.5 -7.66602 43.5 -15.999s19 -20.5 24 -36.5s7.5 -38 7.5 -66v-169
c0 -28 -2.5 -50.167 -7.5 -66.5s-13 -28.666 -24 -36.999s-25.5 -13.666 -43.5 -15.999s-40 -3.5 -66 -3.5zM516 958c-5.33301 -10.667 -11.9961 -21.001 -19.9961 -31.001s-18.667 -15 -32 -15c-12.667 0 -25.334 3.5 -38.001 10.5s-26 15.167 -40 24.5
c-13.333 8.66699 -27.666 16.5 -42.999 23.5s-32 10.5 -50 10.5c-15.333 0 -29.333 -2.66699 -42 -8s-24.334 -12.5 -35.001 -21.5s-20.5 -19.333 -29.5 -31s-16.833 -23.5 -23.5 -35.5l82 -44c6.66699 12 14.5 22.5 23.5 31.5s21.167 13.5 36.5 13.5
c11.333 0 22.666 -3.5 33.999 -10.5l37 -23.5c13.333 -8.66699 28.166 -16.5 44.499 -23.5s34.5 -10.5 54.5 -10.5c15.333 0 29.166 2.83301 41.499 8.5s23.5 13.167 33.5 22.5s19 19.833 27 31.5s15 23.834 21 36.501z" />
    <glyph glyph-name="Odieresis" unicode="&#xd6;" horiz-adv-x="760" 
d="M380 -6c50.667 0 97.334 3.5 140.001 10.5s79.334 20.5 110.001 40.5s54.5 47.833 71.5 83.5s25.5 82.5 25.5 140.5v212c0 58 -8.5 104.833 -25.5 140.5s-40.833 63.5 -71.5 83.5s-67.334 33.5 -110.001 40.5s-89.334 10.5 -140.001 10.5s-97.334 -3.5 -140.001 -10.5
s-79.334 -20.5 -110.001 -40.5s-54.5 -47.833 -71.5 -83.5s-25.5 -82.5 -25.5 -140.5v-212c0 -58 8.5 -104.833 25.5 -140.5s40.833 -63.5 71.5 -83.5s67.334 -33.5 110.001 -40.5s89.334 -10.5 140.001 -10.5zM380 168c-26 0 -47.833 1.16699 -65.5 3.5
s-32 7.66602 -43 15.999s-19 20.666 -24 36.999s-7.83301 38.5 -8.5 66.5v169c0.666992 28 3.5 50 8.5 66s13 28.167 24 36.5s25.333 13.666 43 15.999s39.5 3.5 65.5 3.5s48 -1.16699 66 -3.5s32.5 -7.66602 43.5 -15.999s19 -20.5 24 -36.5s7.5 -38 7.5 -66v-169
c0 -28 -2.5 -50.167 -7.5 -66.5s-13 -28.666 -24 -36.999s-25.5 -13.666 -43.5 -15.999s-40 -3.5 -66 -3.5zM330 937h-109v-103h109v103zM540 937h-109v-103h109v103z" />
    <glyph glyph-name="multiply" unicode="&#xd7;" horiz-adv-x="600" 
d="M50 438l162 -162l-162 -162l88 -88l162 162l162 -162l88 88l-162 162l162 162l-88 87l-162 -161l-162 161z" />
    <glyph glyph-name="Oslash" unicode="&#xd8;" horiz-adv-x="760" 
d="M770 781l-113.001 -94.998c-18.667 17.333 -38.5 30.833 -59.5 40.5s-43 16.667 -66 21s-46.833 6.83301 -71.5 7.5s-49.334 1 -74.001 1c-77.333 0 -139.333 -6.33301 -186 -19s-82.667 -34.167 -108 -64.5s-42 -70.5 -50 -120.5s-12 -112 -12 -186v-119
c0 -22.667 1.66699 -40.834 5 -54.501s7.33301 -26.167 12 -37.5l-55 -46v-139l112 96c17.333 -18 37.5 -31.833 60.5 -41.5s47.167 -16.834 72.5 -21.501s50.833 -7.33398 76.5 -8.00098s49.834 -1 72.501 -1c78 0 139.667 7.33301 185 22s79.833 37.834 103.5 69.501
s38.834 72.667 45.501 123s10 111.166 10 182.499c0 34 -0.666992 67.833 -2 101.5s-6.33301 66.834 -15 99.501l57 48v141zM523.999 426.002l-0.00195312 -160c0 -31.333 -10.167 -55.5 -30.5 -72.5s-54.166 -25.5 -101.499 -25.5c-7.33301 0 -17.666 0.166992 -30.999 0.5
s-26.833 1.5 -40.5 3.5s-26.167 5 -37.5 9s-19 10 -23 18zM235.997 320.002l0.00195312 87c0 40.667 2.33301 72.667 7 96s12.667 40.833 24 52.5s26.666 19 45.999 22s43.666 4.5 72.999 4.5c23.333 0 44.5 -1.33301 63.5 -4s36.5 -12 52.5 -28z" />
    <glyph glyph-name="Ugrave" unicode="&#xd9;" horiz-adv-x="771" 
d="M509 750l-0.00390625 -487c0 -22 -2 -39.333 -6 -52s-10.5 -22.167 -19.5 -28.5s-20.667 -10.333 -35 -12s-32.166 -2.5 -53.499 -2.5s-40.166 0.5 -56.499 1.5s-30 4.16699 -41 9.5s-19.5 13.833 -25.5 25.5s-9 28.167 -9 49.5v496h-200v-500
c0 -45.333 3.16699 -84 9.5 -116s21 -58.5 44 -79.5s56.333 -36.333 100 -46s103.167 -14.5 178.5 -14.5c54.667 0 101.834 4 141.501 12s72.334 21.667 98.001 41s44.5 45.5 56.5 78.5s18 74.5 18 124.5v500h-200zM308.996 981l-50 -111l226 -71l28 62z" />
    <glyph glyph-name="Uacute" unicode="&#xda;" horiz-adv-x="771" 
d="M509 750l-0.00390625 -487c0 -22 -2 -39.333 -6 -52s-10.5 -22.167 -19.5 -28.5s-20.667 -10.333 -35 -12s-32.166 -2.5 -53.499 -2.5s-40.166 0.5 -56.499 1.5s-30 4.16699 -41 9.5s-19.5 13.833 -25.5 25.5s-9 28.167 -9 49.5v496h-200v-500
c0 -45.333 3.16699 -84 9.5 -116s21 -58.5 44 -79.5s56.333 -36.333 100 -46s103.167 -14.5 178.5 -14.5c54.667 0 101.834 4 141.501 12s72.334 21.667 98.001 41s44.5 45.5 56.5 78.5s18 74.5 18 124.5v500h-200zM462.996 981l-204 -120l28 -62l226 71z" />
    <glyph glyph-name="Ucircumflex" unicode="&#xdb;" horiz-adv-x="771" 
d="M509 750l-0.00390625 -487c0 -22 -2 -39.333 -6 -52s-10.5 -22.167 -19.5 -28.5s-20.667 -10.333 -35 -12s-32.166 -2.5 -53.499 -2.5s-40.166 0.5 -56.499 1.5s-30 4.16699 -41 9.5s-19.5 13.833 -25.5 25.5s-9 28.167 -9 49.5v496h-200v-500
c0 -45.333 3.16699 -84 9.5 -116s21 -58.5 44 -79.5s56.333 -36.333 100 -46s103.167 -14.5 178.5 -14.5c54.667 0 101.834 4 141.501 12s72.334 21.667 98.001 41s44.5 45.5 56.5 78.5s18 74.5 18 124.5v500h-200zM383.996 981l-179 -109l27 -57l152 62l158 -62l25 57z" />
    <glyph glyph-name="Udieresis" unicode="&#xdc;" horiz-adv-x="771" 
d="M509 750l-0.00390625 -487c0 -22 -2 -39.333 -6 -52s-10.5 -22.167 -19.5 -28.5s-20.667 -10.333 -35 -12s-32.166 -2.5 -53.499 -2.5s-40.166 0.5 -56.499 1.5s-30 4.16699 -41 9.5s-19.5 13.833 -25.5 25.5s-9 28.167 -9 49.5v496h-200v-500
c0 -45.333 3.16699 -84 9.5 -116s21 -58.5 44 -79.5s56.333 -36.333 100 -46s103.167 -14.5 178.5 -14.5c54.667 0 101.834 4 141.501 12s72.334 21.667 98.001 41s44.5 45.5 56.5 78.5s18 74.5 18 124.5v500h-200zM334.996 937h-109v-103h109v103zM544.996 937h-109v-103
h109v103z" />
    <glyph glyph-name="Yacute" unicode="&#xdd;" horiz-adv-x="708" 
d="M724 750h-232l-138 -289h-7l-134 289h-229l266 -487v-263h200v263zM431 981l-204 -120l28 -62l226 71z" />
    <glyph glyph-name="Thorn" unicode="&#xde;" horiz-adv-x="711" 
d="M258 0l-0.00195312 96h177c52 0 94.667 4.83301 128 14.5s59.5 25.667 78.5 48s32 51.5 39 87.5s10.5 80.333 10.5 133c0 48.667 -4.66699 90.5 -14 125.5s-24.166 63.5 -44.499 85.5s-46.666 38.167 -78.999 48.5s-71.833 15.5 -118.5 15.5h-177v96h-200v-750h200z
M257.998 270v209.998h137c19.333 0 35 -1.66699 47 -5s21.167 -8.83301 27.5 -16.5s10.5 -18 12.5 -31s3 -29.167 3 -48.5c0 -24 -1 -43.167 -3 -57.5s-6.16699 -25.166 -12.5 -32.499s-15.333 -12.166 -27 -14.499s-27.5 -3.83301 -47.5 -4.5h-137z" />
    <glyph glyph-name="germandbls" unicode="&#xdf;" horiz-adv-x="617" 
d="M229 0l0.00585938 565c0 30.667 6.5 51 19.5 61s32.167 15 57.5 15c27.333 0 48.666 -4.33301 63.999 -13s23 -25.667 23 -51c0 -11.333 -2 -20.5 -6 -27.5s-9.16699 -12.333 -15.5 -16s-13.833 -6 -22.5 -7s-18 -1.5 -28 -1.5h-19v-115h16
c22.667 0 40.334 -4.33301 53.001 -13s22 -20.334 28 -35.001s9.5 -32.167 10.5 -52.5s1.5 -41.833 1.5 -64.5c0 -26 -1 -47.5 -3 -64.5s-6 -30.5 -12 -40.5s-14.333 -16.833 -25 -20.5s-24.334 -5.5 -41.001 -5.5s-32 2.33301 -46 7v-121l45 -4
c14.667 -1.33301 29.667 -2 45 -2c43.333 0 78.666 5.83301 105.999 17.5s48.666 28.334 63.999 50.001s25.666 48 30.999 79s8 65.833 8 104.5c0 28 -1.5 55 -4.5 81s-9.66699 48.833 -20 68.5s-25.5 35.334 -45.5 47.001s-47 17.834 -81 18.501v8
c38 4.66699 67.5 17.667 88.5 39s31.5 51.666 31.5 90.999c0 38 -7.16699 67.5 -21.5 88.5s-33 36.667 -56 47s-49.167 16.666 -78.5 18.999s-59.333 3.5 -90 3.5c-38 0 -72.333 -2.5 -103 -7.5s-56.834 -14.5 -78.501 -28.5s-38.334 -33.333 -50.001 -58
s-17.5 -57 -17.5 -97v-565h172z" />
    <glyph glyph-name="agrave" unicode="&#xe0;" horiz-adv-x="609" 
d="M288 217c28 0 50.6699 -2.50098 68.0029 -7.50098s26 -18.5 26 -40.5c0 -14 -1.5 -25.167 -4.5 -33.5s-8.16699 -14.666 -15.5 -18.999s-17 -7.33301 -29 -9s-27 -2.5 -45 -2.5c-6.66699 0 -14.334 0.333008 -23.001 1s-16.834 2.66699 -24.501 6s-14.167 9 -19.5 17
s-8 19 -8 33c0 24 7.16699 39.167 21.5 45.5s32.166 9.5 53.499 9.5zM382.003 -0.000976562h172.002v328c0 45.333 -4.83301 81.333 -14.5 108s-24.5 47 -44.5 61s-45.833 23.167 -77.5 27.5s-69.5 6.5 -113.5 6.5c-30.667 0 -60.5 -0.833008 -89.5 -2.5
s-54.833 -7.5 -77.5 -17.5s-40.834 -26 -54.501 -48s-20.5 -53.333 -20.5 -94h172c0 23.333 6.33301 38.666 19 45.999s29.667 11 51 11c18.667 0 33.334 -1.83301 44.001 -5.5s18.5 -9 23.5 -16s8 -15.5 9 -25.5s1.5 -21 1.5 -33v-83h-8
c-4.66699 14.667 -12.5 26.167 -23.5 34.5s-23.333 14.166 -37 17.499s-27.834 5.33301 -42.501 6s-28 1 -40 1c-31.333 0 -58.833 -2.66699 -82.5 -8s-43.5 -14.333 -59.5 -27s-28 -29.667 -36 -51s-12 -47.666 -12 -78.999c0 -33.333 4.33301 -60.666 13 -81.999
s21 -38 37 -50s35.833 -20.167 59.5 -24.5s50.5 -6.5 80.5 -6.5c14.667 0 30.334 1 47.001 3s32.167 6 46.5 12s26.666 14.5 36.999 25.5s17.166 25.5 20.499 43.5h6zM228.005 755.999l-50 -111l226 -71l28 62z" />
    <glyph glyph-name="aacute" unicode="&#xe1;" horiz-adv-x="609" 
d="M288 217c28 0 50.6699 -2.50098 68.0029 -7.50098s26 -18.5 26 -40.5c0 -14 -1.5 -25.167 -4.5 -33.5s-8.16699 -14.666 -15.5 -18.999s-17 -7.33301 -29 -9s-27 -2.5 -45 -2.5c-6.66699 0 -14.334 0.333008 -23.001 1s-16.834 2.66699 -24.501 6s-14.167 9 -19.5 17
s-8 19 -8 33c0 24 7.16699 39.167 21.5 45.5s32.166 9.5 53.499 9.5zM382.003 -0.000976562h172.002v328c0 45.333 -4.83301 81.333 -14.5 108s-24.5 47 -44.5 61s-45.833 23.167 -77.5 27.5s-69.5 6.5 -113.5 6.5c-30.667 0 -60.5 -0.833008 -89.5 -2.5
s-54.833 -7.5 -77.5 -17.5s-40.834 -26 -54.501 -48s-20.5 -53.333 -20.5 -94h172c0 23.333 6.33301 38.666 19 45.999s29.667 11 51 11c18.667 0 33.334 -1.83301 44.001 -5.5s18.5 -9 23.5 -16s8 -15.5 9 -25.5s1.5 -21 1.5 -33v-83h-8
c-4.66699 14.667 -12.5 26.167 -23.5 34.5s-23.333 14.166 -37 17.499s-27.834 5.33301 -42.501 6s-28 1 -40 1c-31.333 0 -58.833 -2.66699 -82.5 -8s-43.5 -14.333 -59.5 -27s-28 -29.667 -36 -51s-12 -47.666 -12 -78.999c0 -33.333 4.33301 -60.666 13 -81.999
s21 -38 37 -50s35.833 -20.167 59.5 -24.5s50.5 -6.5 80.5 -6.5c14.667 0 30.334 1 47.001 3s32.167 6 46.5 12s26.666 14.5 36.999 25.5s17.166 25.5 20.499 43.5h6zM382.005 755.999l-204 -120l28 -62l226 71z" />
    <glyph glyph-name="acircumflex" unicode="&#xe2;" horiz-adv-x="609" 
d="M288 217c28 0 50.6699 -2.50098 68.0029 -7.50098s26 -18.5 26 -40.5c0 -14 -1.5 -25.167 -4.5 -33.5s-8.16699 -14.666 -15.5 -18.999s-17 -7.33301 -29 -9s-27 -2.5 -45 -2.5c-6.66699 0 -14.334 0.333008 -23.001 1s-16.834 2.66699 -24.501 6s-14.167 9 -19.5 17
s-8 19 -8 33c0 24 7.16699 39.167 21.5 45.5s32.166 9.5 53.499 9.5zM382.003 -0.000976562h172.002v328c0 45.333 -4.83301 81.333 -14.5 108s-24.5 47 -44.5 61s-45.833 23.167 -77.5 27.5s-69.5 6.5 -113.5 6.5c-30.667 0 -60.5 -0.833008 -89.5 -2.5
s-54.833 -7.5 -77.5 -17.5s-40.834 -26 -54.501 -48s-20.5 -53.333 -20.5 -94h172c0 23.333 6.33301 38.666 19 45.999s29.667 11 51 11c18.667 0 33.334 -1.83301 44.001 -5.5s18.5 -9 23.5 -16s8 -15.5 9 -25.5s1.5 -21 1.5 -33v-83h-8
c-4.66699 14.667 -12.5 26.167 -23.5 34.5s-23.333 14.166 -37 17.499s-27.834 5.33301 -42.501 6s-28 1 -40 1c-31.333 0 -58.833 -2.66699 -82.5 -8s-43.5 -14.333 -59.5 -27s-28 -29.667 -36 -51s-12 -47.666 -12 -78.999c0 -33.333 4.33301 -60.666 13 -81.999
s21 -38 37 -50s35.833 -20.167 59.5 -24.5s50.5 -6.5 80.5 -6.5c14.667 0 30.334 1 47.001 3s32.167 6 46.5 12s26.666 14.5 36.999 25.5s17.166 25.5 20.499 43.5h6zM303.005 755.999l-179 -109l27 -57l152 62l158 -62l25 57z" />
    <glyph glyph-name="atilde" unicode="&#xe3;" horiz-adv-x="609" 
d="M288 217c28 0 50.6699 -2.50098 68.0029 -7.50098s26 -18.5 26 -40.5c0 -14 -1.5 -25.167 -4.5 -33.5s-8.16699 -14.666 -15.5 -18.999s-17 -7.33301 -29 -9s-27 -2.5 -45 -2.5c-6.66699 0 -14.334 0.333008 -23.001 1s-16.834 2.66699 -24.501 6s-14.167 9 -19.5 17
s-8 19 -8 33c0 24 7.16699 39.167 21.5 45.5s32.166 9.5 53.499 9.5zM382.003 -0.000976562h172.002v328c0 45.333 -4.83301 81.333 -14.5 108s-24.5 47 -44.5 61s-45.833 23.167 -77.5 27.5s-69.5 6.5 -113.5 6.5c-30.667 0 -60.5 -0.833008 -89.5 -2.5
s-54.833 -7.5 -77.5 -17.5s-40.834 -26 -54.501 -48s-20.5 -53.333 -20.5 -94h172c0 23.333 6.33301 38.666 19 45.999s29.667 11 51 11c18.667 0 33.334 -1.83301 44.001 -5.5s18.5 -9 23.5 -16s8 -15.5 9 -25.5s1.5 -21 1.5 -33v-83h-8
c-4.66699 14.667 -12.5 26.167 -23.5 34.5s-23.333 14.166 -37 17.499s-27.834 5.33301 -42.501 6s-28 1 -40 1c-31.333 0 -58.833 -2.66699 -82.5 -8s-43.5 -14.333 -59.5 -27s-28 -29.667 -36 -51s-12 -47.666 -12 -78.999c0 -33.333 4.33301 -60.666 13 -81.999
s21 -38 37 -50s35.833 -20.167 59.5 -24.5s50.5 -6.5 80.5 -6.5c14.667 0 30.334 1 47.001 3s32.167 6 46.5 12s26.666 14.5 36.999 25.5s17.166 25.5 20.499 43.5h6zM440.005 732.999c-5.33301 -10.667 -11.9961 -21.001 -19.9961 -31.001s-18.667 -15 -32 -15
c-12.667 0 -25.334 3.5 -38.001 10.5s-26 15.167 -40 24.5c-13.333 8.66699 -27.666 16.5 -42.999 23.5s-32 10.5 -50 10.5c-15.333 0 -29.333 -2.66699 -42 -8s-24.334 -12.5 -35.001 -21.5s-20.5 -19.333 -29.5 -31s-16.833 -23.5 -23.5 -35.5l82 -44
c6.66699 12 14.5 22.5 23.5 31.5s21.167 13.5 36.5 13.5c11.333 0 22.666 -3.5 33.999 -10.5l37 -23.5c13.333 -8.66699 28.166 -16.5 44.499 -23.5s34.5 -10.5 54.5 -10.5c15.333 0 29.166 2.83301 41.499 8.5s23.5 13.167 33.5 22.5s19 19.833 27 31.5
s15 23.834 21 36.501z" />
    <glyph glyph-name="adieresis" unicode="&#xe4;" horiz-adv-x="609" 
d="M288 217c28 0 50.6699 -2.50098 68.0029 -7.50098s26 -18.5 26 -40.5c0 -14 -1.5 -25.167 -4.5 -33.5s-8.16699 -14.666 -15.5 -18.999s-17 -7.33301 -29 -9s-27 -2.5 -45 -2.5c-6.66699 0 -14.334 0.333008 -23.001 1s-16.834 2.66699 -24.501 6s-14.167 9 -19.5 17
s-8 19 -8 33c0 24 7.16699 39.167 21.5 45.5s32.166 9.5 53.499 9.5zM382.003 -0.000976562h172.002v328c0 45.333 -4.83301 81.333 -14.5 108s-24.5 47 -44.5 61s-45.833 23.167 -77.5 27.5s-69.5 6.5 -113.5 6.5c-30.667 0 -60.5 -0.833008 -89.5 -2.5
s-54.833 -7.5 -77.5 -17.5s-40.834 -26 -54.501 -48s-20.5 -53.333 -20.5 -94h172c0 23.333 6.33301 38.666 19 45.999s29.667 11 51 11c18.667 0 33.334 -1.83301 44.001 -5.5s18.5 -9 23.5 -16s8 -15.5 9 -25.5s1.5 -21 1.5 -33v-83h-8
c-4.66699 14.667 -12.5 26.167 -23.5 34.5s-23.333 14.166 -37 17.499s-27.834 5.33301 -42.501 6s-28 1 -40 1c-31.333 0 -58.833 -2.66699 -82.5 -8s-43.5 -14.333 -59.5 -27s-28 -29.667 -36 -51s-12 -47.666 -12 -78.999c0 -33.333 4.33301 -60.666 13 -81.999
s21 -38 37 -50s35.833 -20.167 59.5 -24.5s50.5 -6.5 80.5 -6.5c14.667 0 30.334 1 47.001 3s32.167 6 46.5 12s26.666 14.5 36.999 25.5s17.166 25.5 20.499 43.5h6zM254.005 711.999h-109v-103h109v103zM464.005 711.999h-109v-103h109v103z" />
    <glyph glyph-name="aring" unicode="&#xe5;" horiz-adv-x="609" 
d="M288 217c28 0 50.6699 -2.50098 68.0029 -7.50098s26 -18.5 26 -40.5c0 -14 -1.5 -25.167 -4.5 -33.5s-8.16699 -14.666 -15.5 -18.999s-17 -7.33301 -29 -9s-27 -2.5 -45 -2.5c-6.66699 0 -14.334 0.333008 -23.001 1s-16.834 2.66699 -24.501 6s-14.167 9 -19.5 17
s-8 19 -8 33c0 24 7.16699 39.167 21.5 45.5s32.166 9.5 53.499 9.5zM382.003 -0.000976562h172.002v328c0 45.333 -4.83301 81.333 -14.5 108s-24.5 47 -44.5 61s-45.833 23.167 -77.5 27.5s-69.5 6.5 -113.5 6.5c-30.667 0 -60.5 -0.833008 -89.5 -2.5
s-54.833 -7.5 -77.5 -17.5s-40.834 -26 -54.501 -48s-20.5 -53.333 -20.5 -94h172c0 23.333 6.33301 38.666 19 45.999s29.667 11 51 11c18.667 0 33.334 -1.83301 44.001 -5.5s18.5 -9 23.5 -16s8 -15.5 9 -25.5s1.5 -21 1.5 -33v-83h-8
c-4.66699 14.667 -12.5 26.167 -23.5 34.5s-23.333 14.166 -37 17.499s-27.834 5.33301 -42.501 6s-28 1 -40 1c-31.333 0 -58.833 -2.66699 -82.5 -8s-43.5 -14.333 -59.5 -27s-28 -29.667 -36 -51s-12 -47.666 -12 -78.999c0 -33.333 4.33301 -60.666 13 -81.999
s21 -38 37 -50s35.833 -20.167 59.5 -24.5s50.5 -6.5 80.5 -6.5c14.667 0 30.334 1 47.001 3s32.167 6 46.5 12s26.666 14.5 36.999 25.5s17.166 25.5 20.499 43.5h6zM207.005 663.999c0 -27.333 9.5 -50.5 28.5 -69.5s42.167 -28.5 69.5 -28.5
c13.333 0 25.833 2.5 37.5 7.5s22 12 31 21s16 19.5 21 31.5s7.5 24.667 7.5 38s-2.5 26 -7.5 38s-12 22.333 -21 31s-19.333 15.5 -31 20.5s-24.167 7.5 -37.5 7.5c-27.333 0 -50.5 -9.33301 -69.5 -28s-28.5 -41.667 -28.5 -69zM259.005 663.999
c0 12.667 4.33301 23.334 13 32.001s19.334 13 32.001 13c12 0 22.667 -4.33301 32 -13s14 -19.334 14 -32.001s-4.66699 -23.5 -14 -32.5s-20 -13.5 -32 -13.5c-12.667 0 -23.334 4.5 -32.001 13.5s-13 19.833 -13 32.5z" />
    <glyph glyph-name="ae" unicode="&#xe6;" horiz-adv-x="927" 
d="M551 328c1.33301 34.667 7.66602 59.166 18.999 73.499s32.333 21.5 63 21.5c14.667 0 27.334 -1.33301 38.001 -4s19.667 -7.5 27 -14.5s12.833 -16.667 16.5 -29s5.5 -28.166 5.5 -47.499h-169zM285 217.999c28 0 50.6699 -2.50098 68.0029 -7.50098s26 -18.5 26 -40.5
c0 -14 -1.5 -25.167 -4.5 -33.5s-8.16699 -14.666 -15.5 -18.999s-17 -7.33301 -29 -9s-27 -2.5 -45 -2.5c-6.66699 0 -14.334 0.333008 -23.001 1s-16.834 2.66699 -24.501 6s-14.167 9 -19.5 17s-8 19 -8 33c0 24 7.16699 39.167 21.5 45.5s32.166 9.5 53.499 9.5z
M379.003 262.998l-8 -0.000976562c-4.66699 14.667 -12.5 26 -23.5 34s-23.333 13.833 -37 17.5s-27.834 5.83398 -42.501 6.50098s-28 1 -40 1c-31.333 0 -58.833 -2.66699 -82.5 -8s-43.5 -14.333 -59.5 -27s-28 -29.667 -36 -51s-12 -47.666 -12 -78.999
c0 -33.333 4.33301 -60.666 13 -81.999s21 -38 37 -50s35.833 -20.167 59.5 -24.5s50.5 -6.5 80.5 -6.5c22.667 0 45.334 0.5 68.001 1.5s43.834 4 63.501 9s36.667 12.833 51 23.5s25.166 25.667 32.499 45h6c6 -18 16.333 -32.333 31 -43s31 -18.667 49 -24
s36.5 -8.66602 55.5 -9.99902s36.167 -2 51.5 -2c38 0 72.833 2 104.5 6s59.167 12.333 82.5 25c22.667 13.333 39.834 31.666 51.501 54.999s17.5 55 17.5 95h-169c0 -14 -2 -25 -6 -33s-9.83301 -14 -17.5 -18s-16.834 -6.66699 -27.501 -8s-22.667 -2 -36 -2
c-18 0 -32.5 1.83301 -43.5 5.5s-19.5 10.167 -25.5 19.5s-10.167 21.5 -12.5 36.5s-3.5 34.167 -3.5 57.5h341v29c0 53.333 -4.16699 97.333 -12.5 132s-22.333 62.167 -42 82.5s-45.834 34.5 -78.501 42.5s-73.667 12 -123 12c-11.333 0 -25.5 -0.5 -42.5 -1.5
s-33.667 -3.83301 -50 -8.5s-31 -11.834 -44 -21.501s-21.5 -22.834 -25.5 -39.501h-5c-4.66699 18 -14.167 31.667 -28.5 41s-30.166 16.333 -47.499 21s-34.5 7.33398 -51.5 8.00098s-30.5 1 -40.5 1c-30.667 0 -60.5 -0.833008 -89.5 -2.5s-54.833 -7.5 -77.5 -17.5
s-40.834 -26 -54.501 -48s-20.5 -53.333 -20.5 -94h172c0 23.333 6.33301 38.666 19 45.999s29.667 11 51 11c18.667 0 33.334 -1.83301 44.001 -5.5s18.5 -9 23.5 -16s8 -15.5 9 -25.5s1.5 -21 1.5 -33v-83z" />
    <glyph glyph-name="ccedilla" unicode="&#xe7;" horiz-adv-x="557" 
d="M321 -41l-128 -82l28 -52l144 52zM364 210c0 -16 -0.671875 -29.501 -2.00488 -40.501s-4.66602 -19.667 -9.99902 -26s-13.5 -10.833 -24.5 -13.5s-26.167 -4 -45.5 -4c-16 0 -29.167 1.33301 -39.5 4s-18.5 8.66699 -24.5 18s-10 23 -12 41s-3 42.333 -3 73
c0 30 1.33301 54 4 72s7 31.833 13 41.5s14 16 24 19s22.667 4.5 38 4.5c34.667 0 57.334 -5 68.001 -15c6 -5.33301 10 -12.5 12 -21.5s2.66699 -20.5 2 -34.5h172c0 46.667 -6.16699 83.5 -18.5 110.5s-29.666 47.333 -51.999 61s-49 22.334 -80 26.001
s-65.5 5.5 -103.5 5.5c-54 0 -97.333 -5.66699 -130 -17s-58 -28.333 -76 -51s-30 -50.667 -36 -84s-9 -72.333 -9 -117c0 -52 3.5 -95.167 10.5 -129.5s19.833 -61.666 38.5 -81.999s44.334 -34.833 77.001 -43.5s74.334 -13 125.001 -13c46.667 0 86 2 118 6
s58 13.667 78 29c20.667 14.667 35.5 36.167 44.5 64.5s13.5 67.166 13.5 116.499h-172z" />
    <glyph glyph-name="egrave" unicode="&#xe8;" horiz-adv-x="574" 
d="M202 328c0.666992 17.333 2.33398 31.333 5.00098 42s7.16699 19 13.5 25s14.666 10.167 24.999 12.5s23.166 3.5 38.499 3.5c14.667 0 27.334 -0.666992 38.001 -2s19.667 -4.83301 27 -10.5s12.833 -14 16.5 -25s5.5 -26.167 5.5 -45.5h-169zM374 175
c0 -14 -1.99707 -24.999 -5.99707 -32.999s-9.83301 -14 -17.5 -18s-16.834 -6.66699 -27.501 -8s-22.667 -2 -36 -2c-18 0 -32.5 1.83301 -43.5 5.5s-19.5 10.167 -25.5 19.5s-10.167 21.5 -12.5 36.5s-3.5 34.167 -3.5 57.5h341v29c0 53.333 -4.16699 97.333 -12.5 132
s-22.333 62.167 -42 82.5s-45.834 34.5 -78.501 42.5s-73.667 12 -123 12c-52.667 0 -95.667 -4.5 -129 -13.5s-59.5 -24 -78.5 -45s-32 -48.667 -39 -83s-10.5 -76.833 -10.5 -127.5c0 -49.333 3.66699 -91 11 -125s20.666 -61.5 39.999 -82.5s45.5 -36.333 78.5 -46
s75.5 -14.5 127.5 -14.5c38 0 72.667 2 104 6s58.333 12.333 81 25c22.667 13.333 40.167 31.666 52.5 54.999s18.5 55 18.5 95h-169zM210.003 756.001l-50 -111l226 -71l28 62z" />
    <glyph glyph-name="eacute" unicode="&#xe9;" horiz-adv-x="574" 
d="M202 328c0.666992 17.333 2.33398 31.333 5.00098 42s7.16699 19 13.5 25s14.666 10.167 24.999 12.5s23.166 3.5 38.499 3.5c14.667 0 27.334 -0.666992 38.001 -2s19.667 -4.83301 27 -10.5s12.833 -14 16.5 -25s5.5 -26.167 5.5 -45.5h-169zM374 175
c0 -14 -1.99707 -24.999 -5.99707 -32.999s-9.83301 -14 -17.5 -18s-16.834 -6.66699 -27.501 -8s-22.667 -2 -36 -2c-18 0 -32.5 1.83301 -43.5 5.5s-19.5 10.167 -25.5 19.5s-10.167 21.5 -12.5 36.5s-3.5 34.167 -3.5 57.5h341v29c0 53.333 -4.16699 97.333 -12.5 132
s-22.333 62.167 -42 82.5s-45.834 34.5 -78.501 42.5s-73.667 12 -123 12c-52.667 0 -95.667 -4.5 -129 -13.5s-59.5 -24 -78.5 -45s-32 -48.667 -39 -83s-10.5 -76.833 -10.5 -127.5c0 -49.333 3.66699 -91 11 -125s20.666 -61.5 39.999 -82.5s45.5 -36.333 78.5 -46
s75.5 -14.5 127.5 -14.5c38 0 72.667 2 104 6s58.333 12.333 81 25c22.667 13.333 40.167 31.666 52.5 54.999s18.5 55 18.5 95h-169zM364.003 756.001l-204 -120l28 -62l226 71z" />
    <glyph glyph-name="ecircumflex" unicode="&#xea;" horiz-adv-x="574" 
d="M202 328c0.666992 17.333 2.33398 31.333 5.00098 42s7.16699 19 13.5 25s14.666 10.167 24.999 12.5s23.166 3.5 38.499 3.5c14.667 0 27.334 -0.666992 38.001 -2s19.667 -4.83301 27 -10.5s12.833 -14 16.5 -25s5.5 -26.167 5.5 -45.5h-169zM374 175
c0 -14 -1.99707 -24.999 -5.99707 -32.999s-9.83301 -14 -17.5 -18s-16.834 -6.66699 -27.501 -8s-22.667 -2 -36 -2c-18 0 -32.5 1.83301 -43.5 5.5s-19.5 10.167 -25.5 19.5s-10.167 21.5 -12.5 36.5s-3.5 34.167 -3.5 57.5h341v29c0 53.333 -4.16699 97.333 -12.5 132
s-22.333 62.167 -42 82.5s-45.834 34.5 -78.501 42.5s-73.667 12 -123 12c-52.667 0 -95.667 -4.5 -129 -13.5s-59.5 -24 -78.5 -45s-32 -48.667 -39 -83s-10.5 -76.833 -10.5 -127.5c0 -49.333 3.66699 -91 11 -125s20.666 -61.5 39.999 -82.5s45.5 -36.333 78.5 -46
s75.5 -14.5 127.5 -14.5c38 0 72.667 2 104 6s58.333 12.333 81 25c22.667 13.333 40.167 31.666 52.5 54.999s18.5 55 18.5 95h-169zM285.003 756.001l-179 -109l27 -57l152 62l158 -62l25 57z" />
    <glyph glyph-name="edieresis" unicode="&#xeb;" horiz-adv-x="574" 
d="M202 328c0.666992 17.333 2.33398 31.333 5.00098 42s7.16699 19 13.5 25s14.666 10.167 24.999 12.5s23.166 3.5 38.499 3.5c14.667 0 27.334 -0.666992 38.001 -2s19.667 -4.83301 27 -10.5s12.833 -14 16.5 -25s5.5 -26.167 5.5 -45.5h-169zM374 175
c0 -14 -1.99707 -24.999 -5.99707 -32.999s-9.83301 -14 -17.5 -18s-16.834 -6.66699 -27.501 -8s-22.667 -2 -36 -2c-18 0 -32.5 1.83301 -43.5 5.5s-19.5 10.167 -25.5 19.5s-10.167 21.5 -12.5 36.5s-3.5 34.167 -3.5 57.5h341v29c0 53.333 -4.16699 97.333 -12.5 132
s-22.333 62.167 -42 82.5s-45.834 34.5 -78.501 42.5s-73.667 12 -123 12c-52.667 0 -95.667 -4.5 -129 -13.5s-59.5 -24 -78.5 -45s-32 -48.667 -39 -83s-10.5 -76.833 -10.5 -127.5c0 -49.333 3.66699 -91 11 -125s20.666 -61.5 39.999 -82.5s45.5 -36.333 78.5 -46
s75.5 -14.5 127.5 -14.5c38 0 72.667 2 104 6s58.333 12.333 81 25c22.667 13.333 40.167 31.666 52.5 54.999s18.5 55 18.5 95h-169zM237.003 712.001h-109v-103h109v103zM447.003 712.001h-109v-103h109v103z" />
    <glyph glyph-name="igrave" unicode="&#xec;" horiz-adv-x="257" 
d="M215 525h-172v-525h172v525zM52 756l-50 -111l226 -71l28 62z" />
    <glyph glyph-name="iacute" unicode="&#xed;" horiz-adv-x="257" 
d="M215 525h-172v-525h172v525zM206 756l-204 -120l28 -62l226 71z" />
    <glyph glyph-name="icircumflex" unicode="&#xee;" horiz-adv-x="257" 
d="M215 525h-172v-525h172v525zM127 756l-179 -109l27 -57l152 62l158 -62l25 57z" />
    <glyph glyph-name="idieresis" unicode="&#xef;" horiz-adv-x="257" 
d="M215 525h-172v-525h172v525zM78 712h-109v-103h109v103zM288 712h-109v-103h109v103z" />
    <glyph glyph-name="eth" unicode="&#xf0;" horiz-adv-x="593" 
d="M299 399c20 0 35.833 -1.83301 47.5 -5.5s20.5 -10.5 26.5 -20.5s9.83301 -23.833 11.5 -41.5s2.5 -40.834 2.5 -69.501s-0.833008 -51.834 -2.5 -69.501s-5.5 -31.5 -11.5 -41.5s-14.833 -16.667 -26.5 -20s-27.5 -5 -47.5 -5c-20.667 0 -37.167 1.66699 -49.5 5
s-21.666 10 -27.999 20s-10.5 23.833 -12.5 41.5s-3 40.834 -3 69.501s1 51.834 3 69.501s6.16699 31.5 12.5 41.5s15.666 16.833 27.999 20.5s28.833 5.5 49.5 5.5zM178 714c15.333 -11.333 28.166 -21.1709 38.499 -29.5039s20.166 -16.833 29.499 -25.5l-120 -38l66 -63
l114 36c14 -17.333 26 -36.166 36 -56.499s17.667 -40.166 23 -59.499c-10 9.33301 -19.333 17.166 -28 23.499s-18.334 11.333 -29.001 15s-23 6.33398 -37 8.00098s-31 2.5 -51 2.5c-41.333 0 -74.166 -7.16699 -98.499 -21.5s-43 -33.5 -56 -57.5s-21.5 -52 -25.5 -84
s-6 -66 -6 -102c0 -52.667 3.5 -96.167 10.5 -130.5s20.167 -61.666 39.5 -81.999s46 -34.666 80 -42.999s78 -12.5 132 -12.5c54.667 0 99 3.83301 133 11.5s60.667 22 80 43s32.5 50 39.5 87s10.5 84.5 10.5 142.5c0 78.667 -9.66699 148.5 -29 209.5
s-46.666 111.5 -81.999 151.5l113 36l-62 64l-114 -36c-14.667 12.667 -27.667 23 -39 31s-22.666 15.333 -33.999 22z" />
    <glyph glyph-name="ntilde" unicode="&#xf1;" horiz-adv-x="619" 
d="M57 525l-0.00292969 -525.003h172v289c0 16 1 30.667 3 44s6.33301 25 13 35s15.834 17.667 27.501 23s27.167 8 46.5 8c28 0 46.667 -6.33301 56 -19s14.333 -31.667 15 -57v-323h172v363c0 56.667 -13.5 98.834 -40.5 126.501s-69.833 41.5 -128.5 41.5
c-20 0 -38.167 -1.5 -54.5 -4.5s-31.166 -8.5 -44.499 -16.5c-13.333 -7.33301 -24.666 -17.666 -33.999 -30.999s-17.333 -30.666 -24 -51.999h-7v98h-172zM444.997 732.997c-5.33301 -10.667 -11.9961 -21.001 -19.9961 -31.001s-18.667 -15 -32 -15
c-12.667 0 -25.334 3.5 -38.001 10.5s-26 15.167 -40 24.5c-13.333 8.66699 -27.666 16.5 -42.999 23.5s-32 10.5 -50 10.5c-15.333 0 -29.333 -2.66699 -42 -8s-24.334 -12.5 -35.001 -21.5s-20.5 -19.333 -29.5 -31s-16.833 -23.5 -23.5 -35.5l82 -44
c6.66699 12 14.5 22.5 23.5 31.5s21.167 13.5 36.5 13.5c11.333 0 22.666 -3.5 33.999 -10.5l37 -23.5c13.333 -8.66699 28.166 -16.5 44.499 -23.5s34.5 -10.5 54.5 -10.5c15.333 0 29.166 2.83301 41.499 8.5s23.5 13.167 33.5 22.5s19 19.833 27 31.5
s15 23.834 21 36.501z" />
    <glyph glyph-name="ograve" unicode="&#xf2;" horiz-adv-x="593" 
d="M296 531c-54.667 0 -99.168 -4.00195 -133.501 -12.002s-61 -22 -80 -42s-31.833 -47.333 -38.5 -82s-10 -79 -10 -133c0 -52.667 3.5 -96.167 10.5 -130.5s20.167 -61.666 39.5 -81.999s46 -34.666 80 -42.999s78 -12.5 132 -12.5c54.667 0 99 3.83301 133 11.5
s60.667 21.5 80 41.5s32.5 47.333 39.5 82s10.5 79 10.5 133c0 55.333 -3.33301 100.5 -10 135.5s-19.667 62.333 -39 82s-46.166 33.167 -80.499 40.5s-78.833 11 -133.5 11zM298.999 398.998c20 0 35.833 -1.83301 47.5 -5.5s20.5 -10.5 26.5 -20.5
s9.83301 -23.833 11.5 -41.5s2.5 -40.834 2.5 -69.501s-0.833008 -51.834 -2.5 -69.501s-5.5 -31.5 -11.5 -41.5s-14.833 -16.667 -26.5 -20s-27.5 -5 -47.5 -5c-20.667 0 -37.167 1.66699 -49.5 5s-21.666 10 -27.999 20s-10.5 23.833 -12.5 41.5s-3 40.834 -3 69.501
s1 51.834 3 69.501s6.16699 31.5 12.5 41.5s15.666 16.833 27.999 20.5s28.833 5.5 49.5 5.5zM219.999 755.998l-50 -111l226 -71l28 62z" />
    <glyph glyph-name="oacute" unicode="&#xf3;" horiz-adv-x="593" 
d="M296 531c-54.667 0 -99.168 -4.00195 -133.501 -12.002s-61 -22 -80 -42s-31.833 -47.333 -38.5 -82s-10 -79 -10 -133c0 -52.667 3.5 -96.167 10.5 -130.5s20.167 -61.666 39.5 -81.999s46 -34.666 80 -42.999s78 -12.5 132 -12.5c54.667 0 99 3.83301 133 11.5
s60.667 21.5 80 41.5s32.5 47.333 39.5 82s10.5 79 10.5 133c0 55.333 -3.33301 100.5 -10 135.5s-19.667 62.333 -39 82s-46.166 33.167 -80.499 40.5s-78.833 11 -133.5 11zM298.999 398.998c20 0 35.833 -1.83301 47.5 -5.5s20.5 -10.5 26.5 -20.5
s9.83301 -23.833 11.5 -41.5s2.5 -40.834 2.5 -69.501s-0.833008 -51.834 -2.5 -69.501s-5.5 -31.5 -11.5 -41.5s-14.833 -16.667 -26.5 -20s-27.5 -5 -47.5 -5c-20.667 0 -37.167 1.66699 -49.5 5s-21.666 10 -27.999 20s-10.5 23.833 -12.5 41.5s-3 40.834 -3 69.501
s1 51.834 3 69.501s6.16699 31.5 12.5 41.5s15.666 16.833 27.999 20.5s28.833 5.5 49.5 5.5zM373.999 755.998l-204 -120l28 -62l226 71z" />
    <glyph glyph-name="ocircumflex" unicode="&#xf4;" horiz-adv-x="593" 
d="M296 531c-54.667 0 -99.168 -4.00195 -133.501 -12.002s-61 -22 -80 -42s-31.833 -47.333 -38.5 -82s-10 -79 -10 -133c0 -52.667 3.5 -96.167 10.5 -130.5s20.167 -61.666 39.5 -81.999s46 -34.666 80 -42.999s78 -12.5 132 -12.5c54.667 0 99 3.83301 133 11.5
s60.667 21.5 80 41.5s32.5 47.333 39.5 82s10.5 79 10.5 133c0 55.333 -3.33301 100.5 -10 135.5s-19.667 62.333 -39 82s-46.166 33.167 -80.499 40.5s-78.833 11 -133.5 11zM298.999 398.998c20 0 35.833 -1.83301 47.5 -5.5s20.5 -10.5 26.5 -20.5
s9.83301 -23.833 11.5 -41.5s2.5 -40.834 2.5 -69.501s-0.833008 -51.834 -2.5 -69.501s-5.5 -31.5 -11.5 -41.5s-14.833 -16.667 -26.5 -20s-27.5 -5 -47.5 -5c-20.667 0 -37.167 1.66699 -49.5 5s-21.666 10 -27.999 20s-10.5 23.833 -12.5 41.5s-3 40.834 -3 69.501
s1 51.834 3 69.501s6.16699 31.5 12.5 41.5s15.666 16.833 27.999 20.5s28.833 5.5 49.5 5.5zM294.999 755.998l-179 -109l27 -57l152 62l158 -62l25 57z" />
    <glyph glyph-name="otilde" unicode="&#xf5;" horiz-adv-x="593" 
d="M296 531c-54.667 0 -99.168 -4.00195 -133.501 -12.002s-61 -22 -80 -42s-31.833 -47.333 -38.5 -82s-10 -79 -10 -133c0 -52.667 3.5 -96.167 10.5 -130.5s20.167 -61.666 39.5 -81.999s46 -34.666 80 -42.999s78 -12.5 132 -12.5c54.667 0 99 3.83301 133 11.5
s60.667 21.5 80 41.5s32.5 47.333 39.5 82s10.5 79 10.5 133c0 55.333 -3.33301 100.5 -10 135.5s-19.667 62.333 -39 82s-46.166 33.167 -80.499 40.5s-78.833 11 -133.5 11zM298.999 398.998c20 0 35.833 -1.83301 47.5 -5.5s20.5 -10.5 26.5 -20.5
s9.83301 -23.833 11.5 -41.5s2.5 -40.834 2.5 -69.501s-0.833008 -51.834 -2.5 -69.501s-5.5 -31.5 -11.5 -41.5s-14.833 -16.667 -26.5 -20s-27.5 -5 -47.5 -5c-20.667 0 -37.167 1.66699 -49.5 5s-21.666 10 -27.999 20s-10.5 23.833 -12.5 41.5s-3 40.834 -3 69.501
s1 51.834 3 69.501s6.16699 31.5 12.5 41.5s15.666 16.833 27.999 20.5s28.833 5.5 49.5 5.5zM431.999 732.998c-5.33301 -10.667 -11.9961 -21.001 -19.9961 -31.001s-18.667 -15 -32 -15c-12.667 0 -25.334 3.5 -38.001 10.5s-26 15.167 -40 24.5
c-13.333 8.66699 -27.666 16.5 -42.999 23.5s-32 10.5 -50 10.5c-15.333 0 -29.333 -2.66699 -42 -8s-24.334 -12.5 -35.001 -21.5s-20.5 -19.333 -29.5 -31s-16.833 -23.5 -23.5 -35.5l82 -44c6.66699 12 14.5 22.5 23.5 31.5s21.167 13.5 36.5 13.5
c11.333 0 22.666 -3.5 33.999 -10.5l37 -23.5c13.333 -8.66699 28.166 -16.5 44.499 -23.5s34.5 -10.5 54.5 -10.5c15.333 0 29.166 2.83301 41.499 8.5s23.5 13.167 33.5 22.5s19 19.833 27 31.5s15 23.834 21 36.501z" />
    <glyph glyph-name="odieresis" unicode="&#xf6;" horiz-adv-x="593" 
d="M296 531c-54.667 0 -99.168 -4.00195 -133.501 -12.002s-61 -22 -80 -42s-31.833 -47.333 -38.5 -82s-10 -79 -10 -133c0 -52.667 3.5 -96.167 10.5 -130.5s20.167 -61.666 39.5 -81.999s46 -34.666 80 -42.999s78 -12.5 132 -12.5c54.667 0 99 3.83301 133 11.5
s60.667 21.5 80 41.5s32.5 47.333 39.5 82s10.5 79 10.5 133c0 55.333 -3.33301 100.5 -10 135.5s-19.667 62.333 -39 82s-46.166 33.167 -80.499 40.5s-78.833 11 -133.5 11zM298.999 398.998c20 0 35.833 -1.83301 47.5 -5.5s20.5 -10.5 26.5 -20.5
s9.83301 -23.833 11.5 -41.5s2.5 -40.834 2.5 -69.501s-0.833008 -51.834 -2.5 -69.501s-5.5 -31.5 -11.5 -41.5s-14.833 -16.667 -26.5 -20s-27.5 -5 -47.5 -5c-20.667 0 -37.167 1.66699 -49.5 5s-21.666 10 -27.999 20s-10.5 23.833 -12.5 41.5s-3 40.834 -3 69.501
s1 51.834 3 69.501s6.16699 31.5 12.5 41.5s15.666 16.833 27.999 20.5s28.833 5.5 49.5 5.5zM245.999 711.998h-109v-103h109v103zM455.999 711.998h-109v-103h109v103z" />
    <glyph glyph-name="divide" unicode="&#xf7;" horiz-adv-x="600" 
d="M50 219h500v115h-500v-115zM357 28v115h-115v-115h115zM357 410v115h-115v-115h115z" />
    <glyph glyph-name="oslash" unicode="&#xf8;" horiz-adv-x="615" 
d="M398 285l0.00195312 -47c0 -21.333 -1 -39 -3 -53s-6.33301 -25.5 -13 -34.5s-15.834 -15.333 -27.501 -19s-27.5 -5.5 -47.5 -5.5c-18 0 -34.333 2 -49 6s-25.334 13.667 -32.001 29zM217.002 240l-0.00195312 93.999c0 22 6.33301 38.333 19 49s36.334 16 71.001 16
c6.66699 0 14.334 -0.166992 23.001 -0.5s17 -1.66602 25 -3.99902s15.167 -6 21.5 -11s10.5 -12.167 12.5 -21.5zM-2 -0.000976562l86.999 61.999c12.667 -17.333 27.667 -30.5 45 -39.5s35.833 -15.667 55.5 -20s40 -6.83301 61 -7.5s41.167 -1 60.5 -1
c59.333 0 106.333 4.66699 141 14s61 25.166 79 47.499s29.667 52.666 35 90.999s8 86.5 8 144.5c0 19.333 -0.166992 38.333 -0.5 57s-3.16602 37.334 -8.49902 56.001l44 32v85l-74 -55c-12 16 -26.667 28.5 -44 37.5s-36 15.5 -56 19.5s-40.667 6.33301 -62 7
s-42 1 -62 1c-49.333 0 -90.666 -3.16699 -123.999 -9.5s-60.333 -18.166 -81 -35.499s-35.334 -41.666 -44.001 -72.999s-13 -72.333 -13 -123c0 -28 0.5 -55.833 1.5 -83.5s4.16699 -55.167 9.5 -82.5l-58 -41v-83z" />
    <glyph glyph-name="ugrave" unicode="&#xf9;" horiz-adv-x="615" 
d="M555 0l-0.000976562 524.998h-172v-323c0 -13.333 -2.83301 -24.666 -8.5 -33.999s-13.167 -17.166 -22.5 -23.499s-19.833 -11 -31.5 -14s-23.167 -4.5 -34.5 -4.5c-14.667 0 -26.167 2.16699 -34.5 6.5s-14.666 10.5 -18.999 18.5s-7 17.167 -8 27.5
s-1.5 21.5 -1.5 33.5v313h-172v-359c0 -32 4.33301 -59 13 -81s21 -39.667 37 -53s34.833 -23 56.5 -29s45.5 -9 71.5 -9c36.667 0 69 7.66699 97 23s48 43.333 60 84h8l-6 -101h167zM230.999 755.998l-50 -111l226 -71l28 62z" />
    <glyph glyph-name="uacute" unicode="&#xfa;" horiz-adv-x="615" 
d="M555 0l-0.000976562 524.998h-172v-323c0 -13.333 -2.83301 -24.666 -8.5 -33.999s-13.167 -17.166 -22.5 -23.499s-19.833 -11 -31.5 -14s-23.167 -4.5 -34.5 -4.5c-14.667 0 -26.167 2.16699 -34.5 6.5s-14.666 10.5 -18.999 18.5s-7 17.167 -8 27.5
s-1.5 21.5 -1.5 33.5v313h-172v-359c0 -32 4.33301 -59 13 -81s21 -39.667 37 -53s34.833 -23 56.5 -29s45.5 -9 71.5 -9c36.667 0 69 7.66699 97 23s48 43.333 60 84h8l-6 -101h167zM384.999 755.998l-204 -120l28 -62l226 71z" />
    <glyph glyph-name="ucircumflex" unicode="&#xfb;" horiz-adv-x="615" 
d="M555 0l-0.000976562 524.998h-172v-323c0 -13.333 -2.83301 -24.666 -8.5 -33.999s-13.167 -17.166 -22.5 -23.499s-19.833 -11 -31.5 -14s-23.167 -4.5 -34.5 -4.5c-14.667 0 -26.167 2.16699 -34.5 6.5s-14.666 10.5 -18.999 18.5s-7 17.167 -8 27.5
s-1.5 21.5 -1.5 33.5v313h-172v-359c0 -32 4.33301 -59 13 -81s21 -39.667 37 -53s34.833 -23 56.5 -29s45.5 -9 71.5 -9c36.667 0 69 7.66699 97 23s48 43.333 60 84h8l-6 -101h167zM305.999 755.998l-179 -109l27 -57l152 62l158 -62l25 57z" />
    <glyph glyph-name="udieresis" unicode="&#xfc;" horiz-adv-x="615" 
d="M555 0l-0.000976562 524.998h-172v-323c0 -13.333 -2.83301 -24.666 -8.5 -33.999s-13.167 -17.166 -22.5 -23.499s-19.833 -11 -31.5 -14s-23.167 -4.5 -34.5 -4.5c-14.667 0 -26.167 2.16699 -34.5 6.5s-14.666 10.5 -18.999 18.5s-7 17.167 -8 27.5
s-1.5 21.5 -1.5 33.5v313h-172v-359c0 -32 4.33301 -59 13 -81s21 -39.667 37 -53s34.833 -23 56.5 -29s45.5 -9 71.5 -9c36.667 0 69 7.66699 97 23s48 43.333 60 84h8l-6 -101h167zM256.999 711.998h-109v-103h109v103zM466.999 711.998h-109v-103h109v103z" />
    <glyph glyph-name="yacute" unicode="&#xfd;" horiz-adv-x="533" 
d="M540 525l-175.997 -0.00390625l-85 -427h-2l-104 427h-180l156 -525h94c-0.666992 -15.333 -2.33398 -29.666 -5.00098 -42.999s-7.33398 -25.333 -14.001 -36s-15.667 -19 -27 -25s-26 -9 -44 -9c-5.33301 0 -10.333 0.166992 -15 0.5s-9.66699 0.833008 -15 1.5v-119
l29.5 -2c9.66699 -0.666992 19.5 -1 29.5 -1c36.667 0 67.667 3.33301 93 10s46.666 17.334 63.999 32.001s31.333 33.834 42 57.501s19.667 52.834 27 87.501zM344.003 755.996l-204 -120l28 -62l226 71z" />
    <glyph glyph-name="thorn" unicode="&#xfe;" horiz-adv-x="618" 
d="M223 750l-172 0.000976562v-977h172v306h8c6.66699 -18 15.167 -32.5 25.5 -43.5s21.833 -19.667 34.5 -26s26.167 -10.5 40.5 -12.5s29.5 -3 45.5 -3c36 0 66.667 4.16699 92 12.5s45.833 21.5 61.5 39.5s27.167 41.167 34.5 69.5s11 62.5 11 102.5v120
c0 69.333 -17.333 118.833 -52 148.5s-83.667 44.5 -147 44.5c-38 0 -69.833 -5.83301 -95.5 -17.5s-43.167 -34.834 -52.5 -69.501h-6v306zM309 399.001c22.667 0 40.334 -2.33008 53.001 -6.99707s22.167 -12.334 28.5 -23.001s10.166 -24.834 11.499 -42.501
s2 -39.167 2 -64.5c0 -30 -1.66699 -53.833 -5 -71.5s-8.66602 -31.334 -15.999 -41.001s-17 -16 -29 -19s-27 -4.5 -45 -4.5c-20 0 -35.667 3 -47 9s-20 14.667 -26 26s-9.66699 25.5 -11 42.5s-2 36.5 -2 58.5c0 28 1 50.833 3 68.5s6.16699 31.5 12.5 41.5
s15.166 17 26.499 21s26 6 44 6z" />
    <glyph glyph-name="ydieresis" unicode="&#xff;" horiz-adv-x="533" 
d="M540 525l-175.997 -0.00390625l-85 -427h-2l-104 427h-180l156 -525h94c-0.666992 -15.333 -2.33398 -29.666 -5.00098 -42.999s-7.33398 -25.333 -14.001 -36s-15.667 -19 -27 -25s-26 -9 -44 -9c-5.33301 0 -10.333 0.166992 -15 0.5s-9.66699 0.833008 -15 1.5v-119
l29.5 -2c9.66699 -0.666992 19.5 -1 29.5 -1c36.667 0 67.667 3.33301 93 10s46.666 17.334 63.999 32.001s31.333 33.834 42 57.501s19.667 52.834 27 87.501zM216.003 711.996h-109v-103h109v103zM426.003 711.996h-109v-103h109v103z" />
    <glyph glyph-name="dotlessi" unicode="&#x131;" horiz-adv-x="257" 
d="M215 525h-172v-525h172v525z" />
    <glyph glyph-name="Lslash" unicode="&#x141;" horiz-adv-x="596" 
d="M270 445l127 105v139l-127 -106v167h-200v-303l-73 -60v-142l73 61v-306h515v174h-315v271z" />
    <glyph glyph-name="lslash" unicode="&#x142;" horiz-adv-x="312" 
d="M243 437l69 51v95l-69 -51v218h-172v-322l-71 -51v-92l71 50v-335h172v437z" />
    <glyph glyph-name="OE" unicode="&#x152;" horiz-adv-x="1101" 
d="M535 0l532.997 -0.00292969v164h-347v144h318v139h-318v139h340v164h-526l7 -90h-7c-8 22 -19.667 39.333 -35 52s-32.666 22.334 -51.999 29.001s-39.666 10.834 -60.999 12.501s-42 2.5 -62 2.5c-59.333 0 -107.666 -7 -144.999 -21s-66.333 -34.667 -87 -62
s-34.667 -61.5 -42 -102.5s-11 -88.5 -11 -142.5v-141c0 -59.333 6 -107.833 18 -145.5s30.833 -67.5 56.5 -89.5s58.667 -37.167 99 -45.5s88.5 -12.5 144.5 -12.5c19.333 0 37.5 1.33301 54.5 4s32.833 7.33398 47.5 14.001s28.167 15.667 40.5 27s23.833 26 34.5 44h7z
M530.997 311.997c0 -28 -1.5 -51.666 -4.5 -70.999s-10 -35.166 -21 -47.499s-27 -21.333 -48 -27s-49.833 -8.5 -86.5 -8.5c-27.333 0 -49.5 2 -66.5 6s-30.167 11.5 -39.5 22.5s-15.833 26.5 -19.5 46.5s-5.5 46.333 -5.5 79v145c0 26 1.66699 47.667 5 65
s9.83301 31.166 19.5 41.499s23 17.666 40 21.999s39.167 6.5 66.5 6.5c28.667 0 53.167 -1.33301 73.5 -4s37 -8.66699 50 -18s22.333 -23 28 -41s8.5 -42 8.5 -72v-145z" />
    <glyph glyph-name="oe" unicode="&#x153;" horiz-adv-x="920" 
d="M545 328c1.33301 34.667 7.66602 59.667 18.999 75s32.333 23 63 23c28.667 0 50.334 -6.66699 65.001 -20s22 -39.333 22 -78h-169zM373 262c0 -27.333 -0.667969 -49.668 -2.00098 -67.001s-4.83301 -31.166 -10.5 -41.499s-14.167 -17.5 -25.5 -21.5
s-26.666 -6 -45.999 -6c-17.333 0 -31.5 1.33301 -42.5 4s-19.667 8.66699 -26 18s-10.666 23 -12.999 41s-3.5 42.333 -3.5 73c0 28.667 0.666992 52 2 70s4.83301 32 10.5 42s14.167 16.667 25.5 20s27 5 47 5c20.667 0 36.667 -1.66699 48 -5s19.666 -10 24.999 -20
s8.5 -24 9.5 -42s1.5 -41.333 1.5 -70zM277.999 530.998c-53.333 0 -96.168 -4.66602 -128.501 -13.999s-57.166 -24.5 -74.499 -45.5s-28.833 -48.667 -34.5 -83s-8.5 -76.5 -8.5 -126.5c0 -51.333 3 -94 9 -128s17.833 -61.5 35.5 -82.5s42.5 -35.833 74.5 -44.5
s74.333 -13 127 -13c24 0 45 0.666992 63 2s34 4.66602 48 9.99902s26.5 13 37.5 23s21.5 24 31.5 42h6c6 -19.333 15 -34.166 27 -44.499s25.833 -17.833 41.5 -22.5s32 -7.5 49 -8.5s33.167 -1.5 48.5 -1.5c38 0 72.667 2 104 6s58.333 12.333 81 25
c22.667 13.333 40.167 31.666 52.5 54.999s18.5 55 18.5 95h-169c0 -14 -2 -25 -6 -33s-9.83301 -14 -17.5 -18s-16.834 -6.66699 -27.501 -8s-22.667 -2 -36 -2c-18 0 -32.5 1.83301 -43.5 5.5s-19.5 10.167 -25.5 19.5s-10.167 21.5 -12.5 36.5s-3.5 34.167 -3.5 57.5h341
v29c0 53.333 -4.16699 97.333 -12.5 132s-22.333 62.167 -42 82.5s-45.834 34.5 -78.501 42.5s-73.667 12 -123 12c-14 0 -29.167 -0.333008 -45.5 -1s-32.166 -3.16699 -47.499 -7.5s-29.666 -11.333 -42.999 -21s-23.333 -23.167 -30 -40.5h-4
c-8 16.667 -18.833 29.667 -32.5 39s-29 16.333 -46 21s-34.5 7.5 -52.5 8.5s-35 1.5 -51 1.5z" />
    <glyph glyph-name="Scaron" unicode="&#x160;" horiz-adv-x="716" 
d="M320 462c-13.333 0.666992 -25 1.83301 -35 3.5s-18.5 4.5 -25.5 8.5s-12.333 10.167 -16 18.5s-5.5 20.166 -5.5 35.499c0 10.667 1 20 3 28s7 14.667 15 20s19.667 9.33301 35 12s36.666 4 63.999 4c20 0 37 -0.333008 51 -1s25.5 -3.5 34.5 -8.5
s15.667 -12.667 20 -23s6.5 -25.166 6.5 -44.499h192v31c0 52 -8.16699 92.167 -24.5 120.5s-38.333 49.166 -66 62.499s-60 21.166 -97 23.499s-75.833 3.5 -116.5 3.5c-49.333 0 -93.5 -1.83301 -132.5 -5.5s-72.167 -13.167 -99.5 -28.5s-48.333 -38.166 -63 -68.499
s-22 -72.5 -22 -126.5s6.66699 -95.5 20 -124.5s32.5 -50.5 57.5 -64.5s55.667 -23 92 -27s77.5 -7.66699 123.5 -11l44 -3c23.333 -1.33301 42 -2.66602 56 -3.99902s24.667 -4.16602 32 -8.49902s12 -11 14 -20s3 -21.5 3 -37.5s-2.16699 -28.5 -6.5 -37.5
s-11.333 -15.833 -21 -20.5s-22.5 -7.66699 -38.5 -9s-35.667 -2 -59 -2c-24.667 0 -45 0.833008 -61 2.5s-28.833 5.5 -38.5 11.5s-16.5 14.667 -20.5 26s-6 26.666 -6 45.999h-192c0 -61.333 7.66699 -108.833 23 -142.5s36.833 -58.5 64.5 -74.5s61 -25.5 100 -28.5
s82.5 -4.5 130.5 -4.5c54.667 0 100.834 3.16699 138.501 9.5s68.5 15.166 92.5 26.499s42.333 24.833 55 40.5s22 32.5 28 50.5s9.33301 37.167 10 57.5s1 40.833 1 61.5c0 42.667 -4 77.334 -12 104.001s-22.333 47.5 -43 62.5s-49 26 -85 33s-81.667 12.5 -137 16.5z
M356 814.999l183 109l-25 57l-158 -62l-152 62l-27 -57z" />
    <glyph glyph-name="scaron" unicode="&#x161;" horiz-adv-x="578" 
d="M521 376v25.0049c0 32 -7.66699 56.833 -23 74.5s-34.5 30.667 -57.5 39s-48 13.166 -75 14.499s-52.5 2 -76.5 2c-36.667 0 -70.667 -1 -102 -3s-58.5 -8.5 -81.5 -19.5s-41 -28.167 -54 -51.5s-19.5 -56 -19.5 -98c0 -26.667 3.16699 -49.834 9.5 -69.501
s18.666 -35.834 36.999 -48.501s44.333 -22.167 78 -28.5s77.834 -9.5 132.501 -9.5c14.667 0 27.667 -0.333008 39 -1s20.833 -2.5 28.5 -5.5s13.334 -8.16699 17.001 -15.5s5.5 -17.333 5.5 -30c0 -10 -1 -18.167 -3 -24.5s-6.16699 -11 -12.5 -14s-15.5 -5 -27.5 -6
s-27.667 -1.5 -47 -1.5c-10.667 0 -21 0.333008 -31 1s-19 2.83398 -27 6.50098s-14.5 9.5 -19.5 17.5s-7.5 19.333 -7.5 34h-172c0 -43.333 7 -76.5 21 -99.5s32.833 -39.833 56.5 -50.5s51 -16.667 82 -18s63.5 -2 97.5 -2c34.667 0 67.5 2 98.5 6
s58.167 12.167 81.5 24.5s42 30.166 56 53.499s21 54.333 21 93c0 36.667 -5 65.5 -15 86.5s-25.5 36.833 -46.5 47.5s-47.667 17.5 -80 20.5s-70.833 5.16699 -115.5 6.5c-22 0.666992 -39 2.16699 -51 4.5s-21 5.5 -27 9.5s-9.5 8.66699 -10.5 14s-1.5 11.333 -1.5 18
c0 8 0.5 14.667 1.5 20s4.33301 9.66602 10 12.999s14.5 5.66602 26.5 6.99902s29.333 2 52 2c7.33301 0 14.666 -0.166992 21.999 -0.5s14.333 -1.83301 21 -4.5c6.66699 -3.33301 12.5 -7.83301 17.5 -13.5s8.16699 -14.167 9.5 -25.5h162zM287 590.005l183 109l-25 57
l-158 -62l-152 62l-27 -57z" />
    <glyph glyph-name="Ydieresis" unicode="&#x178;" horiz-adv-x="708" 
d="M724 750h-232l-138 -289h-7l-134 289h-229l266 -487v-263h200v263zM304 937h-109v-103h109v103zM514 937h-109v-103h109v103z" />
    <glyph glyph-name="florin" unicode="&#x192;" 
d="M596 489l-101.999 0.00292969l9 53c2.66699 19.333 6 34.833 10 46.5s9 20.5 15 26.5s13.333 10 22 12s19 3 31 3s25.333 -1.66699 40 -5l22 131c-39.333 0 -73.5 -0.333008 -102.5 -1s-54.333 -2.83398 -76 -6.50098s-40 -9.83398 -55 -18.501s-27.667 -20.667 -38 -36
s-19.333 -34.833 -27 -58.5s-14.5 -52.834 -20.5 -87.501l-11 -59h-75l-22 -126h76l-68 -384c-2 -12 -4.33301 -23.167 -7 -33.5s-6.5 -19.5 -11.5 -27.5s-11.833 -14.167 -20.5 -18.5s-20.334 -6.5 -35.001 -6.5c-8.66699 0 -17.167 0.5 -25.5 1.5
s-16.833 2.16699 -25.5 3.5l-22 -131c68 0 121.667 1.33301 161 4s69.666 10.5 90.999 23.5s36.833 33.5 46.5 61.5s18.834 67 27.501 117l69 390h102z" />
    <glyph glyph-name="circumflex" unicode="&#x2c6;" horiz-adv-x="512" 
d="M254 756l-179 -109l27 -57l152 62l158 -62l25 57z" />
    <glyph glyph-name="caron" unicode="&#x2c7;" horiz-adv-x="512" 
d="M254 590l183 109l-25 57l-158 -62l-152 62l-27 -57z" />
    <glyph glyph-name="breve" unicode="&#x2d8;" horiz-adv-x="506" 
d="M75 733c2.66699 -22.667 9.16797 -43.833 19.501 -63.5s23.333 -36.667 39 -51s33.667 -25.5 54 -33.5s42.166 -12 65.499 -12c24 0 46.333 4 67 12s38.667 19 54 33s28 30.833 38 50.5s16.333 41.167 19 64.5h-94c-4.66699 -23.333 -13.5 -41.666 -26.5 -54.999
s-32.167 -20 -57.5 -20s-44.5 6.66699 -57.5 20s-21.833 31.666 -26.5 54.999h-94z" />
    <glyph glyph-name="dotaccent" unicode="&#x2d9;" horiz-adv-x="259" 
d="M184 712h-109v-103h109v103z" />
    <glyph glyph-name="ring" unicode="&#x2da;" horiz-adv-x="345" 
d="M75 664c0 -27.333 9.5 -50.5 28.5 -69.5s42.167 -28.5 69.5 -28.5c13.333 0 25.833 2.5 37.5 7.5s22 12 31 21s16 19.5 21 31.5s7.5 24.667 7.5 38s-2.5 26 -7.5 38s-12 22.333 -21 31s-19.333 15.5 -31 20.5s-24.167 7.5 -37.5 7.5c-27.333 0 -50.5 -9.33301 -69.5 -28
s-28.5 -41.667 -28.5 -69zM127 664c0 12.667 4.33301 23.334 13 32.001s19.334 13 32.001 13c12 0 22.667 -4.33301 32 -13s14 -19.334 14 -32.001s-4.66699 -23.5 -14 -32.5s-20 -13.5 -32 -13.5c-12.667 0 -23.334 4.5 -32.001 13.5s-13 19.833 -13 32.5z" />
    <glyph glyph-name="ogonek" unicode="&#x2db;" horiz-adv-x="314" 
d="M147 0c-19.333 -10 -36.1709 -23.167 -50.5039 -39.5s-21.5 -36.166 -21.5 -59.499c0 -15.333 3 -28.666 9 -39.999s13.833 -20.833 23.5 -28.5s20.834 -13.5 33.501 -17.5s26 -6 40 -6c9.33301 0 18.833 0.833008 28.5 2.5s18.834 4.5 27.501 8.5v76
c-7.33301 -2.66699 -14.666 -4.83398 -21.999 -6.50098s-15 -2.5 -23 -2.5c-10 0 -18.833 2 -26.5 6s-11.5 11.667 -11.5 23c0 8.66699 3.16699 17.167 9.5 25.5s13.833 16.166 22.5 23.499s17.834 14 27.501 20l24.5 15h-91z" />
    <glyph glyph-name="tilde" unicode="&#x2dc;" horiz-adv-x="585" 
d="M428 733c-5.33301 -10.667 -11.9961 -21.001 -19.9961 -31.001s-18.667 -15 -32 -15c-12.667 0 -25.334 3.5 -38.001 10.5s-26 15.167 -40 24.5c-13.333 8.66699 -27.666 16.5 -42.999 23.5s-32 10.5 -50 10.5c-15.333 0 -29.333 -2.66699 -42 -8
s-24.334 -12.5 -35.001 -21.5s-20.5 -19.333 -29.5 -31s-16.833 -23.5 -23.5 -35.5l82 -44c6.66699 12 14.5 22.5 23.5 31.5s21.167 13.5 36.5 13.5c11.333 0 22.666 -3.5 33.999 -10.5l37 -23.5c13.333 -8.66699 28.166 -16.5 44.499 -23.5s34.5 -10.5 54.5 -10.5
c15.333 0 29.166 2.83301 41.499 8.5s23.5 13.167 33.5 22.5s19 19.833 27 31.5s15 23.834 21 36.501z" />
    <glyph glyph-name="hungarumlaut" unicode="&#x2dd;" horiz-adv-x="595" 
d="M219 802l-144 -175l46 -47l180 139zM438 802l-144 -175l46 -47l180 139z" />
    <glyph glyph-name="Delta" unicode="&#x394;" horiz-adv-x="722" 
d="M710 0l-272 712h-177l-249 -712h698zM486 150h-258l124 386z" />
    <glyph glyph-name="Omega" unicode="&#x3a9;" horiz-adv-x="778" 
d="M726 416c0 48 -8.83398 91.0029 -26.501 129.003s-41.667 70 -72 96s-65.666 45.833 -105.999 59.5s-83.166 20.5 -128.499 20.5c-46.667 0 -90.667 -6.66699 -132 -20s-77.5 -32.833 -108.5 -58.5s-55.667 -57.5 -74 -95.5s-27.5 -82 -27.5 -132
c0 -28.667 3.5 -56.5 10.5 -83.5s17.833 -51.5 32.5 -73.5s32.667 -41.167 54 -57.5s46.666 -28.5 75.999 -36.5v-19h-173v-145h302v222c-21.333 4 -39.833 11.167 -55.5 21.5s-28.5 23.166 -38.5 38.499s-17.5 32.5 -22.5 51.5s-7.5 38.833 -7.5 59.5
c0 24 3.66699 47 11 69s18 41.333 32 58s31 29.834 51 39.501s43 14.5 69 14.5c25.333 0 47.833 -4.66699 67.5 -14s36.167 -21.833 49.5 -37.5s23.333 -34.167 30 -55.5s10 -44 10 -68c0 -20.667 -2.33301 -40.834 -7 -60.501s-12.167 -37.5 -22.5 -53.5
s-23.5 -29.5 -39.5 -40.5s-35 -18.5 -57 -22.5v-222h302v145h-172v19c28.667 6 53.834 17.333 75.501 34s39.667 36.667 54 60s25.166 48.666 32.499 75.999s11 54.666 11 81.999z" />
    <glyph glyph-name="pi" unicode="&#x3c0;" horiz-adv-x="629" 
d="M604 21l-0.000976562 113c-7.33301 -3.33301 -14.5 -6 -21.5 -8s-14.167 -3 -21.5 -3c-11.333 0 -19.666 2.5 -24.999 7.5s-9 11.333 -11 19s-2.83301 16 -2.5 25s0.5 17.5 0.5 25.5v155h81v141h-604v-141h70v-355h155v355h143v-217c0 -22 2 -42 6 -60
s10.833 -33.5 20.5 -46.5s22.667 -23 39 -30s36.833 -10.5 61.5 -10.5c21.333 0 40 2.5 56 7.5s33.667 12.5 53 22.5z" />
    <glyph glyph-name="endash" unicode="&#x2013;" horiz-adv-x="500" 
d="M0 358v-164h500v164h-500z" />
    <glyph glyph-name="emdash" unicode="&#x2014;" horiz-adv-x="1000" 
d="M0 358v-164h1000v164h-1000z" />
    <glyph glyph-name="quoteleft" unicode="&#x2018;" horiz-adv-x="264" 
d="M208 446l-0.000976562 168.001h-62c0 25.333 4.83301 42.666 14.5 51.999s28.834 14.333 57.501 15v75c-34 0 -62.333 -2.5 -85 -7.5s-40.5 -13.167 -53.5 -24.5s-22 -26 -27 -44s-7.16699 -40 -6.5 -66v-168h162z" />
    <glyph glyph-name="quoteright" unicode="&#x2019;" horiz-adv-x="264" 
d="M56 750l0.000976562 -168.001h62c0 -25.333 -4.83301 -42.666 -14.5 -51.999s-28.834 -14.333 -57.501 -15v-75c34 0 62.333 2.5 85 7.5s40.5 13.167 53.5 24.5s22 26 27 44s7.16699 40 6.5 66v168h-162z" />
    <glyph glyph-name="quotesinglbase" unicode="&#x201a;" horiz-adv-x="264" 
d="M56 168l0.000976562 -168.001h62c0 -25.333 -4.83301 -42.666 -14.5 -51.999s-28.834 -14.333 -57.501 -15v-75c34 0 62.333 2.5 85 7.5s40.5 13.167 53.5 24.5s22 26 27 44s7.16699 40 6.5 66v168h-162z" />
    <glyph glyph-name="quotedblleft" unicode="&#x201c;" horiz-adv-x="489" 
d="M433 446l-0.000976562 168.001h-62c0 25.333 4.83301 42.666 14.5 51.999s28.834 14.333 57.501 15v75c-34 0 -62.333 -2.5 -85 -7.5s-40.5 -13.167 -53.5 -24.5s-22 -26 -27 -44s-7.16699 -40 -6.5 -66v-168h162zM207.999 446.001l-0.000976562 168.001h-62
c0 25.333 4.83301 42.666 14.5 51.999s28.834 14.333 57.501 15v75c-34 0 -62.333 -2.5 -85 -7.5s-40.5 -13.167 -53.5 -24.5s-22 -26 -27 -44s-7.16699 -40 -6.5 -66v-168h162z" />
    <glyph glyph-name="quotedblright" unicode="&#x201d;" horiz-adv-x="489" 
d="M56 750l0.000976562 -168.001h62c0 -25.333 -4.83301 -42.666 -14.5 -51.999s-28.834 -14.333 -57.501 -15v-75c34 0 62.333 2.5 85 7.5s40.5 13.167 53.5 24.5s22 26 27 44s7.16699 40 6.5 66v168h-162zM281.001 749.999l0.000976562 -168.001h62
c0 -25.333 -4.83301 -42.666 -14.5 -51.999s-28.834 -14.333 -57.501 -15v-75c34 0 62.333 2.5 85 7.5s40.5 13.167 53.5 24.5s22 26 27 44s7.16699 40 6.5 66v168h-162z" />
    <glyph glyph-name="quotedblbase" unicode="&#x201e;" horiz-adv-x="489" 
d="M54 168l0.000976562 -168.001h62c0 -25.333 -4.83301 -42.666 -14.5 -51.999s-28.834 -14.333 -57.501 -15v-75c34 0 62.333 2.5 85 7.5s40.5 13.167 53.5 24.5s22 26 27 44s7.16699 40 6.5 66v168h-162zM279.001 167.999l0.000976562 -168.001h62
c0 -25.333 -4.83301 -42.666 -14.5 -51.999s-28.834 -14.333 -57.501 -15v-75c34 0 62.333 2.5 85 7.5s40.5 13.167 53.5 24.5s22 26 27 44s7.16699 40 6.5 66v168h-162z" />
    <glyph glyph-name="dagger" unicode="&#x2020;" 
d="M446 750h-172v-219h-182v-132h182v-626h172v626h182v132h-182v219z" />
    <glyph glyph-name="daggerdbl" unicode="&#x2021;" 
d="M446 750h-172v-225h-182v-132h182v-261h-182v-132h182v-227h172v227h182v132h-182v261h182v132h-182v225z" />
    <glyph glyph-name="bullet" unicode="&#x2022;" horiz-adv-x="600" 
d="M488 375c0 26 -5 50.334 -15 73.001s-23.5 42.5 -40.5 59.5s-36.833 30.5 -59.5 40.5s-47 15 -73 15s-50.5 -5 -73.5 -15s-43 -23.5 -60 -40.5s-30.333 -36.833 -40 -59.5s-14.167 -47 -13.5 -73c0 -26 4.83301 -50.5 14.5 -73.5s23 -42.833 40 -59.5
s36.833 -29.834 59.5 -39.501s47 -14.5 73 -14.5s50.333 4.83301 73 14.5s42.5 23 59.5 40s30.5 36.833 40.5 59.5s15 47 15 73z" />
    <glyph glyph-name="ellipsis" unicode="&#x2026;" horiz-adv-x="1000" 
d="M247 174h-162v-174h162v174zM581 174h-162v-174h162v174zM915 174h-162v-174h162v174z" />
    <glyph glyph-name="perthousand" unicode="&#x2030;" horiz-adv-x="1290" 
d="M1267 240c-0.666992 30 -4.16699 53.833 -10.5 71.5s-16.166 31.334 -29.499 41.001s-30.333 15.834 -51 18.501s-45.667 4 -75 4s-53.833 -1.5 -73.5 -4.5s-35.834 -9.16699 -48.501 -18.5s-21.834 -23 -27.501 -41s-8.83398 -42 -9.50098 -72v-110
c0.666992 -30 3.83398 -53.833 9.50098 -71.5s14.834 -31.334 27.501 -41.001s29 -15.834 49 -18.501s44.667 -4 74 -4c28.667 0 53.334 1.5 74.001 4.5s37.667 9.16699 51 18.5s23.166 23 29.499 41s9.83301 42 10.5 72v110zM1167 145c0 -16 -1.16699 -28.333 -3.5 -37
s-6 -15 -11 -19s-11.667 -6.33301 -20 -7s-18.833 -1 -31.5 -1c-12 0 -21.833 0.333008 -29.5 1s-13.667 3 -18 7s-7.33301 10.333 -9 19s-2.5 21 -2.5 37v83c0 14.667 0.833008 26 2.5 34s4.66699 14 9 18s10.333 6.33301 18 7s17.5 1 29.5 1
c13.333 0 24.333 -0.333008 33 -1s15.5 -3 20.5 -7s8.33301 -10 10 -18s2.5 -19.333 2.5 -34v-83zM742 750h-120l-443 -750h120zM884 240c-0.666992 30 -4.16699 53.833 -10.5 71.5s-16.166 31.334 -29.499 41.001s-30.333 15.834 -51 18.501s-45.667 4 -75 4
s-53.833 -1.5 -73.5 -4.5s-35.834 -9.16699 -48.501 -18.5s-21.834 -23 -27.501 -41s-8.83398 -42 -9.50098 -72v-110c0.666992 -30 3.83398 -53.833 9.50098 -71.5s14.834 -31.334 27.501 -41.001s29 -15.834 49 -18.501s44.667 -4 74 -4c28.667 0 53.334 1.5 74.001 4.5
s37.667 9.16699 51 18.5s23.166 23 29.499 41s9.83301 42 10.5 72v110zM784 145c0 -16 -1.16699 -28.333 -3.5 -37s-6 -15 -11 -19s-11.667 -6.33301 -20 -7s-18.833 -1 -31.5 -1c-12 0 -21.833 0.333008 -29.5 1s-13.667 3 -18 7s-7.33301 10.333 -9 19s-2.5 21 -2.5 37v83
c0 14.667 0.833008 26 2.5 34s4.66699 14 9 18s10.333 6.33301 18 7s17.5 1 29.5 1c13.333 0 24.333 -0.333008 33 -1s15.5 -3 20.5 -7s8.33301 -10 10 -18s2.5 -19.333 2.5 -34v-83zM348 621c-0.666992 30 -4.16699 53.833 -10.5 71.5s-16.166 31.334 -29.499 41.001
s-30.333 15.834 -51 18.501s-45.667 4 -75 4s-53.833 -1.5 -73.5 -4.5s-35.834 -9.16699 -48.501 -18.5s-21.834 -23 -27.501 -41s-8.83398 -42 -9.50098 -72v-110c0.666992 -30 3.83398 -53.833 9.50098 -71.5s14.834 -31.334 27.501 -41.001s29 -15.834 49 -18.501
s44.667 -4 74 -4c28.667 0 53.334 1.5 74.001 4.5s37.667 9.16699 51 18.5s23.166 23 29.499 41s9.83301 42 10.5 72v110zM248 526c0 -16 -1.16699 -28.333 -3.5 -37s-6 -15 -11 -19s-11.667 -6.33301 -20 -7s-18.833 -1 -31.5 -1c-12 0 -21.833 0.333008 -29.5 1
s-13.667 3 -18 7s-7.33301 10.333 -9 19s-2.5 21 -2.5 37v83c0 14.667 0.833008 26 2.5 34s4.66699 14 9 18s10.333 6.33301 18 7s17.5 1 29.5 1c13.333 0 24.333 -0.333008 33 -1s15.5 -3 20.5 -7s8.33301 -10 10 -18s2.5 -19.333 2.5 -34v-83z" />
    <glyph glyph-name="guilsinglleft" unicode="&#x2039;" horiz-adv-x="331" 
d="M172 515l-128 -243l134 -235l107 66l-96 169l96 182z" />
    <glyph glyph-name="guilsinglright" unicode="&#x203a;" horiz-adv-x="330" 
d="M152 37l128 243l-134 235l-107 -66l96 -169l-96 -182z" />
    <glyph glyph-name="trademark" unicode="&#x2122;" horiz-adv-x="860" 
d="M864 750h-147l-91 -239l-91 239h-147v-404h93v323h2l117 -323h52l117 323h2v-323h93v404zM344 750h-348v-83h123v-321h102v321h123v83z" />
    <glyph glyph-name="partialdiff" unicode="&#x2202;" horiz-adv-x="593" 
d="M548 358c0 45.333 -4.66602 89.6631 -13.999 132.996s-24.666 82 -45.999 116s-50 61.5 -86 82.5s-80.333 31.5 -133 31.5c-41.333 0 -77.5 -6.83301 -108.5 -20.5s-61.5 -34.5 -91.5 -62.5l84 -93c17.333 16.667 35.5 30.5 54.5 41.5s40.833 16.5 65.5 16.5
s44.667 -6.33301 60 -19s27.5 -28.667 36.5 -48s15.167 -40.166 18.5 -62.499s5 -42.833 5 -61.5c-18.667 13.333 -38.167 23.5 -58.5 30.5s-41.833 10.5 -64.5 10.5c-32.667 0 -62.834 -6 -90.501 -18s-51.5 -28.333 -71.5 -49s-35.5 -45 -46.5 -73s-16.5 -58 -16.5 -90
c0 -36 6 -68.667 18 -98s28.667 -54.166 50 -74.499s46.833 -36.166 76.5 -47.499s62.167 -17 97.5 -17c53.333 0 96.833 11.333 130.5 34s60.167 51.834 79.5 87.501s32.666 75.5 39.999 119.5s11 87.667 11 131zM391.001 272.997c0 -16 -1.49902 -34.166 -4.49902 -54.499
s-8.5 -39.166 -16.5 -56.499s-18.667 -32 -32 -44s-30.333 -18 -51 -18c-16 0 -29.667 3.5 -41 10.5s-20.833 16 -28.5 27s-13.334 23.333 -17.001 37s-5.5 27.5 -5.5 41.5c0 15.333 2 30.166 6 44.499s10.333 27.166 19 38.499s19.167 20.5 31.5 27.5
s27.166 10.5 44.499 10.5c16.667 0 33.834 -4.33301 51.501 -13s32.167 -18.667 43.5 -30v-21z" />
    <glyph glyph-name="product" unicode="&#x220f;" horiz-adv-x="759" 
d="M711 -214v1000h-663v-1000h157v845h350v-845h156z" />
    <glyph glyph-name="summation" unicode="&#x2211;" horiz-adv-x="704" 
d="M674 -214v156h-440l266 351l-251 337h413v156h-621v-137l275 -356l-286 -372v-135h644z" />
    <glyph glyph-name="minus" unicode="&#x2212;" horiz-adv-x="600" 
d="M50 219h500v115h-500v-115z" />
    <glyph glyph-name="fraction" unicode="&#x2215;" horiz-adv-x="218" 
d="M390 750h-120l-443 -750h120z" />
    <glyph glyph-name="radical" unicode="&#x221a;" horiz-adv-x="611" 
d="M617 786h-166l-155 -760l-104 232l-198 -91l58 -122l58 27l140 -286h142z" />
    <glyph glyph-name="infinity" unicode="&#x221e;" horiz-adv-x="889" 
d="M844 276c0 30.667 -4.50391 59.1699 -13.5039 85.5029s-22.167 49 -39.5 68s-38.666 33.833 -63.999 44.5s-54 16 -86 16c-24 0 -45.333 -3.16699 -64 -9.5s-35.834 -15 -51.501 -26s-30 -24.333 -43 -40s-25.833 -32.5 -38.5 -50.5c-13.333 18 -26.5 34.667 -39.5 50
s-27.167 28.666 -42.5 39.999s-32.333 20.166 -51 26.499s-39.667 9.5 -63 9.5c-32 0 -60.667 -5.33301 -86 -16s-46.666 -25.5 -63.999 -44.5s-30.5 -41.667 -39.5 -68s-13.5 -54.833 -13.5 -85.5c0 -31.333 4.66699 -60.5 14 -87.5s23 -50.333 41 -70s39.833 -35 65.5 -46
s54.834 -16.5 87.501 -16.5c43.333 0 79.833 11.167 109.5 33.5s56.834 50.166 81.501 83.499c24.667 -33.333 52.834 -61.333 84.501 -84s69.167 -34 112.5 -34c32.667 0 61.5 5.66699 86.5 17s46.167 27 63.5 47s30.5 43.333 39.5 70s13.5 55.667 13.5 87z
M711.996 273.003c0 -22.667 -6.16797 -41.666 -18.501 -56.999s-30.5 -23 -54.5 -23c-12.667 0 -24.5 2.33301 -35.5 7s-21.333 10.667 -31 18s-18.667 15.666 -27 24.999s-15.833 18.666 -22.5 27.999c6 8.66699 13.167 17.834 21.5 27.501s17.333 18.5 27 26.5
s19.834 14.667 30.501 20s22 8 34 8c23.333 0 41.833 -7.66699 55.5 -23s20.5 -34.333 20.5 -57zM364.995 271.004c-13.333 -19.333 -29.667 -36.999 -49 -52.999s-41.333 -24 -66 -24c-23.333 0 -41.333 7.33301 -54 22s-19 33.334 -19 56.001
c0 21.333 6.33301 40.166 19 56.499s30.334 24.5 53.001 24.5c11.333 0 22.666 -2.66699 33.999 -8s22 -12 32 -20s19.333 -16.833 28 -26.5s16 -18.834 22 -27.501z" />
    <glyph glyph-name="integral" unicode="&#x222b;" horiz-adv-x="667" 
d="M573 684c0 18 -4.66699 33.499 -14 46.499s-21 23.667 -35 32s-29.333 14.333 -46 18s-32.667 5.5 -48 5.5s-30.833 -1.5 -46.5 -4.5s-30.167 -8.16699 -43.5 -15.5c-28 -15.333 -49.333 -35 -64 -59s-25.167 -50 -31.5 -78s-10 -57 -11 -87s-1.5 -58.667 -1.5 -86v-389
c0 -29.333 1.5 -58.166 4.5 -86.499s4.5 -57.166 4.5 -86.499c0 -3.33301 -0.166992 -7.5 -0.5 -12.5s-1 -9.66699 -2 -14s-3 -8 -6 -11s-6.83301 -4.5 -11.5 -4.5c-6.66699 0 -11.167 2.66699 -13.5 8s-4.33301 12 -6 20s-3.16699 16.667 -4.5 26s-4.33301 18 -9 26
s-11.334 14.667 -20.001 20s-21 8 -37 8c-21.333 0 -38.5 -6.83301 -51.5 -20.5s-19.5 -31.167 -19.5 -52.5c0 -18 4.66699 -33.5 14 -46.5s21 -23.5 35 -31.5s29.333 -14 46 -18s32.334 -6 47.001 -6c36 0 66 6.16699 90 18.5s43.333 28.666 58 48.999s25.667 44 33 71
s12.333 55 15 84s3.83398 58 3.50098 87s-0.5 56.167 -0.5 81.5l-1 302c0 34 -1.33301 67.667 -4 101s-4 67 -4 101c0 3.33301 0.166992 7.33301 0.5 12s1 9 2 13s2.83301 7.5 5.5 10.5s6.66699 4.5 12 4.5c10 0 15.833 -5.66699 17.5 -17s3.66699 -23.833 6 -37.5
s7.83301 -26.167 16.5 -37.5s25 -17 49 -17c21.333 0 38.666 6.83301 51.999 20.5s20 31.167 20 52.5z" />
    <glyph glyph-name="approxequal" unicode="&#x2248;" horiz-adv-x="593" 
d="M579 503l-102 -0.00292969c-1.33301 -15.333 -5.83301 -28 -13.5 -38s-20.167 -15 -37.5 -15c-19.333 0 -39.666 3 -60.999 9s-43.166 12.833 -65.499 20.5s-44.333 14.5 -66 20.5s-42.167 9 -61.5 9c-26 0 -48.833 -7.16699 -68.5 -21.5s-36.167 -32.166 -49.5 -53.499
s-23.333 -44.666 -30 -69.999s-10 -49 -10 -71h101c1.33301 14.667 6.5 27.334 15.5 38.001s21.167 16 36.5 16c18.667 0 39.167 -3.16699 61.5 -9.5s44.666 -13.166 66.999 -20.499s44.166 -14.166 65.499 -20.499s41 -9.5 59 -9.5c26.667 0 49.667 7.16699 69 21.5
s35.5 32.166 48.5 53.499s22.833 44.666 29.5 69.999s10.667 49 12 71zM579 252.997l-102.002 -0.00292969c-2.66699 -15.333 -7.33398 -28.166 -14.001 -38.499s-19 -15.5 -37 -15.5c-22 0 -43.667 3 -65 9s-42.666 12.833 -63.999 20.5s-42.666 14.5 -63.999 20.5
s-43 9 -65 9c-24.667 0 -46.5 -7.33301 -65.5 -22s-35 -32.667 -48 -54s-23 -44.5 -30 -69.5s-10.5 -47.833 -10.5 -68.5h101c2 15.333 7.16699 27.833 15.5 37.5s20.833 14.5 37.5 14.5c19.333 0 39.833 -3.16699 61.5 -9.5s43.667 -13.166 66 -20.499
s44.5 -14.166 66.5 -20.499s43.333 -9.5 64 -9.5c26.667 0 49.334 7.33301 68.001 22s34.167 32.834 46.5 54.501s21.5 45.167 27.5 70.5s9.66699 48.666 11 69.999z" />
    <glyph glyph-name="notequal" unicode="&#x2260;" horiz-adv-x="593" 
d="M569 72v157h-208l43 87h165v158h-88l46 93l-137 68l-80 -161h-287v-158h209l-42 -87h-167v-157h89l-46 -95l138 -68l80 163h285z" />
    <glyph glyph-name="lessequal" unicode="&#x2264;" horiz-adv-x="593" 
d="M569 128v161l-326 81l326 66v160l-546 -148v-156zM569 -53v157h-546v-157h546z" />
    <glyph glyph-name="greaterequal" unicode="&#x2265;" horiz-adv-x="593" 
d="M569 292v156l-546 148v-160l327 -66l-327 -81v-161zM569 -53v157h-546v-157h546z" />
    <glyph glyph-name="lozenge" unicode="&#x25ca;" horiz-adv-x="593" 
d="M562 356l-196 391h-140l-196 -391l194 -391h142zM400 356l-104 -231l-105 231l105 231z" />
    <glyph glyph-name="apple" unicode="&#xf8ff;" horiz-adv-x="500" 
 />
    <glyph glyph-name="fi" unicode="&#xfb01;" horiz-adv-x="651" 
d="M608 525h-172v-525h172v525zM608 750h-172v-132h172v132zM371 750c-57.333 0.666992 -104.166 -1.66602 -140.499 -6.99902s-65 -14.5 -86 -27.5s-35.5 -30.833 -43.5 -53.5s-12 -51.334 -12 -86.001v-51h-69v-126h69v-399h172v399h117v126h-117v19
c0 16.667 0.5 30.167 1.5 40.5s4 18.5 9 24.5s12.667 10 23 12s25.166 3 44.499 3c10 0 20.667 -1.66699 32 -5v131z" />
    <glyph glyph-name="fl" unicode="&#xfb02;" horiz-adv-x="666" 
d="M608 750h-172v-750h172v750zM378 525h-117v19c0 16.667 0.5 30.167 1.5 40.5s4 18.5 9 24.5s12.667 10 23 12s25.166 3 44.499 3c10 0 20.667 -1.66699 32 -5v131c-57.333 0.666992 -104.166 -1.66602 -140.499 -6.99902s-65 -14.5 -86 -27.5s-35.5 -30.833 -43.5 -53.5
s-12 -51.334 -12 -86.001v-51h-69v-126h69v-399h172v399h117v126z" />
    </font>
</defs>
</svg>
